<svg id="Layer_1" data-name="Layer 1" xmlns="http://www.w3.org/2000/svg" viewBox="0 0 2100.95 810.81"><title>hero-bg-ai</title><rect x="92.68" width="1935.78" height="810.81" style="fill:#1e3d55"/><polygon points="2059.45 433.58 2002.7 483.24 1901.92 435.95 1979.05 362.19 2059.45 433.58" style="fill:#20a0e9;opacity:0.34"/><polygon points="1478.3 406.66 1242.2 507.43 949.46 360.81 671.24 507.43 819.16 598.71 1772.45 604.81 1478.3 406.66" style="fill:#20a0e9;opacity:0.34"/><polygon points="1303.39 377.48 1498.87 538.38 1786.23 289.63 2100.95 538.38 2083.36 661.94 1127.11 661.94 1127.11 527.44 1303.39 377.48" style="fill:#c5e1f7"/><polygon points="1786.23 289.63 1908.71 386.44 1849.88 370.2 1631.12 423.48 1786.23 289.63" style="fill:#fff"/><polygon points="1786.23 289.63 2100.95 538.38 2083.36 661.94 1786.23 289.63" style="fill:#20a0e9;opacity:0.27"/><polygon points="1393.91 452.32 1340.95 433.62 1217.96 450.14 1302.76 377.34 1393.91 452.32" style="fill:#fff"/><polygon points="1472.06 631.06 1303.77 378.33 1615.02 633.89 1472.06 631.06" style="fill:#20a0e9;opacity:0.27"/><polygon points="241.46 531.89 154.47 608.01 0 535.51 118.22 422.46 241.46 531.89" style="fill:#20a0e9;opacity:0.34"/><polygon points="658.4 232.76 406.57 522.75 264.67 393.87 57.67 591.99 34.48 614.19 97.15 614.59 166.41 615.03 344.29 616.16 660.63 618.18 1024.61 620.5 669.87 218.46 658.4 232.76" style="fill:#c5e1f7"/><polygon points="345.12 467.14 301.79 450.48 170.46 483.81 264.75 393.87 345.12 467.14" style="fill:#fff"/><polygon points="430.05 648.36 264.42 393.87 478.45 587.14 430.05 648.36" style="fill:#20a0e9;opacity:0.27"/><polygon points="670.12 218.47 782.46 345.81 726.12 322.81 533.46 376.48 670.12 218.47" style="fill:#fff"/><polygon points="670.46 218.47 946.79 532.48 1012.2 636.26 899.74 644.41 670.46 218.47" style="fill:#20a0e9;opacity:0.2"/><polygon points="430.08 664.42 92.45 664.42 92.45 482.42 430.08 664.42" style="fill:#a2d9fd"/><rect x="92.46" y="646.2" width="1933.5" height="8.22" style="fill:#e7feff"/><path d="M316.06,536.9c20.46,1.8,37.07,5.87,50.44,10.91l0,0C405.3,562.48,417,585.46,417,585.46l0.28-.28c5.23-5.22,84.37-82.74,160.53-82.76,28.19,0,66.88,15.06,104.94,34.4l0.13,0.08c68.32,34.73,134.58,83.25,134.58,83.25v24.46H153.66c3.54-4.44,8.15-10.06,13.7-16.44C199,591.9,260.12,532,316.06,536.9Z" transform="translate(101.46 9.81)" style="fill:#20a0e9"/><polygon points="1493.16 605.94 2024.45 456.5 2024.45 651.42 1331.45 651.42 1493.16 605.94" style="fill:#20a0e9"/><path d="M1548.38,641.61H1430.77l-40.06-45.48L1922,446.7v2.36c-35.72,23.89-222.25,146.6-334.51,180.7C1572.89,634.2,1560,638.12,1548.38,641.61Z" transform="translate(101.46 9.81)" style="fill:#c5e1f7;opacity:0.59"/><polygon points="772.55 627.05 769.88 627.02 774.98 615.73 776.8 611.7 773.81 611.67 777.65 604.14 780.07 599.41 780.12 599.3 776.9 599.28 779.73 592.59 781.18 589.13 778.99 589.12 782.1 581.81 784.48 576.23 790.08 589.21 787.67 589.19 787.68 589.21 792.03 599.41 788.71 599.38 788.73 599.41 795.15 611.86 792.13 611.84 799.2 627.28 796.4 627.26 805.25 645.01 786.2 644.84 786.2 651.05 782.73 651.05 782.73 644.81 763.88 644.64 769.65 632.94 772.55 627.05" style="fill:#fbfbfb"/><polygon points="798.38 618.4 796.29 618.38 800.29 609.53 801.72 606.37 799.37 606.35 802.38 600.44 804.28 596.73 804.32 596.65 801.8 596.63 804.01 591.38 805.15 588.67 803.43 588.66 805.87 582.93 807.74 578.55 812.13 588.74 810.24 588.72 810.24 588.74 813.66 596.73 811.05 596.71 811.07 596.73 816.1 606.49 813.74 606.47 819.28 618.59 817.08 618.57 824.02 632.48 809.09 632.35 809.09 637.22 806.37 637.22 806.37 632.33 791.58 632.2 796.11 623.02 798.38 618.4" style="fill:#fbfbfb"/><polygon points="754.46 635.12 752.36 635.1 756.36 626.25 757.79 623.09 755.45 623.07 758.46 617.16 760.35 613.45 760.4 613.37 757.87 613.35 760.08 608.1 761.23 605.39 759.51 605.38 761.95 599.65 763.81 595.27 768.2 605.46 766.31 605.44 766.32 605.46 769.73 613.45 767.13 613.43 767.14 613.45 772.18 623.21 769.81 623.19 775.35 635.3 773.16 635.29 780.1 649.2 765.16 649.07 765.16 653.94 762.44 653.94 762.44 649.05 747.66 648.92 752.18 639.74 754.46 635.12" style="fill:#fbfbfb"/><polygon points="858.44 592.77 856.12 592.75 860.55 582.94 862.13 579.45 859.53 579.42 862.87 572.88 864.97 568.78 865.01 568.69 862.22 568.66 864.67 562.86 865.93 559.86 864.03 559.84 866.73 553.5 868.8 548.65 873.66 559.93 871.56 559.91 871.57 559.93 875.35 568.78 872.47 568.75 872.48 568.78 878.06 579.59 875.44 579.56 881.57 592.97 879.14 592.95 886.82 608.36 870.29 608.21 870.29 613.6 867.28 613.6 867.28 608.18 850.91 608.04 855.92 597.88 858.44 592.77" style="fill:#18648f"/><polygon points="889.95 574.98 887.27 574.95 892.39 563.61 894.22 559.57 891.22 559.54 895.08 551.97 897.5 547.22 897.56 547.12 894.32 547.09 897.15 540.37 898.62 536.91 896.42 536.89 899.54 529.55 901.93 523.95 907.55 536.99 905.13 536.96 905.14 536.99 909.51 547.22 906.18 547.2 906.19 547.22 912.64 559.73 909.61 559.7 916.71 575.21 913.9 575.19 922.78 593.01 903.66 592.84 903.66 599.07 900.17 599.07 900.17 592.81 881.24 592.64 887.04 580.89 889.95 574.98" style="fill:#fbfbfb"/><polygon points="915.73 560.66 912.31 560.63 918.84 546.2 921.16 541.05 917.34 541.01 922.25 531.39 925.34 525.34 925.41 525.21 921.29 525.17 924.9 516.62 926.76 512.21 923.96 512.18 927.94 502.85 930.98 495.71 938.13 512.31 935.05 512.28 935.06 512.31 940.62 525.34 936.38 525.3 936.4 525.34 944.61 541.26 940.75 541.22 949.78 560.97 946.21 560.93 957.52 583.62 933.17 583.4 933.17 591.34 928.74 591.34 928.74 583.37 904.64 583.15 912.02 568.19 915.73 560.66" style="fill:#fff"/><polygon points="1784.7 636.29 1780.87 636.25 1785.79 626.63 1788.87 620.58 1788.94 620.45 1784.83 620.41 1788.43 611.86 1790.29 607.45 1787.5 607.42 1791.47 598.09 1794.51 590.95 1801.67 607.55 1798.58 607.52 1798.59 607.55 1804.16 620.58 1799.92 620.54 1799.94 620.58 1808.15 636.5 1804.29 636.46 1812.5 654.42 1776.5 654.42 1782.37 641.44 1784.7 636.29" style="fill:#fbfbfb"/><polygon points="1878.75 645.72 1876.3 645.7 1879.45 639.54 1881.42 635.68 1881.46 635.59 1878.83 635.57 1881.14 630.1 1882.33 627.28 1880.54 627.26 1883.08 621.3 1885.02 616.73 1889.6 627.35 1887.63 627.33 1887.63 627.35 1891.19 635.68 1888.48 635.65 1888.49 635.68 1893.74 645.85 1891.28 645.83 1895.2 654.42 1874.82 654.42 1877.26 649.01 1878.75 645.72" style="fill:#d5e5fd"/><polygon points="1853.51 641.01 1855.41 636.81 1852.28 636.78 1856.3 628.92 1858.82 623.98 1858.87 623.87 1855.51 623.84 1858.45 616.86 1859.97 613.26 1857.69 613.24 1860.94 605.62 1863.42 599.79 1869.26 613.34 1866.74 613.32 1866.75 613.34 1871.3 623.98 1867.83 623.95 1867.85 623.98 1874.55 636.98 1871.4 636.95 1878.78 653.07 1875.86 653.04 1876.54 654.42 1850.18 654.42 1850.97 652.82 1848.18 652.8 1853.51 641.01" style="fill:#d5e5fd"/><polygon points="1833.82 645.28 1830.69 645.25 1834.71 637.39 1834.71 637.39 1837.23 632.46 1837.29 632.35 1833.92 632.32 1836.87 625.34 1838.39 621.73 1836.1 621.71 1839.35 614.09 1841.83 608.26 1847.67 621.81 1845.16 621.79 1845.17 621.81 1849.71 632.46 1846.24 632.42 1846.26 632.46 1852.97 645.45 1849.82 645.42 1853.93 654.42 1829.69 654.42 1831.92 649.48 1833.82 645.28" style="fill:#fbfbfb"/><polygon points="1702.88 644.03 1705.4 639.09 1705.45 638.98 1702.09 638.95 1705.04 631.97 1706.56 628.37 1704.27 628.35 1707.52 620.73 1710 614.9 1715.84 628.45 1713.32 628.43 1713.33 628.45 1717.88 639.09 1714.41 639.06 1714.43 639.09 1721.13 652.09 1717.98 652.06 1719.06 654.42 1700.86 654.42 1701.99 651.92 1698.86 651.89 1702.88 644.03" style="fill:#d5e5fd"/><polygon points="1683.45 646.97 1684.97 643.37 1682.68 643.35 1685.93 635.73 1688.41 629.9 1694.26 643.45 1691.74 643.43 1691.75 643.45 1696.29 654.09 1692.83 654.06 1692.84 654.09 1693.01 654.42 1683.64 654.42 1683.81 654.09 1683.87 653.98 1680.51 653.95 1683.45 646.97" style="fill:#d5e5fd"/><polygon points="1565.47 639.4 1567.37 635.2 1564.25 635.17 1568.26 627.31 1568.26 627.31 1570.78 622.37 1570.84 622.26 1567.48 622.23 1570.42 615.25 1571.94 611.65 1569.66 611.63 1572.9 604.01 1575.38 598.18 1581.23 611.73 1578.71 611.71 1578.72 611.73 1583.26 622.37 1579.8 622.34 1579.81 622.37 1586.52 635.37 1583.37 635.34 1590.74 651.46 1587.82 651.43 1589.31 654.42 1561.36 654.42 1562.93 651.21 1560.14 651.19 1565.47 639.4" style="fill:#fbfbfb"/><polygon points="956.15 556.7 953.85 556.67 958.25 546.95 959.81 543.48 957.24 543.46 960.55 536.97 962.63 532.9 962.63 532.9 962.67 532.81 959.9 532.78 962.33 527.02 963.58 524.05 961.7 524.03 964.38 517.74 966.42 512.93 971.25 524.12 969.17 524.1 969.17 524.12 972.92 532.9 970.07 532.87 970.08 532.9 975.61 543.62 973.01 543.6 979.1 556.9 976.69 556.88 984.31 572.16 967.9 572.02 967.9 577.36 964.92 577.36 964.92 571.99 948.68 571.85 953.65 561.76 956.15 556.7" style="fill:#fbfbfb"/><polygon points="973 562.07 971 562.05 974.83 553.58 976.19 550.56 973.95 550.54 976.83 544.89 978.64 541.34 978.68 541.26 976.27 541.24 978.38 536.22 979.48 533.63 977.84 533.62 980.17 528.14 981.95 523.95 986.15 533.69 984.34 533.67 984.35 533.69 987.62 541.34 985.13 541.32 985.14 541.34 989.96 550.68 987.69 550.66 992.99 562.25 990.89 562.23 997.53 575.55 983.24 575.42 983.24 580.08 980.64 580.08 980.64 575.4 966.5 575.27 970.83 566.49 973 562.07" style="fill:#fbfbfb"/><polygon points="1007.21 540.92 1005.2 540.91 1009.03 532.43 1010.4 529.41 1008.15 529.39 1011.04 523.74 1011.04 523.74 1012.85 520.19 1012.85 520.19 1012.89 520.11 1010.47 520.09 1012.59 515.07 1013.68 512.48 1012.04 512.47 1014.38 506.99 1016.16 502.8 1020.36 512.54 1018.55 512.52 1018.56 512.54 1021.82 520.19 1019.33 520.17 1019.34 520.19 1024.16 529.53 1021.9 529.51 1027.2 541.1 1025.1 541.08 1031.74 554.4 1017.45 554.27 1017.45 558.93 1014.85 558.93 1014.85 554.25 1000.7 554.13 1005.03 545.34 1007.21 540.92" style="fill:#fbfbfb"/><polygon points="1033.8 534.98 1031.13 534.96 1036.22 523.69 1038.04 519.67 1035.05 519.64 1038.89 512.13 1041.3 507.4 1041.35 507.3 1038.14 507.27 1040.95 500.6 1042.4 497.15 1040.22 497.13 1043.33 489.85 1045.7 484.27 1051.29 497.23 1048.88 497.21 1048.89 497.23 1053.23 507.4 1049.92 507.38 1049.93 507.4 1056.35 519.83 1053.33 519.8 1060.38 535.22 1057.59 535.19 1066.42 552.9 1047.41 552.74 1047.41 558.93 1043.95 558.93 1043.95 552.71 1025.14 552.54 1030.9 540.86 1033.8 534.98" style="fill:#fff"/><polygon points="1067.89 546.3 1066.14 546.28 1069.49 538.87 1070.68 536.22 1068.72 536.21 1071.24 531.26 1072.83 528.15 1072.86 528.09 1070.75 528.07 1072.6 523.68 1073.56 521.41 1072.12 521.4 1074.16 516.6 1075.72 512.93 1079.4 521.46 1077.82 521.45 1077.82 521.46 1080.68 528.15 1078.5 528.14 1078.51 528.15 1082.73 536.33 1080.75 536.31 1085.39 546.46 1083.55 546.44 1089.36 558.09 1076.85 557.98 1076.85 562.06 1074.58 562.06 1074.58 557.96 1062.2 557.85 1065.99 550.16 1067.89 546.3" style="fill:#fbfbfb"/><polygon points="1160.08 525.86 1157.92 525.85 1162.03 516.77 1163.49 513.53 1161.08 513.51 1164.17 507.46 1166.12 503.66 1166.16 503.57 1163.57 503.55 1165.84 498.18 1167.01 495.4 1165.25 495.39 1167.75 489.52 1169.66 485.03 1174.16 495.47 1172.22 495.45 1172.22 495.47 1175.72 503.66 1173.06 503.64 1173.07 503.66 1178.23 513.66 1175.81 513.64 1181.48 526.05 1179.23 526.03 1186.34 540.3 1171.04 540.16 1171.04 545.15 1168.25 545.15 1168.25 540.13 1153.11 540 1157.74 530.6 1160.08 525.86" style="fill:#fbfbfb"/><polygon points="1210.65 515.65 1208.5 515.63 1212.6 506.56 1214.06 503.32 1211.66 503.3 1214.75 497.25 1214.75 497.25 1216.69 493.45 1216.73 493.36 1214.14 493.34 1216.41 487.97 1217.58 485.19 1215.82 485.18 1218.32 479.31 1220.23 474.82 1224.73 485.26 1222.79 485.24 1222.8 485.26 1226.3 493.45 1223.63 493.43 1223.64 493.45 1228.8 503.45 1226.38 503.43 1232.06 515.84 1229.81 515.82 1236.92 530.08 1221.61 529.95 1221.61 534.94 1218.83 534.94 1218.83 529.92 1203.68 529.79 1208.32 520.38 1210.65 515.65" style="fill:#c5e1f7"/><polygon points="1156.78 508.11 1154.11 508.08 1159.2 496.82 1161.02 492.81 1158.04 492.78 1161.87 485.27 1161.87 485.27 1164.28 480.55 1164.28 480.55 1164.33 480.45 1161.12 480.42 1163.93 473.75 1165.38 470.31 1163.2 470.29 1166.3 463.01 1168.68 457.44 1174.26 470.39 1171.85 470.36 1171.86 470.39 1176.2 480.55 1172.89 480.52 1172.91 480.55 1179.32 492.97 1176.3 492.94 1183.35 508.35 1180.56 508.32 1189.38 526.02 1170.39 525.85 1170.39 532.04 1166.93 532.04 1166.93 525.82 1148.13 525.65 1153.89 513.98 1156.78 508.11" style="fill:#fbfbfb"/><polygon points="1275.46 523.6 1273.76 523.59 1277 516.42 1278.16 513.86 1276.26 513.84 1278.7 509.06 1280.23 506.06 1280.27 505.99 1278.22 505.98 1280.01 501.73 1280.94 499.54 1279.55 499.53 1281.52 494.89 1283.03 491.35 1286.59 499.59 1285.05 499.58 1285.06 499.59 1287.82 506.06 1285.72 506.04 1285.73 506.06 1289.8 513.96 1287.89 513.95 1292.37 523.75 1290.6 523.74 1296.21 535 1284.12 534.89 1284.12 538.83 1281.92 538.83 1281.92 534.87 1269.96 534.77 1273.62 527.34 1275.46 523.6" style="fill:#fbfbfb"/><polygon points="1297.06 530.11 1295.88 530.1 1298.14 525.08 1298.95 523.29 1297.62 523.28 1299.33 519.93 1300.4 517.83 1300.43 517.79 1299 517.77 1300.25 514.8 1300.9 513.27 1299.92 513.26 1301.31 510.02 1302.36 507.54 1304.85 513.31 1303.78 513.3 1303.78 513.31 1305.71 517.83 1304.24 517.82 1304.25 517.83 1307.1 523.36 1305.76 523.35 1308.9 530.21 1307.65 530.2 1311.58 538.08 1303.13 538.01 1303.13 540.76 1301.59 540.76 1301.59 537.99 1293.21 537.92 1295.78 532.72 1297.06 530.11" style="fill:#fbfbfb"/><polygon points="1537.45 638.42 1539.3 634.33 1536.26 634.3 1540.17 626.65 1542.62 621.85 1542.67 621.74 1539.4 621.71 1542.27 614.92 1543.75 611.42 1541.53 611.4 1544.68 603.99 1547.1 598.32 1552.78 611.5 1550.33 611.48 1550.34 611.5 1554.76 621.85 1551.39 621.82 1551.41 621.85 1557.93 634.49 1554.86 634.46 1562.04 650.14 1559.2 650.12 1561.34 654.42 1532.76 654.42 1534.99 649.9 1532.27 649.88 1537.45 638.42" style="fill:#18648f"/><polygon points="1128.34 518.62 1126.31 518.6 1130.18 510.05 1131.56 507 1129.29 506.98 1132.2 501.27 1134.03 497.69 1134.03 497.69 1134.07 497.61 1131.63 497.59 1133.77 492.53 1134.87 489.91 1133.22 489.9 1135.57 484.37 1137.37 480.14 1141.61 489.97 1139.78 489.95 1139.79 489.97 1143.09 497.69 1140.57 497.67 1140.59 497.69 1145.45 507.12 1143.16 507.1 1148.52 518.8 1146.4 518.78 1153.1 532.22 1138.67 532.09 1138.67 536.79 1136.05 536.79 1136.05 532.07 1121.77 531.94 1126.14 523.08 1128.34 518.62" style="fill:#fff"/><polygon points="1184.06 516.02 1181.84 516 1186.08 506.62 1187.59 503.27 1185.11 503.25 1188.3 496.99 1190.31 493.06 1190.35 492.97 1187.68 492.95 1190.02 487.39 1191.23 484.52 1189.41 484.5 1192 478.44 1193.97 473.79 1198.63 484.58 1196.62 484.57 1196.63 484.58 1200.24 493.06 1197.49 493.03 1197.5 493.06 1202.84 503.4 1200.33 503.38 1206.2 516.22 1203.88 516.2 1211.23 530.95 1195.4 530.8 1195.4 535.96 1192.52 535.96 1192.52 530.78 1176.85 530.64 1181.65 520.91 1184.06 516.02" style="fill:#18648f"/><polygon points="1590.79 642.04 1593.81 636.12 1593.88 635.99 1589.85 635.95 1593.38 627.58 1595.2 623.25 1592.46 623.23 1596.36 614.08 1599.34 607.09 1606.35 623.35 1603.32 623.32 1603.34 623.35 1608.79 636.12 1604.63 636.09 1604.65 636.12 1612.7 651.72 1608.92 651.68 1610.17 654.42 1588.4 654.42 1589.72 651.51 1585.97 651.48 1590.79 642.04" style="fill:#18648f"/><path d="M1168.92,514c89.76,8.81,162.38,34.5,219.5,65.13a525.14,525.14,0,0,1,95.31,65.44H633.46C750,584,927,510.72,1101.39,510.78,1124.9,510.79,1147.41,511.93,1168.92,514Z" transform="translate(101.46 9.81)" style="fill:#20a0e9"/><path d="M1168.92,514c89.76,8.81,162.38,34.5,219.5,65.13,0,0-47.05,35.85-225.19,65.44H633.46C750,584,927,510.72,1101.39,510.78,1124.9,510.79,1147.41,511.93,1168.92,514Z" transform="translate(101.46 9.81)" style="fill:#c5e1f7;opacity:0.49"/><path d="M577.79,502.42c28.19,0,66.88,15.06,104.94,34.4l0.13,0.08S665,604.09,503.94,636.39c-4.15.83-18.68-6.71-22.33-5.08-11.7,5.18-21.17,9.58-28.94,13.3h-82.9a480.17,480.17,0,0,1,47.48-59.43C422.49,580,501.62,502.44,577.79,502.42Z" transform="translate(101.46 9.81)" style="fill:#c5e1f7;opacity:0.49"/><path d="M316.06,536.9c20.46,1.8,37.07,5.87,50.44,10.91l0,0s-24.44,53.4-112.73,86.51c-48.37,18.13-73.55,7.32-86.43-6.16C199,591.9,260.12,532,316.06,536.9Z" transform="translate(101.46 9.81)" style="fill:#c5e1f7;opacity:0.33"/><path d="M135.54,550.53s-30.75,56-78,78.46C23.62,645.06,1.07,635.07-9,628.1V472.62Z" transform="translate(101.46 9.81)" style="fill:#c5e1f7;opacity:0.33"/><polygon points="475.21 626.18 473.05 626.16 477.18 617.01 478.66 613.75 476.23 613.73 479.35 607.63 481.31 603.79 481.35 603.71 478.74 603.68 481.03 598.27 482.21 595.47 480.43 595.45 482.95 589.53 484.88 585.01 489.42 595.53 487.46 595.51 487.47 595.53 491 603.79 488.31 603.77 488.32 603.79 493.52 613.88 491.08 613.86 496.8 626.38 494.54 626.36 501.71 640.74 486.27 640.6 486.27 645.63 483.46 645.63 483.46 640.58 468.19 640.44 472.86 630.96 475.21 626.18" style="fill:#18648f"/><polygon points="454.54 615.53 452.23 615.51 456.64 605.73 458.22 602.25 455.63 602.23 458.96 595.71 461.05 591.61 461.09 591.52 458.31 591.5 460.75 585.71 462.01 582.72 460.12 582.71 462.81 576.39 464.86 571.55 469.71 582.79 467.62 582.77 467.63 582.79 471.39 591.61 468.52 591.59 468.54 591.61 474.1 602.39 471.48 602.37 477.6 615.73 475.18 615.71 482.83 631.07 466.35 630.92 466.35 636.29 463.35 636.29 463.35 630.89 447.04 630.75 452.03 620.62 454.54 615.53" style="fill:#fbfbfb"/><polygon points="709.75 632.74 712.24 627.23 708.15 627.19 713.41 616.9 716.71 610.43 716.71 610.43 716.78 610.29 712.38 610.25 716.24 601.11 718.23 596.39 715.24 596.36 719.49 586.38 722.74 578.75 730.39 596.5 727.09 596.47 727.1 596.5 733.05 610.43 728.52 610.39 728.54 610.43 737.32 627.45 733.19 627.41 742.85 648.53 739.03 648.49 741.98 654.42 703.37 654.42 706.43 648.2 702.77 648.17 709.75 632.74" style="fill:#18648f"/><polygon points="670.3 647.62 667.21 647.59 673.1 634.56 675.2 629.91 671.75 629.88 676.19 621.19 678.97 615.73 679.03 615.61 675.32 615.58 678.57 607.86 680.25 603.88 677.73 603.85 681.32 595.43 684.06 588.98 690.52 603.97 687.74 603.94 687.75 603.97 692.77 615.73 688.94 615.7 688.96 615.73 696.37 630.1 692.89 630.07 701.04 647.89 697.82 647.86 701.08 654.42 666.95 654.42 666.95 654.41 670.3 647.62" style="fill:#fbfbfb"/><polygon points="436.64 626.92 434.33 626.9 438.75 617.13 440.32 613.64 437.73 613.62 441.06 607.1 443.15 603.01 443.2 602.92 440.41 602.89 442.85 597.11 444.11 594.12 442.22 594.1 444.91 587.78 446.97 582.95 451.81 594.19 449.72 594.17 449.73 594.19 453.5 603.01 450.63 602.99 450.64 603.01 456.2 613.78 453.59 613.76 459.7 627.13 457.28 627.11 464.94 642.46 448.45 642.32 448.45 647.69 445.45 647.69 445.45 642.29 429.14 642.15 434.13 632.02 436.64 626.92" style="fill:#18648f"/><polygon points="421.55 630.95 419.46 630.93 423.44 622.13 424.86 618.99 422.53 618.97 425.53 613.1 427.41 609.41 427.45 609.33 424.94 609.3 427.14 604.09 428.28 601.4 426.57 601.38 429 595.69 430.85 591.34 435.21 601.46 433.33 601.45 433.34 601.46 436.73 609.41 434.15 609.39 434.16 609.41 439.17 619.12 436.81 619.1 442.32 631.14 440.14 631.12 447.04 644.95 432.19 644.82 432.19 649.66 429.49 649.66 429.49 644.8 414.79 644.67 419.29 635.54 421.55 630.95" style="fill:#fbfbfb"/><polygon points="397.78 612.81 395.87 612.79 399.5 604.76 400.8 601.9 398.67 601.88 401.4 596.53 403.12 593.16 403.16 593.09 400.87 593.07 402.88 588.31 403.91 585.86 402.36 585.84 404.57 580.65 406.26 576.68 410.24 585.91 408.52 585.9 408.53 585.91 411.62 593.16 409.26 593.14 409.27 593.16 413.84 602.02 411.7 602 416.72 612.98 414.73 612.96 421.02 625.58 407.48 625.46 407.48 629.88 405.01 629.88 405.01 625.44 391.61 625.32 395.71 617 397.78 612.81" style="fill:#18648f"/><polygon points="378.07 609.15 375.76 609.13 380.17 599.37 381.75 595.89 379.16 595.87 382.48 589.36 384.57 585.27 384.61 585.18 381.83 585.16 384.27 579.38 385.53 576.4 383.64 576.38 386.32 570.07 388.38 565.25 393.21 576.47 391.13 576.45 391.14 576.47 394.9 585.27 392.03 585.25 392.04 585.27 397.59 596.03 394.99 596.01 401.09 609.35 398.67 609.33 406.31 624.66 389.86 624.51 389.86 629.88 386.87 629.88 386.87 624.49 370.58 624.34 375.57 614.23 378.07 609.15" style="fill:#fbfbfb"/><polygon points="353.97 600.83 351.15 600.8 356.53 588.89 358.45 584.64 355.29 584.62 359.35 576.67 361.9 571.68 361.95 571.57 358.56 571.54 361.53 564.49 363.07 560.85 360.76 560.83 364.04 553.13 366.55 547.24 372.45 560.93 369.91 560.91 369.92 560.93 374.51 571.68 371.01 571.65 371.02 571.68 377.8 584.82 374.62 584.79 382.07 601.08 379.12 601.05 388.45 619.77 368.36 619.59 368.36 626.14 364.7 626.14 364.7 619.56 344.82 619.38 350.91 607.04 353.97 600.83" style="fill:#fbfbfb"/><polygon points="340.06 605.49 337.56 605.47 342.33 594.92 344.03 591.16 341.24 591.14 344.82 584.11 347.08 579.69 347.13 579.59 344.12 579.57 346.76 573.32 348.12 570.1 346.07 570.08 348.98 563.27 351.2 558.05 356.42 570.17 354.17 570.15 354.18 570.17 358.24 579.69 355.14 579.66 355.16 579.69 361.16 591.32 358.34 591.29 364.93 605.71 362.32 605.68 370.58 622.25 352.8 622.1 352.8 627.89 349.56 627.89 349.56 622.07 331.97 621.91 337.35 610.98 340.06 605.49" style="fill:#18648f"/><polygon points="311.35 597.14 307.92 597.11 314.46 582.64 316.8 577.48 312.96 577.45 317.89 567.8 320.98 561.74 321.05 561.6 316.93 561.57 320.54 553 322.4 548.57 319.6 548.55 323.59 539.19 326.63 532.04 333.81 548.67 330.71 548.65 330.73 548.67 336.3 561.74 332.05 561.7 332.07 561.74 340.3 577.69 336.43 577.66 345.49 597.45 341.9 597.41 353.24 620.15 328.83 619.94 328.83 627.89 324.39 627.89 324.39 619.9 300.24 619.68 307.63 604.68 311.35 597.14" style="fill:#fbfbfb"/><polygon points="293.49 600.2 290.76 600.17 295.96 588.68 297.81 584.59 294.76 584.56 298.68 576.9 298.68 576.9 301.13 572.09 301.19 571.98 297.91 571.95 300.78 565.15 302.26 561.64 300.04 561.62 303.2 554.19 305.62 548.51 311.31 561.72 308.86 561.7 308.87 561.72 313.29 572.09 309.92 572.06 309.93 572.09 316.47 584.75 313.4 584.73 320.58 600.44 317.74 600.41 326.74 618.46 307.37 618.29 307.37 624.61 303.84 624.61 303.84 618.26 284.66 618.09 290.53 606.18 293.49 600.2" style="fill:#18648f"/><polygon points="276.41 599.44 274.22 599.42 278.4 590.16 279.9 586.85 277.44 586.83 280.6 580.65 282.58 576.77 282.62 576.68 279.98 576.66 282.3 571.17 283.49 568.34 281.69 568.32 284.25 562.33 286.2 557.75 290.79 568.4 288.81 568.39 288.82 568.4 292.39 576.77 289.67 576.75 289.68 576.77 294.95 586.99 292.47 586.96 298.27 599.63 295.98 599.62 303.23 614.18 287.61 614.04 287.61 619.13 284.76 619.13 284.76 614.01 269.3 613.88 274.03 604.27 276.41 599.44" style="fill:#18648f"/><polygon points="261.1 602.34 259.17 602.33 262.86 594.17 264.17 591.26 262.01 591.25 264.79 585.81 266.53 582.39 266.57 582.32 264.24 582.29 266.28 577.47 267.33 574.97 265.75 574.96 268 569.69 269.71 565.65 273.76 575.03 272.01 575.01 272.02 575.03 275.16 582.39 272.77 582.37 272.78 582.39 277.42 591.38 275.24 591.36 280.34 602.51 278.32 602.5 284.71 615.31 270.95 615.19 270.95 619.67 268.45 619.67 268.45 615.17 254.84 615.05 259.01 606.6 261.1 602.34" style="fill:#18648f"/><polygon points="205.81 592.9 204.53 592.89 206.97 587.5 207.84 585.58 206.41 585.56 208.25 581.96 209.4 579.71 209.43 579.65 207.89 579.64 209.24 576.45 209.93 574.8 208.89 574.79 210.37 571.3 211.51 568.63 214.18 574.84 213.03 574.82 213.03 574.84 215.11 579.71 213.53 579.69 213.54 579.71 216.61 585.65 215.16 585.64 218.54 593.02 217.2 593.01 221.43 601.48 212.33 601.4 212.33 604.37 210.67 604.37 210.67 601.39 201.67 601.31 204.43 595.72 205.81 592.9" style="fill:#18648f"/><polygon points="182.8 583.91 180.71 583.9 184.69 575.1 186.11 571.96 183.78 571.93 186.77 566.07 188.65 562.38 188.65 562.38 188.7 562.3 186.19 562.27 188.38 557.06 189.52 554.37 187.81 554.36 190.24 548.67 192.09 544.31 196.45 554.43 194.57 554.42 194.58 554.43 197.97 562.38 195.39 562.36 195.4 562.38 200.41 572.08 198.05 572.06 203.56 584.1 201.38 584.08 208.27 597.91 193.43 597.78 193.43 602.62 190.73 602.62 190.73 597.75 176.04 597.63 180.53 588.5 182.8 583.91" style="fill:#18648f"/><polygon points="155.68 578.78 152.88 578.76 158.22 566.94 160.12 562.73 156.99 562.7 161.01 554.82 161.01 554.82 163.54 549.87 163.59 549.76 160.23 549.73 163.18 542.74 164.7 539.12 162.41 539.1 165.67 531.46 168.15 525.62 174.01 539.21 171.49 539.18 171.5 539.21 176.05 549.87 172.58 549.84 172.59 549.87 179.32 562.9 176.16 562.87 183.55 579.03 180.62 579.01 189.88 597.58 169.95 597.4 169.95 603.89 166.32 603.89 166.32 597.37 146.6 597.19 152.64 584.94 155.68 578.78" style="fill:#18648f"/><polygon points="129.56 588.15 127.37 588.13 131.54 578.9 133.03 575.6 130.58 575.58 133.73 569.42 135.7 565.56 135.75 565.47 133.11 565.45 135.42 559.98 136.61 557.16 134.82 557.14 137.36 551.17 139.31 546.6 143.88 557.22 141.91 557.2 141.92 557.22 145.48 565.56 142.76 565.53 142.78 565.56 148.03 575.74 145.56 575.71 151.34 588.34 149.05 588.32 156.28 602.83 140.71 602.69 140.71 607.77 137.88 607.77 137.88 602.67 122.47 602.53 127.18 592.96 129.56 588.15" style="fill:#fbfbfb"/><polygon points="104.52 589.39 102.64 589.38 106.23 581.43 107.51 578.6 105.4 578.58 108.11 573.29 108.11 573.29 109.81 569.96 109.84 569.89 107.58 569.87 109.56 565.16 110.59 562.74 109.05 562.72 111.23 557.59 112.91 553.66 116.84 562.79 115.15 562.77 115.15 562.79 118.22 569.96 115.88 569.94 115.89 569.96 120.41 578.72 118.29 578.7 123.25 589.56 121.29 589.54 127.51 602.02 114.12 601.9 114.12 606.27 111.68 606.27 111.68 601.88 98.42 601.76 102.48 593.53 104.52 589.39" style="fill:#fbfbfb"/><polygon points="129.51 584.93 129.51 584.93 129.46 584.81 133.05 584.78 129.9 577.3 128.27 573.44 130.72 573.42 127.24 565.26 124.58 559.02 118.33 573.53 121.03 573.51 121.02 573.53 116.15 584.93 119.86 584.89 119.84 584.93 115.18 593.97 134.13 593.97 132.21 590.21 129.51 584.93" style="fill:#18648f"/><polygon points="1630.25 649.81 1633.21 644.02 1633.28 643.89 1629.34 643.86 1632.79 635.67 1634.57 631.45 1631.89 631.42 1635.7 622.49 1638.61 615.65 1645.46 631.55 1642.51 631.52 1642.52 631.55 1647.85 644.02 1643.78 643.99 1643.8 644.02 1649.17 654.42 1627.9 654.42 1630.26 649.81 1630.25 649.81" style="fill:#18648f"/><polygon points="1661.8 646.92 1663.33 643.31 1661.04 643.29 1664.29 635.65 1666.78 629.81 1672.63 643.39 1670.11 643.37 1670.12 643.39 1674.67 654.06 1671.2 654.03 1671.22 654.06 1671.4 654.42 1661.98 654.42 1662.16 654.06 1662.22 653.95 1658.85 653.92 1661.8 646.92" style="fill:#18648f"/><polygon points="1716.03 640.05 1716.03 640.05 1719.56 633.14 1719.64 632.98 1714.93 632.94 1719.05 623.16 1721.18 618.11 1717.98 618.08 1722.53 607.4 1726.01 599.24 1734.2 618.23 1730.67 618.2 1730.68 618.23 1737.05 633.14 1732.19 633.09 1732.21 633.14 1741.61 651.34 1737.2 651.3 1738.62 654.42 1713.28 654.42 1714.78 651.11 1710.4 651.07 1716.03 640.05" style="fill:#18648f"/><polygon points="1742.03 635.48 1736.49 635.43 1743.6 621.5 1748.07 612.76 1748.17 612.56 1742.21 612.51 1747.43 600.14 1750.12 593.76 1746.08 593.73 1751.83 580.22 1756.22 569.9 1766.57 593.91 1762.11 593.87 1762.13 593.91 1770.18 612.76 1764.04 612.7 1764.07 612.76 1775.95 635.78 1770.37 635.73 1778.91 654.42 1733.46 654.42 1738.66 642.93 1742.03 635.48" style="fill:#18648f"/><polygon points="1820.44 640.05 1822.14 636.02 1819.58 636 1823.21 627.49 1825.98 620.97 1832.51 636.12 1829.7 636.09 1829.71 636.12 1834.79 648.01 1830.92 647.97 1830.93 648.01 1834.24 654.42 1817.57 654.42 1818.02 653.52 1820.84 648.01 1820.84 648.01 1820.9 647.88 1817.15 647.85 1820.44 640.05" style="fill:#18648f"/><polygon points="1852.78 643.95 1854.98 638.76 1860.18 650.82 1857.94 650.8 1857.95 650.82 1859.49 654.42 1850.37 654.42 1850.57 653.95 1851.92 650.75 1849.89 650.73 1852.78 643.95" style="fill:#18648f"/><polygon points="1895.92 652.11 1898.85 646.37 1898.92 646.25 1895.01 646.21 1898.43 638.1 1900.2 633.91 1897.55 633.89 1901.32 625.03 1904.2 618.26 1910.99 634.01 1908.07 633.98 1908.08 634.01 1913.36 646.37 1909.33 646.34 1909.35 646.37 1913.5 654.42 1894.74 654.42 1895.92 652.11 1895.92 652.11" style="fill:#18648f"/><polygon points="1920.95 635.08 1924.83 627.47 1924.92 627.3 1919.74 627.25 1924.28 616.49 1926.62 610.93 1923.1 610.9 1928.11 599.15 1931.93 590.16 1940.94 611.06 1937.06 611.03 1937.07 611.06 1944.08 627.47 1938.74 627.42 1938.76 627.47 1949.1 647.51 1944.24 647.47 1947.42 654.42 1916.33 654.42 1916.64 653.73 1919.58 647.25 1914.76 647.21 1920.95 635.08" style="fill:#18648f"/><polygon points="1948.93 642.54 1952.44 635.67 1952.52 635.52 1947.84 635.48 1951.94 625.77 1954.05 620.75 1950.88 620.72 1955.39 610.12 1958.85 602.01 1966.98 620.87 1963.47 620.84 1963.48 620.87 1969.81 635.67 1964.99 635.63 1965.01 635.67 1974.34 653.76 1969.96 653.72 1970.28 654.42 1947.29 654.42 1947.69 653.52 1943.35 653.48 1948.93 642.54" style="fill:#18648f"/><rect x="92.46" y="654.42" width="1933.5" height="154.67" style="fill:#fff"/><polygon points="2025.95 673.76 2025.95 673.94 511.76 755.39 92.45 777.95 92.45 685.64 2025.95 673.76" style="fill:#c5e1f7;opacity:0.49"/><path d="M568.24,644.61H-9V579.06C35.38,582.26,318.06,603.56,568.24,644.61Z" transform="translate(101.46 9.81)" style="fill:#a2d9fd"/></svg>