<?xml version="1.0" encoding="UTF-8" standalone="no"?>
<svg width="1937px" height="800px" viewBox="0 0 1937 800" version="1.1" xmlns="http://www.w3.org/2000/svg" xmlns:xlink="http://www.w3.org/1999/xlink" xmlns:sketch="http://www.bohemiancoding.com/sketch/ns">
    <!-- Generator: Sketch 3.4.2 (15855) - http://www.bohemiancoding.com/sketch -->
    <title>Slice 1</title>
    <desc>Created with Sketch.</desc>
    <defs></defs>
    <g id="Page-1" stroke="none" stroke-width="1" fill="none" fill-rule="evenodd" sketch:type="MSPage">
        <g id="hero-bg-ai" sketch:type="MSLayerGroup" transform="translate(-92.000000, 0.000000)">
            <rect id="Rectangle-path" fill="#1E3D55" sketch:type="MSShapeGroup" x="92.68" y="0" width="1935.78" height="810.81"></rect>
            <path d="M2059.45,433.58 L2002.7,483.24 L1901.92,435.95 L1979.05,362.19 L2059.45,433.58 L2059.45,433.58 Z" id="Shape" opacity="0.34" fill="#20A0E9" sketch:type="MSShapeGroup"></path>
            <path d="M1478.3,406.66 L1242.2,507.43 L949.46,360.81 L671.24,507.43 L819.16,598.71 L1772.45,604.81 L1478.3,406.66 L1478.3,406.66 Z" id="Shape" opacity="0.34" fill="#20A0E9" sketch:type="MSShapeGroup"></path>
            <path d="M1303.39,377.48 L1498.87,538.38 L1786.23,289.63 L2100.95,538.38 L2083.36,661.94 L1127.11,661.94 L1127.11,527.44 L1303.39,377.48 L1303.39,377.48 Z" id="Shape" fill="#C5E1F7" sketch:type="MSShapeGroup"></path>
            <path d="M1786.23,289.63 L1908.71,386.44 L1849.88,370.2 L1631.12,423.48 L1786.23,289.63 L1786.23,289.63 Z" id="Shape" fill="#FFFFFF" sketch:type="MSShapeGroup"></path>
            <path d="M1786.23,289.63 L2100.95,538.38 L2083.36,661.94 L1786.23,289.63 L1786.23,289.63 Z" id="Shape" opacity="0.27" fill="#20A0E9" sketch:type="MSShapeGroup"></path>
            <path d="M1393.91,452.32 L1340.95,433.62 L1217.96,450.14 L1302.76,377.34 L1393.91,452.32 L1393.91,452.32 Z" id="Shape" fill="#FFFFFF" sketch:type="MSShapeGroup"></path>
            <path d="M1472.06,631.06 L1303.77,378.33 L1615.02,633.89 L1472.06,631.06 L1472.06,631.06 Z" id="Shape" opacity="0.27" fill="#20A0E9" sketch:type="MSShapeGroup"></path>
            <path d="M241.46,531.89 L154.47,608.01 L0,535.51 L118.22,422.46 L241.46,531.89 L241.46,531.89 Z" id="Shape" opacity="0.34" fill="#20A0E9" sketch:type="MSShapeGroup"></path>
            <path d="M658.4,232.76 L406.57,522.75 L264.67,393.87 L57.67,591.99 L34.48,614.19 L97.15,614.59 L166.41,615.03 L344.29,616.16 L660.63,618.18 L1024.61,620.5 L669.87,218.46 L658.4,232.76 L658.4,232.76 Z" id="Shape" fill="#C5E1F7" sketch:type="MSShapeGroup"></path>
            <path d="M345.12,467.14 L301.79,450.48 L170.46,483.81 L264.75,393.87 L345.12,467.14 L345.12,467.14 Z" id="Shape" fill="#FFFFFF" sketch:type="MSShapeGroup"></path>
            <path d="M430.05,648.36 L264.42,393.87 L478.45,587.14 L430.05,648.36 L430.05,648.36 Z" id="Shape" opacity="0.27" fill="#20A0E9" sketch:type="MSShapeGroup"></path>
            <path d="M670.12,218.47 L782.46,345.81 L726.12,322.81 L533.46,376.48 L670.12,218.47 L670.12,218.47 Z" id="Shape" fill="#FFFFFF" sketch:type="MSShapeGroup"></path>
            <path d="M670.46,218.47 L946.79,532.48 L1012.2,636.26 L899.74,644.41 L670.46,218.47 L670.46,218.47 Z" id="Shape" opacity="0.2" fill="#20A0E9" sketch:type="MSShapeGroup"></path>
            <path d="M430.08,664.42 L92.45,664.42 L92.45,482.42 L430.08,664.42 L430.08,664.42 Z" id="Shape" fill="#A2D9FD" sketch:type="MSShapeGroup"></path>
            <rect id="Rectangle-path" fill="#E7FEFF" sketch:type="MSShapeGroup" x="92.46" y="646.2" width="1933.5" height="8.22"></rect>
            <path d="M417.52,546.71 C437.98,548.51 454.59,552.58 467.96,557.62 L467.96,557.62 C506.76,572.29 518.46,595.27 518.46,595.27 L518.74,594.99 C523.97,589.77 603.11,512.25 679.27,512.23 C707.46,512.23 746.15,527.29 784.21,546.63 L784.34,546.71 C852.66,581.44 918.92,629.96 918.92,629.96 L918.92,654.42 L255.12,654.42 C258.66,649.98 263.27,644.36 268.82,637.98 C300.46,601.71 361.58,541.81 417.52,546.71 L417.52,546.71 Z" id="Shape" fill="#20A0E9" sketch:type="MSShapeGroup"></path>
            <path d="M1497.71,608.44 L2029,459 L2029,653.92 L1336,653.92 L1497.71,608.44 L1497.71,608.44 Z" id="Shape" fill="#20A0E9" sketch:type="MSShapeGroup"></path>
            <path d="M1652.67,653.91 L1535.06,653.91 L1495,608.43 L2026.29,459 L2026.29,461.36 C1990.57,485.25 1804.04,607.96 1691.78,642.06 C1677.18,646.5 1664.29,650.42 1652.67,653.91 L1652.67,653.91 Z" id="Shape" opacity="0.59" fill="#C5E1F7" sketch:type="MSShapeGroup"></path>
            <path d="M772.55,627.05 L769.88,627.02 L774.98,615.73 L776.8,611.7 L773.81,611.67 L777.65,604.14 L780.07,599.41 L780.12,599.3 L776.9,599.28 L779.73,592.59 L781.18,589.13 L778.99,589.12 L782.1,581.81 L784.48,576.23 L790.08,589.21 L787.67,589.19 L787.68,589.21 L792.03,599.41 L788.71,599.38 L788.73,599.41 L795.15,611.86 L792.13,611.84 L799.2,627.28 L796.4,627.26 L805.25,645.01 L786.2,644.84 L786.2,651.05 L782.73,651.05 L782.73,644.81 L763.88,644.64 L769.65,632.94 L772.55,627.05 L772.55,627.05 Z" id="Shape" fill="#FBFBFB" sketch:type="MSShapeGroup"></path>
            <path d="M798.38,618.4 L796.29,618.38 L800.29,609.53 L801.72,606.37 L799.37,606.35 L802.38,600.44 L804.28,596.73 L804.32,596.65 L801.8,596.63 L804.01,591.38 L805.15,588.67 L803.43,588.66 L805.87,582.93 L807.74,578.55 L812.13,588.74 L810.24,588.72 L810.24,588.74 L813.66,596.73 L811.05,596.71 L811.07,596.73 L816.1,606.49 L813.74,606.47 L819.28,618.59 L817.08,618.57 L824.02,632.48 L809.09,632.35 L809.09,637.22 L806.37,637.22 L806.37,632.33 L791.58,632.2 L796.11,623.02 L798.38,618.4 L798.38,618.4 Z" id="Shape" fill="#FBFBFB" sketch:type="MSShapeGroup"></path>
            <path d="M754.46,635.12 L752.36,635.1 L756.36,626.25 L757.79,623.09 L755.45,623.07 L758.46,617.16 L760.35,613.45 L760.4,613.37 L757.87,613.35 L760.08,608.1 L761.23,605.39 L759.51,605.38 L761.95,599.65 L763.81,595.27 L768.2,605.46 L766.31,605.44 L766.32,605.46 L769.73,613.45 L767.13,613.43 L767.14,613.45 L772.18,623.21 L769.81,623.19 L775.35,635.3 L773.16,635.29 L780.1,649.2 L765.16,649.07 L765.16,653.94 L762.44,653.94 L762.44,649.05 L747.66,648.92 L752.18,639.74 L754.46,635.12 L754.46,635.12 Z" id="Shape" fill="#FBFBFB" sketch:type="MSShapeGroup"></path>
            <path d="M858.44,592.77 L856.12,592.75 L860.55,582.94 L862.13,579.45 L859.53,579.42 L862.87,572.88 L864.97,568.78 L865.01,568.69 L862.22,568.66 L864.67,562.86 L865.93,559.86 L864.03,559.84 L866.73,553.5 L868.8,548.65 L873.66,559.93 L871.56,559.91 L871.57,559.93 L875.35,568.78 L872.47,568.75 L872.48,568.78 L878.06,579.59 L875.44,579.56 L881.57,592.97 L879.14,592.95 L886.82,608.36 L870.29,608.21 L870.29,613.6 L867.28,613.6 L867.28,608.18 L850.91,608.04 L855.92,597.88 L858.44,592.77 L858.44,592.77 Z" id="Shape" fill="#18648F" sketch:type="MSShapeGroup"></path>
            <path d="M889.95,574.98 L887.27,574.95 L892.39,563.61 L894.22,559.57 L891.22,559.54 L895.08,551.97 L897.5,547.22 L897.56,547.12 L894.32,547.09 L897.15,540.37 L898.62,536.91 L896.42,536.89 L899.54,529.55 L901.93,523.95 L907.55,536.99 L905.13,536.96 L905.14,536.99 L909.51,547.22 L906.18,547.2 L906.19,547.22 L912.64,559.73 L909.61,559.7 L916.71,575.21 L913.9,575.19 L922.78,593.01 L903.66,592.84 L903.66,599.07 L900.17,599.07 L900.17,592.81 L881.24,592.64 L887.04,580.89 L889.95,574.98 L889.95,574.98 Z" id="Shape" fill="#FBFBFB" sketch:type="MSShapeGroup"></path>
            <path d="M915.73,560.66 L912.31,560.63 L918.84,546.2 L921.16,541.05 L917.34,541.01 L922.25,531.39 L925.34,525.34 L925.41,525.21 L921.29,525.17 L924.9,516.62 L926.76,512.21 L923.96,512.18 L927.94,502.85 L930.98,495.71 L938.13,512.31 L935.05,512.28 L935.06,512.31 L940.62,525.34 L936.38,525.3 L936.4,525.34 L944.61,541.26 L940.75,541.22 L949.78,560.97 L946.21,560.93 L957.52,583.62 L933.17,583.4 L933.17,591.34 L928.74,591.34 L928.74,583.37 L904.64,583.15 L912.02,568.19 L915.73,560.66 L915.73,560.66 Z" id="Shape" fill="#FFFFFF" sketch:type="MSShapeGroup"></path>
            <path d="M1784.7,636.29 L1780.87,636.25 L1785.79,626.63 L1788.87,620.58 L1788.94,620.45 L1784.83,620.41 L1788.43,611.86 L1790.29,607.45 L1787.5,607.42 L1791.47,598.09 L1794.51,590.95 L1801.67,607.55 L1798.58,607.52 L1798.59,607.55 L1804.16,620.58 L1799.92,620.54 L1799.94,620.58 L1808.15,636.5 L1804.29,636.46 L1812.5,654.42 L1776.5,654.42 L1782.37,641.44 L1784.7,636.29 L1784.7,636.29 Z" id="Shape" fill="#FBFBFB" sketch:type="MSShapeGroup"></path>
            <path d="M1878.75,645.72 L1876.3,645.7 L1879.45,639.54 L1881.42,635.68 L1881.46,635.59 L1878.83,635.57 L1881.14,630.1 L1882.33,627.28 L1880.54,627.26 L1883.08,621.3 L1885.02,616.73 L1889.6,627.35 L1887.63,627.33 L1887.63,627.35 L1891.19,635.68 L1888.48,635.65 L1888.49,635.68 L1893.74,645.85 L1891.28,645.83 L1895.2,654.42 L1874.82,654.42 L1877.26,649.01 L1878.75,645.72 L1878.75,645.72 Z" id="Shape" fill="#D5E5FD" sketch:type="MSShapeGroup"></path>
            <path d="M1853.51,641.01 L1855.41,636.81 L1852.28,636.78 L1856.3,628.92 L1858.82,623.98 L1858.87,623.87 L1855.51,623.84 L1858.45,616.86 L1859.97,613.26 L1857.69,613.24 L1860.94,605.62 L1863.42,599.79 L1869.26,613.34 L1866.74,613.32 L1866.75,613.34 L1871.3,623.98 L1867.83,623.95 L1867.85,623.98 L1874.55,636.98 L1871.4,636.95 L1878.78,653.07 L1875.86,653.04 L1876.54,654.42 L1850.18,654.42 L1850.97,652.82 L1848.18,652.8 L1853.51,641.01 L1853.51,641.01 Z" id="Shape" fill="#D5E5FD" sketch:type="MSShapeGroup"></path>
            <path d="M1833.82,645.28 L1830.69,645.25 L1834.71,637.39 L1834.71,637.39 L1837.23,632.46 L1837.29,632.35 L1833.92,632.32 L1836.87,625.34 L1838.39,621.73 L1836.1,621.71 L1839.35,614.09 L1841.83,608.26 L1847.67,621.81 L1845.16,621.79 L1845.17,621.81 L1849.71,632.46 L1846.24,632.42 L1846.26,632.46 L1852.97,645.45 L1849.82,645.42 L1853.93,654.42 L1829.69,654.42 L1831.92,649.48 L1833.82,645.28 L1833.82,645.28 Z" id="Shape" fill="#FBFBFB" sketch:type="MSShapeGroup"></path>
            <path d="M1702.88,644.03 L1705.4,639.09 L1705.45,638.98 L1702.09,638.95 L1705.04,631.97 L1706.56,628.37 L1704.27,628.35 L1707.52,620.73 L1710,614.9 L1715.84,628.45 L1713.32,628.43 L1713.33,628.45 L1717.88,639.09 L1714.41,639.06 L1714.43,639.09 L1721.13,652.09 L1717.98,652.06 L1719.06,654.42 L1700.86,654.42 L1701.99,651.92 L1698.86,651.89 L1702.88,644.03 L1702.88,644.03 Z" id="Shape" fill="#D5E5FD" sketch:type="MSShapeGroup"></path>
            <path d="M1683.45,646.97 L1684.97,643.37 L1682.68,643.35 L1685.93,635.73 L1688.41,629.9 L1694.26,643.45 L1691.74,643.43 L1691.75,643.45 L1696.29,654.09 L1692.83,654.06 L1692.84,654.09 L1693.01,654.42 L1683.64,654.42 L1683.81,654.09 L1683.87,653.98 L1680.51,653.95 L1683.45,646.97 L1683.45,646.97 Z" id="Shape" fill="#D5E5FD" sketch:type="MSShapeGroup"></path>
            <path d="M1565.47,639.4 L1567.37,635.2 L1564.25,635.17 L1568.26,627.31 L1568.26,627.31 L1570.78,622.37 L1570.84,622.26 L1567.48,622.23 L1570.42,615.25 L1571.94,611.65 L1569.66,611.63 L1572.9,604.01 L1575.38,598.18 L1581.23,611.73 L1578.71,611.71 L1578.72,611.73 L1583.26,622.37 L1579.8,622.34 L1579.81,622.37 L1586.52,635.37 L1583.37,635.34 L1590.74,651.46 L1587.82,651.43 L1589.31,654.42 L1561.36,654.42 L1562.93,651.21 L1560.14,651.19 L1565.47,639.4 L1565.47,639.4 Z" id="Shape" fill="#FBFBFB" sketch:type="MSShapeGroup"></path>
            <path d="M956.15,556.7 L953.85,556.67 L958.25,546.95 L959.81,543.48 L957.24,543.46 L960.55,536.97 L962.63,532.9 L962.63,532.9 L962.67,532.81 L959.9,532.78 L962.33,527.02 L963.58,524.05 L961.7,524.03 L964.38,517.74 L966.42,512.93 L971.25,524.12 L969.17,524.1 L969.17,524.12 L972.92,532.9 L970.07,532.87 L970.08,532.9 L975.61,543.62 L973.01,543.6 L979.1,556.9 L976.69,556.88 L984.31,572.16 L967.9,572.02 L967.9,577.36 L964.92,577.36 L964.92,571.99 L948.68,571.85 L953.65,561.76 L956.15,556.7 L956.15,556.7 Z" id="Shape" fill="#FBFBFB" sketch:type="MSShapeGroup"></path>
            <path d="M973,562.07 L971,562.05 L974.83,553.58 L976.19,550.56 L973.95,550.54 L976.83,544.89 L978.64,541.34 L978.68,541.26 L976.27,541.24 L978.38,536.22 L979.48,533.63 L977.84,533.62 L980.17,528.14 L981.95,523.95 L986.15,533.69 L984.34,533.67 L984.35,533.69 L987.62,541.34 L985.13,541.32 L985.14,541.34 L989.96,550.68 L987.69,550.66 L992.99,562.25 L990.89,562.23 L997.53,575.55 L983.24,575.42 L983.24,580.08 L980.64,580.08 L980.64,575.4 L966.5,575.27 L970.83,566.49 L973,562.07 L973,562.07 Z" id="Shape" fill="#FBFBFB" sketch:type="MSShapeGroup"></path>
            <path d="M1007.21,540.92 L1005.2,540.91 L1009.03,532.43 L1010.4,529.41 L1008.15,529.39 L1011.04,523.74 L1011.04,523.74 L1012.85,520.19 L1012.85,520.19 L1012.89,520.11 L1010.47,520.09 L1012.59,515.07 L1013.68,512.48 L1012.04,512.47 L1014.38,506.99 L1016.16,502.8 L1020.36,512.54 L1018.55,512.52 L1018.56,512.54 L1021.82,520.19 L1019.33,520.17 L1019.34,520.19 L1024.16,529.53 L1021.9,529.51 L1027.2,541.1 L1025.1,541.08 L1031.74,554.4 L1017.45,554.27 L1017.45,558.93 L1014.85,558.93 L1014.85,554.25 L1000.7,554.13 L1005.03,545.34 L1007.21,540.92 L1007.21,540.92 Z" id="Shape" fill="#FBFBFB" sketch:type="MSShapeGroup"></path>
            <path d="M1033.8,534.98 L1031.13,534.96 L1036.22,523.69 L1038.04,519.67 L1035.05,519.64 L1038.89,512.13 L1041.3,507.4 L1041.35,507.3 L1038.14,507.27 L1040.95,500.6 L1042.4,497.15 L1040.22,497.13 L1043.33,489.85 L1045.7,484.27 L1051.29,497.23 L1048.88,497.21 L1048.89,497.23 L1053.23,507.4 L1049.92,507.38 L1049.93,507.4 L1056.35,519.83 L1053.33,519.8 L1060.38,535.22 L1057.59,535.19 L1066.42,552.9 L1047.41,552.74 L1047.41,558.93 L1043.95,558.93 L1043.95,552.71 L1025.14,552.54 L1030.9,540.86 L1033.8,534.98 L1033.8,534.98 Z" id="Shape" fill="#FFFFFF" sketch:type="MSShapeGroup"></path>
            <path d="M1067.89,546.3 L1066.14,546.28 L1069.49,538.87 L1070.68,536.22 L1068.72,536.21 L1071.24,531.26 L1072.83,528.15 L1072.86,528.09 L1070.75,528.07 L1072.6,523.68 L1073.56,521.41 L1072.12,521.4 L1074.16,516.6 L1075.72,512.93 L1079.4,521.46 L1077.82,521.45 L1077.82,521.46 L1080.68,528.15 L1078.5,528.14 L1078.51,528.15 L1082.73,536.33 L1080.75,536.31 L1085.39,546.46 L1083.55,546.44 L1089.36,558.09 L1076.85,557.98 L1076.85,562.06 L1074.58,562.06 L1074.58,557.96 L1062.2,557.85 L1065.99,550.16 L1067.89,546.3 L1067.89,546.3 Z" id="Shape" fill="#FBFBFB" sketch:type="MSShapeGroup"></path>
            <path d="M1160.08,525.86 L1157.92,525.85 L1162.03,516.77 L1163.49,513.53 L1161.08,513.51 L1164.17,507.46 L1166.12,503.66 L1166.16,503.57 L1163.57,503.55 L1165.84,498.18 L1167.01,495.4 L1165.25,495.39 L1167.75,489.52 L1169.66,485.03 L1174.16,495.47 L1172.22,495.45 L1172.22,495.47 L1175.72,503.66 L1173.06,503.64 L1173.07,503.66 L1178.23,513.66 L1175.81,513.64 L1181.48,526.05 L1179.23,526.03 L1186.34,540.3 L1171.04,540.16 L1171.04,545.15 L1168.25,545.15 L1168.25,540.13 L1153.11,540 L1157.74,530.6 L1160.08,525.86 L1160.08,525.86 Z" id="Shape" fill="#FBFBFB" sketch:type="MSShapeGroup"></path>
            <path d="M1210.65,515.65 L1208.5,515.63 L1212.6,506.56 L1214.06,503.32 L1211.66,503.3 L1214.75,497.25 L1214.75,497.25 L1216.69,493.45 L1216.73,493.36 L1214.14,493.34 L1216.41,487.97 L1217.58,485.19 L1215.82,485.18 L1218.32,479.31 L1220.23,474.82 L1224.73,485.26 L1222.79,485.24 L1222.8,485.26 L1226.3,493.45 L1223.63,493.43 L1223.64,493.45 L1228.8,503.45 L1226.38,503.43 L1232.06,515.84 L1229.81,515.82 L1236.92,530.08 L1221.61,529.95 L1221.61,534.94 L1218.83,534.94 L1218.83,529.92 L1203.68,529.79 L1208.32,520.38 L1210.65,515.65 L1210.65,515.65 Z" id="Shape" fill="#C5E1F7" sketch:type="MSShapeGroup"></path>
            <path d="M1156.78,508.11 L1154.11,508.08 L1159.2,496.82 L1161.02,492.81 L1158.04,492.78 L1161.87,485.27 L1161.87,485.27 L1164.28,480.55 L1164.28,480.55 L1164.33,480.45 L1161.12,480.42 L1163.93,473.75 L1165.38,470.31 L1163.2,470.29 L1166.3,463.01 L1168.68,457.44 L1174.26,470.39 L1171.85,470.36 L1171.86,470.39 L1176.2,480.55 L1172.89,480.52 L1172.91,480.55 L1179.32,492.97 L1176.3,492.94 L1183.35,508.35 L1180.56,508.32 L1189.38,526.02 L1170.39,525.85 L1170.39,532.04 L1166.93,532.04 L1166.93,525.82 L1148.13,525.65 L1153.89,513.98 L1156.78,508.11 L1156.78,508.11 Z" id="Shape" fill="#FBFBFB" sketch:type="MSShapeGroup"></path>
            <path d="M1275.46,523.6 L1273.76,523.59 L1277,516.42 L1278.16,513.86 L1276.26,513.84 L1278.7,509.06 L1280.23,506.06 L1280.27,505.99 L1278.22,505.98 L1280.01,501.73 L1280.94,499.54 L1279.55,499.53 L1281.52,494.89 L1283.03,491.35 L1286.59,499.59 L1285.05,499.58 L1285.06,499.59 L1287.82,506.06 L1285.72,506.04 L1285.73,506.06 L1289.8,513.96 L1287.89,513.95 L1292.37,523.75 L1290.6,523.74 L1296.21,535 L1284.12,534.89 L1284.12,538.83 L1281.92,538.83 L1281.92,534.87 L1269.96,534.77 L1273.62,527.34 L1275.46,523.6 L1275.46,523.6 Z" id="Shape" fill="#FBFBFB" sketch:type="MSShapeGroup"></path>
            <path d="M1297.06,530.11 L1295.88,530.1 L1298.14,525.08 L1298.95,523.29 L1297.62,523.28 L1299.33,519.93 L1300.4,517.83 L1300.43,517.79 L1299,517.77 L1300.25,514.8 L1300.9,513.27 L1299.92,513.26 L1301.31,510.02 L1302.36,507.54 L1304.85,513.31 L1303.78,513.3 L1303.78,513.31 L1305.71,517.83 L1304.24,517.82 L1304.25,517.83 L1307.1,523.36 L1305.76,523.35 L1308.9,530.21 L1307.65,530.2 L1311.58,538.08 L1303.13,538.01 L1303.13,540.76 L1301.59,540.76 L1301.59,537.99 L1293.21,537.92 L1295.78,532.72 L1297.06,530.11 L1297.06,530.11 Z" id="Shape" fill="#FBFBFB" sketch:type="MSShapeGroup"></path>
            <path d="M1537.45,638.42 L1539.3,634.33 L1536.26,634.3 L1540.17,626.65 L1542.62,621.85 L1542.67,621.74 L1539.4,621.71 L1542.27,614.92 L1543.75,611.42 L1541.53,611.4 L1544.68,603.99 L1547.1,598.32 L1552.78,611.5 L1550.33,611.48 L1550.34,611.5 L1554.76,621.85 L1551.39,621.82 L1551.41,621.85 L1557.93,634.49 L1554.86,634.46 L1562.04,650.14 L1559.2,650.12 L1561.34,654.42 L1532.76,654.42 L1534.99,649.9 L1532.27,649.88 L1537.45,638.42 L1537.45,638.42 Z" id="Shape" fill="#18648F" sketch:type="MSShapeGroup"></path>
            <path d="M1128.34,518.62 L1126.31,518.6 L1130.18,510.05 L1131.56,507 L1129.29,506.98 L1132.2,501.27 L1134.03,497.69 L1134.03,497.69 L1134.07,497.61 L1131.63,497.59 L1133.77,492.53 L1134.87,489.91 L1133.22,489.9 L1135.57,484.37 L1137.37,480.14 L1141.61,489.97 L1139.78,489.95 L1139.79,489.97 L1143.09,497.69 L1140.57,497.67 L1140.59,497.69 L1145.45,507.12 L1143.16,507.1 L1148.52,518.8 L1146.4,518.78 L1153.1,532.22 L1138.67,532.09 L1138.67,536.79 L1136.05,536.79 L1136.05,532.07 L1121.77,531.94 L1126.14,523.08 L1128.34,518.62 L1128.34,518.62 Z" id="Shape" fill="#FFFFFF" sketch:type="MSShapeGroup"></path>
            <path d="M1184.06,516.02 L1181.84,516 L1186.08,506.62 L1187.59,503.27 L1185.11,503.25 L1188.3,496.99 L1190.31,493.06 L1190.35,492.97 L1187.68,492.95 L1190.02,487.39 L1191.23,484.52 L1189.41,484.5 L1192,478.44 L1193.97,473.79 L1198.63,484.58 L1196.62,484.57 L1196.63,484.58 L1200.24,493.06 L1197.49,493.03 L1197.5,493.06 L1202.84,503.4 L1200.33,503.38 L1206.2,516.22 L1203.88,516.2 L1211.23,530.95 L1195.4,530.8 L1195.4,535.96 L1192.52,535.96 L1192.52,530.78 L1176.85,530.64 L1181.65,520.91 L1184.06,516.02 L1184.06,516.02 Z" id="Shape" fill="#18648F" sketch:type="MSShapeGroup"></path>
            <path d="M1590.79,642.04 L1593.81,636.12 L1593.88,635.99 L1589.85,635.95 L1593.38,627.58 L1595.2,623.25 L1592.46,623.23 L1596.36,614.08 L1599.34,607.09 L1606.35,623.35 L1603.32,623.32 L1603.34,623.35 L1608.79,636.12 L1604.63,636.09 L1604.65,636.12 L1612.7,651.72 L1608.92,651.68 L1610.17,654.42 L1588.4,654.42 L1589.72,651.51 L1585.97,651.48 L1590.79,642.04 L1590.79,642.04 Z" id="Shape" fill="#18648F" sketch:type="MSShapeGroup"></path>
            <path d="M1270.38,523.81 C1360.14,532.62 1432.76,558.31 1489.88,588.94 C1523.96167,607.179002 1555.92532,629.125301 1585.19,654.38 L734.92,654.38 C851.46,593.81 1028.46,520.53 1202.85,520.59 C1226.36,520.6 1248.87,521.74 1270.38,523.81 L1270.38,523.81 Z" id="Shape" fill="#20A0E9" sketch:type="MSShapeGroup"></path>
            <path d="M1270.38,523.81 C1360.14,532.62 1432.76,558.31 1489.88,588.94 C1489.88,588.94 1442.83,624.79 1264.69,654.38 L734.92,654.38 C851.46,593.81 1028.46,520.53 1202.85,520.59 C1226.36,520.6 1248.87,521.74 1270.38,523.81 L1270.38,523.81 Z" id="Shape" opacity="0.49" fill="#C5E1F7" sketch:type="MSShapeGroup"></path>
            <path d="M754.294178,531.481394 C754.294178,531.481394 730.946521,621.0221 605.4,646.2 C601.25,647.03 586.72,639.49 583.07,641.12 C571.37,646.3 561.9,650.7 554.13,654.42 L471.23,654.42 C485.460165,633.385583 501.336637,613.513243 518.71,594.99 C523.95,589.81 603.08,512.25 679.25,512.23 C707.44,512.23 754.294178,531.481394 754.294178,531.481394 Z" id="Shape" opacity="0.49" fill="#C5E1F7" sketch:type="MSShapeGroup"></path>
            <path d="M475.21,626.18 L473.05,626.16 L477.18,617.01 L478.66,613.75 L476.23,613.73 L479.35,607.63 L481.31,603.79 L481.35,603.71 L478.74,603.68 L481.03,598.27 L482.21,595.47 L480.43,595.45 L482.95,589.53 L484.88,585.01 L489.42,595.53 L487.46,595.51 L487.47,595.53 L491,603.79 L488.31,603.77 L488.32,603.79 L493.52,613.88 L491.08,613.86 L496.8,626.38 L494.54,626.36 L501.71,640.74 L486.27,640.6 L486.27,645.63 L483.46,645.63 L483.46,640.58 L468.19,640.44 L472.86,630.96 L475.21,626.18 L475.21,626.18 Z" id="Shape" fill="#18648F" sketch:type="MSShapeGroup"></path>
            <path d="M454.54,615.53 L452.23,615.51 L456.64,605.73 L458.22,602.25 L455.63,602.23 L458.96,595.71 L461.05,591.61 L461.09,591.52 L458.31,591.5 L460.75,585.71 L462.01,582.72 L460.12,582.71 L462.81,576.39 L464.86,571.55 L469.71,582.79 L467.62,582.77 L467.63,582.79 L471.39,591.61 L468.52,591.59 L468.54,591.61 L474.1,602.39 L471.48,602.37 L477.6,615.73 L475.18,615.71 L482.83,631.07 L466.35,630.92 L466.35,636.29 L463.35,636.29 L463.35,630.89 L447.04,630.75 L452.03,620.62 L454.54,615.53 L454.54,615.53 Z" id="Shape" fill="#FBFBFB" sketch:type="MSShapeGroup"></path>
            <path d="M709.75,632.74 L712.24,627.23 L708.15,627.19 L713.41,616.9 L716.71,610.43 L716.71,610.43 L716.78,610.29 L712.38,610.25 L716.24,601.11 L718.23,596.39 L715.24,596.36 L719.49,586.38 L722.74,578.75 L730.39,596.5 L727.09,596.47 L727.1,596.5 L733.05,610.43 L728.52,610.39 L728.54,610.43 L737.32,627.45 L733.19,627.41 L742.85,648.53 L739.03,648.49 L741.98,654.42 L703.37,654.42 L706.43,648.2 L702.77,648.17 L709.75,632.74 L709.75,632.74 Z" id="Shape" fill="#18648F" sketch:type="MSShapeGroup"></path>
            <path d="M670.3,647.62 L667.21,647.59 L673.1,634.56 L675.2,629.91 L671.75,629.88 L676.19,621.19 L678.97,615.73 L679.03,615.61 L675.32,615.58 L678.57,607.86 L680.25,603.88 L677.73,603.85 L681.32,595.43 L684.06,588.98 L690.52,603.97 L687.74,603.94 L687.75,603.97 L692.77,615.73 L688.94,615.7 L688.96,615.73 L696.37,630.1 L692.89,630.07 L701.04,647.89 L697.82,647.86 L701.08,654.42 L666.95,654.42 L666.95,654.41 L670.3,647.62 L670.3,647.62 Z" id="Shape" fill="#FBFBFB" sketch:type="MSShapeGroup"></path>
            <path d="M436.64,626.92 L434.33,626.9 L438.75,617.13 L440.32,613.64 L437.73,613.62 L441.06,607.1 L443.15,603.01 L443.2,602.92 L440.41,602.89 L442.85,597.11 L444.11,594.12 L442.22,594.1 L444.91,587.78 L446.97,582.95 L451.81,594.19 L449.72,594.17 L449.73,594.19 L453.5,603.01 L450.63,602.99 L450.64,603.01 L456.2,613.78 L453.59,613.76 L459.7,627.13 L457.28,627.11 L464.94,642.46 L448.45,642.32 L448.45,647.69 L445.45,647.69 L445.45,642.29 L429.14,642.15 L434.13,632.02 L436.64,626.92 L436.64,626.92 Z" id="Shape" fill="#18648F" sketch:type="MSShapeGroup"></path>
            <path d="M421.55,630.95 L419.46,630.93 L423.44,622.13 L424.86,618.99 L422.53,618.97 L425.53,613.1 L427.41,609.41 L427.45,609.33 L424.94,609.3 L427.14,604.09 L428.28,601.4 L426.57,601.38 L429,595.69 L430.85,591.34 L435.21,601.46 L433.33,601.45 L433.34,601.46 L436.73,609.41 L434.15,609.39 L434.16,609.41 L439.17,619.12 L436.81,619.1 L442.32,631.14 L440.14,631.12 L447.04,644.95 L432.19,644.82 L432.19,649.66 L429.49,649.66 L429.49,644.8 L414.79,644.67 L419.29,635.54 L421.55,630.95 L421.55,630.95 Z" id="Shape" fill="#FBFBFB" sketch:type="MSShapeGroup"></path>
            <path d="M397.78,612.81 L395.87,612.79 L399.5,604.76 L400.8,601.9 L398.67,601.88 L401.4,596.53 L403.12,593.16 L403.16,593.09 L400.87,593.07 L402.88,588.31 L403.91,585.86 L402.36,585.84 L404.57,580.65 L406.26,576.68 L410.24,585.91 L408.52,585.9 L408.53,585.91 L411.62,593.16 L409.26,593.14 L409.27,593.16 L413.84,602.02 L411.7,602 L416.72,612.98 L414.73,612.96 L421.02,625.58 L407.48,625.46 L407.48,629.88 L405.01,629.88 L405.01,625.44 L391.61,625.32 L395.71,617 L397.78,612.81 L397.78,612.81 Z" id="Shape" fill="#18648F" sketch:type="MSShapeGroup"></path>
            <path d="M378.07,609.15 L375.76,609.13 L380.17,599.37 L381.75,595.89 L379.16,595.87 L382.48,589.36 L384.57,585.27 L384.61,585.18 L381.83,585.16 L384.27,579.38 L385.53,576.4 L383.64,576.38 L386.32,570.07 L388.38,565.25 L393.21,576.47 L391.13,576.45 L391.14,576.47 L394.9,585.27 L392.03,585.25 L392.04,585.27 L397.59,596.03 L394.99,596.01 L401.09,609.35 L398.67,609.33 L406.31,624.66 L389.86,624.51 L389.86,629.88 L386.87,629.88 L386.87,624.49 L370.58,624.34 L375.57,614.23 L378.07,609.15 L378.07,609.15 Z" id="Shape" fill="#FBFBFB" sketch:type="MSShapeGroup"></path>
            <path d="M353.97,600.83 L351.15,600.8 L356.53,588.89 L358.45,584.64 L355.29,584.62 L359.35,576.67 L361.9,571.68 L361.95,571.57 L358.56,571.54 L361.53,564.49 L363.07,560.85 L360.76,560.83 L364.04,553.13 L366.55,547.24 L372.45,560.93 L369.91,560.91 L369.92,560.93 L374.51,571.68 L371.01,571.65 L371.02,571.68 L377.8,584.82 L374.62,584.79 L382.07,601.08 L379.12,601.05 L388.45,619.77 L368.36,619.59 L368.36,626.14 L364.7,626.14 L364.7,619.56 L344.82,619.38 L350.91,607.04 L353.97,600.83 L353.97,600.83 Z" id="Shape" fill="#FBFBFB" sketch:type="MSShapeGroup"></path>
            <path d="M340.06,605.49 L337.56,605.47 L342.33,594.92 L344.03,591.16 L341.24,591.14 L344.82,584.11 L347.08,579.69 L347.13,579.59 L344.12,579.57 L346.76,573.32 L348.12,570.1 L346.07,570.08 L348.98,563.27 L351.2,558.05 L356.42,570.17 L354.17,570.15 L354.18,570.17 L358.24,579.69 L355.14,579.66 L355.16,579.69 L361.16,591.32 L358.34,591.29 L364.93,605.71 L362.32,605.68 L370.58,622.25 L352.8,622.1 L352.8,627.89 L349.56,627.89 L349.56,622.07 L331.97,621.91 L337.35,610.98 L340.06,605.49 L340.06,605.49 Z" id="Shape" fill="#18648F" sketch:type="MSShapeGroup"></path>
            <path d="M311.35,597.14 L307.92,597.11 L314.46,582.64 L316.8,577.48 L312.96,577.45 L317.89,567.8 L320.98,561.74 L321.05,561.6 L316.93,561.57 L320.54,553 L322.4,548.57 L319.6,548.55 L323.59,539.19 L326.63,532.04 L333.81,548.67 L330.71,548.65 L330.73,548.67 L336.3,561.74 L332.05,561.7 L332.07,561.74 L340.3,577.69 L336.43,577.66 L345.49,597.45 L341.9,597.41 L353.24,620.15 L328.83,619.94 L328.83,627.89 L324.39,627.89 L324.39,619.9 L300.24,619.68 L307.63,604.68 L311.35,597.14 L311.35,597.14 Z" id="Shape" fill="#FBFBFB" sketch:type="MSShapeGroup"></path>
            <path d="M293.49,600.2 L290.76,600.17 L295.96,588.68 L297.81,584.59 L294.76,584.56 L298.68,576.9 L298.68,576.9 L301.13,572.09 L301.19,571.98 L297.91,571.95 L300.78,565.15 L302.26,561.64 L300.04,561.62 L303.2,554.19 L305.62,548.51 L311.31,561.72 L308.86,561.7 L308.87,561.72 L313.29,572.09 L309.92,572.06 L309.93,572.09 L316.47,584.75 L313.4,584.73 L320.58,600.44 L317.74,600.41 L326.74,618.46 L307.37,618.29 L307.37,624.61 L303.84,624.61 L303.84,618.26 L284.66,618.09 L290.53,606.18 L293.49,600.2 L293.49,600.2 Z" id="Shape" fill="#18648F" sketch:type="MSShapeGroup"></path>
            <path d="M276.41,599.44 L274.22,599.42 L278.4,590.16 L279.9,586.85 L277.44,586.83 L280.6,580.65 L282.58,576.77 L282.62,576.68 L279.98,576.66 L282.3,571.17 L283.49,568.34 L281.69,568.32 L284.25,562.33 L286.2,557.75 L290.79,568.4 L288.81,568.39 L288.82,568.4 L292.39,576.77 L289.67,576.75 L289.68,576.77 L294.95,586.99 L292.47,586.96 L298.27,599.63 L295.98,599.62 L303.23,614.18 L287.61,614.04 L287.61,619.13 L284.76,619.13 L284.76,614.01 L269.3,613.88 L274.03,604.27 L276.41,599.44 L276.41,599.44 Z" id="Shape" fill="#18648F" sketch:type="MSShapeGroup"></path>
            <path d="M261.1,602.34 L259.17,602.33 L262.86,594.17 L264.17,591.26 L262.01,591.25 L264.79,585.81 L266.53,582.39 L266.57,582.32 L264.24,582.29 L266.28,577.47 L267.33,574.97 L265.75,574.96 L268,569.69 L269.71,565.65 L273.76,575.03 L272.01,575.01 L272.02,575.03 L275.16,582.39 L272.77,582.37 L272.78,582.39 L277.42,591.38 L275.24,591.36 L280.34,602.51 L278.32,602.5 L284.71,615.31 L270.95,615.19 L270.95,619.67 L268.45,619.67 L268.45,615.17 L254.84,615.05 L259.01,606.6 L261.1,602.34 L261.1,602.34 Z" id="Shape" fill="#18648F" sketch:type="MSShapeGroup"></path>
            <path d="M205.81,592.9 L204.53,592.89 L206.97,587.5 L207.84,585.58 L206.41,585.56 L208.25,581.96 L209.4,579.71 L209.43,579.65 L207.89,579.64 L209.24,576.45 L209.93,574.8 L208.89,574.79 L210.37,571.3 L211.51,568.63 L214.18,574.84 L213.03,574.82 L213.03,574.84 L215.11,579.71 L213.53,579.69 L213.54,579.71 L216.61,585.65 L215.16,585.64 L218.54,593.02 L217.2,593.01 L221.43,601.48 L212.33,601.4 L212.33,604.37 L210.67,604.37 L210.67,601.39 L201.67,601.31 L204.43,595.72 L205.81,592.9 L205.81,592.9 Z" id="Shape" fill="#18648F" sketch:type="MSShapeGroup"></path>
            <path d="M182.8,583.91 L180.71,583.9 L184.69,575.1 L186.11,571.96 L183.78,571.93 L186.77,566.07 L188.65,562.38 L188.65,562.38 L188.7,562.3 L186.19,562.27 L188.38,557.06 L189.52,554.37 L187.81,554.36 L190.24,548.67 L192.09,544.31 L196.45,554.43 L194.57,554.42 L194.58,554.43 L197.97,562.38 L195.39,562.36 L195.4,562.38 L200.41,572.08 L198.05,572.06 L203.56,584.1 L201.38,584.08 L208.27,597.91 L193.43,597.78 L193.43,602.62 L190.73,602.62 L190.73,597.75 L176.04,597.63 L180.53,588.5 L182.8,583.91 L182.8,583.91 Z" id="Shape" fill="#18648F" sketch:type="MSShapeGroup"></path>
            <path d="M155.68,578.78 L152.88,578.76 L158.22,566.94 L160.12,562.73 L156.99,562.7 L161.01,554.82 L161.01,554.82 L163.54,549.87 L163.59,549.76 L160.23,549.73 L163.18,542.74 L164.7,539.12 L162.41,539.1 L165.67,531.46 L168.15,525.62 L174.01,539.21 L171.49,539.18 L171.5,539.21 L176.05,549.87 L172.58,549.84 L172.59,549.87 L179.32,562.9 L176.16,562.87 L183.55,579.03 L180.62,579.01 L189.88,597.58 L169.95,597.4 L169.95,603.89 L166.32,603.89 L166.32,597.37 L146.6,597.19 L152.64,584.94 L155.68,578.78 L155.68,578.78 Z" id="Shape" fill="#18648F" sketch:type="MSShapeGroup"></path>
            <path d="M129.56,588.15 L127.37,588.13 L131.54,578.9 L133.03,575.6 L130.58,575.58 L133.73,569.42 L135.7,565.56 L135.75,565.47 L133.11,565.45 L135.42,559.98 L136.61,557.16 L134.82,557.14 L137.36,551.17 L139.31,546.6 L143.88,557.22 L141.91,557.2 L141.92,557.22 L145.48,565.56 L142.76,565.53 L142.78,565.56 L148.03,575.74 L145.56,575.71 L151.34,588.34 L149.05,588.32 L156.28,602.83 L140.71,602.69 L140.71,607.77 L137.88,607.77 L137.88,602.67 L122.47,602.53 L127.18,592.96 L129.56,588.15 L129.56,588.15 Z" id="Shape" fill="#FBFBFB" sketch:type="MSShapeGroup"></path>
            <path d="M104.52,589.39 L102.64,589.38 L106.23,581.43 L107.51,578.6 L105.4,578.58 L108.11,573.29 L108.11,573.29 L109.81,569.96 L109.84,569.89 L107.58,569.87 L109.56,565.16 L110.59,562.74 L109.05,562.72 L111.23,557.59 L112.91,553.66 L116.84,562.79 L115.15,562.77 L115.15,562.79 L118.22,569.96 L115.88,569.94 L115.89,569.96 L120.41,578.72 L118.29,578.7 L123.25,589.56 L121.29,589.54 L127.51,602.02 L114.12,601.9 L114.12,606.27 L111.68,606.27 L111.68,601.88 L98.42,601.76 L102.48,593.53 L104.52,589.39 L104.52,589.39 Z" id="Shape" fill="#FBFBFB" sketch:type="MSShapeGroup"></path>
            <path d="M129.51,584.93 L129.51,584.93 L129.46,584.81 L133.05,584.78 L129.9,577.3 L128.27,573.44 L130.72,573.42 L127.24,565.26 L124.58,559.02 L118.33,573.53 L121.03,573.51 L121.02,573.53 L116.15,584.93 L119.86,584.89 L119.84,584.93 L115.18,593.97 L134.13,593.97 L132.21,590.21 L129.51,584.93 L129.51,584.93 Z" id="Shape" fill="#18648F" sketch:type="MSShapeGroup"></path>
            <path d="M1630.25,649.81 L1633.21,644.02 L1633.28,643.89 L1629.34,643.86 L1632.79,635.67 L1634.57,631.45 L1631.89,631.42 L1635.7,622.49 L1638.61,615.65 L1645.46,631.55 L1642.51,631.52 L1642.52,631.55 L1647.85,644.02 L1643.78,643.99 L1643.8,644.02 L1649.17,654.42 L1627.9,654.42 L1630.26,649.81 L1630.25,649.81 L1630.25,649.81 Z" id="Shape" fill="#18648F" sketch:type="MSShapeGroup"></path>
            <path d="M1661.8,646.92 L1663.33,643.31 L1661.04,643.29 L1664.29,635.65 L1666.78,629.81 L1672.63,643.39 L1670.11,643.37 L1670.12,643.39 L1674.67,654.06 L1671.2,654.03 L1671.22,654.06 L1671.4,654.42 L1661.98,654.42 L1662.16,654.06 L1662.22,653.95 L1658.85,653.92 L1661.8,646.92 L1661.8,646.92 Z" id="Shape" fill="#18648F" sketch:type="MSShapeGroup"></path>
            <path d="M1716.03,640.05 L1716.03,640.05 L1719.56,633.14 L1719.64,632.98 L1714.93,632.94 L1719.05,623.16 L1721.18,618.11 L1717.98,618.08 L1722.53,607.4 L1726.01,599.24 L1734.2,618.23 L1730.67,618.2 L1730.68,618.23 L1737.05,633.14 L1732.19,633.09 L1732.21,633.14 L1741.61,651.34 L1737.2,651.3 L1738.62,654.42 L1713.28,654.42 L1714.78,651.11 L1710.4,651.07 L1716.03,640.05 L1716.03,640.05 Z" id="Shape" fill="#18648F" sketch:type="MSShapeGroup"></path>
            <path d="M1742.03,635.48 L1736.49,635.43 L1743.6,621.5 L1748.07,612.76 L1748.17,612.56 L1742.21,612.51 L1747.43,600.14 L1750.12,593.76 L1746.08,593.73 L1751.83,580.22 L1756.22,569.9 L1766.57,593.91 L1762.11,593.87 L1762.13,593.91 L1770.18,612.76 L1764.04,612.7 L1764.07,612.76 L1775.95,635.78 L1770.37,635.73 L1778.91,654.42 L1733.46,654.42 L1738.66,642.93 L1742.03,635.48 L1742.03,635.48 Z" id="Shape" fill="#18648F" sketch:type="MSShapeGroup"></path>
            <path d="M1820.44,640.05 L1822.14,636.02 L1819.58,636 L1823.21,627.49 L1825.98,620.97 L1832.51,636.12 L1829.7,636.09 L1829.71,636.12 L1834.79,648.01 L1830.92,647.97 L1830.93,648.01 L1834.24,654.42 L1817.57,654.42 L1818.02,653.52 L1820.84,648.01 L1820.84,648.01 L1820.9,647.88 L1817.15,647.85 L1820.44,640.05 L1820.44,640.05 Z" id="Shape" fill="#18648F" sketch:type="MSShapeGroup"></path>
            <path d="M1852.78,643.95 L1854.98,638.76 L1860.18,650.82 L1857.94,650.8 L1857.95,650.82 L1859.49,654.42 L1850.37,654.42 L1850.57,653.95 L1851.92,650.75 L1849.89,650.73 L1852.78,643.95 L1852.78,643.95 Z" id="Shape" fill="#18648F" sketch:type="MSShapeGroup"></path>
            <path d="M1895.92,652.11 L1898.85,646.37 L1898.92,646.25 L1895.01,646.21 L1898.43,638.1 L1900.2,633.91 L1897.55,633.89 L1901.32,625.03 L1904.2,618.26 L1910.99,634.01 L1908.07,633.98 L1908.08,634.01 L1913.36,646.37 L1909.33,646.34 L1909.35,646.37 L1913.5,654.42 L1894.74,654.42 L1895.92,652.11 L1895.92,652.11 L1895.92,652.11 Z" id="Shape" fill="#18648F" sketch:type="MSShapeGroup"></path>
            <path d="M1920.95,635.08 L1924.83,627.47 L1924.92,627.3 L1919.74,627.25 L1924.28,616.49 L1926.62,610.93 L1923.1,610.9 L1928.11,599.15 L1931.93,590.16 L1940.94,611.06 L1937.06,611.03 L1937.07,611.06 L1944.08,627.47 L1938.74,627.42 L1938.76,627.47 L1949.1,647.51 L1944.24,647.47 L1947.42,654.42 L1916.33,654.42 L1916.64,653.73 L1919.58,647.25 L1914.76,647.21 L1920.95,635.08 L1920.95,635.08 Z" id="Shape" fill="#18648F" sketch:type="MSShapeGroup"></path>
            <path d="M1948.93,642.54 L1952.44,635.67 L1952.52,635.52 L1947.84,635.48 L1951.94,625.77 L1954.05,620.75 L1950.88,620.72 L1955.39,610.12 L1958.85,602.01 L1966.98,620.87 L1963.47,620.84 L1963.48,620.87 L1969.81,635.67 L1964.99,635.63 L1965.01,635.67 L1974.34,653.76 L1969.96,653.72 L1970.28,654.42 L1947.29,654.42 L1947.69,653.52 L1943.35,653.48 L1948.93,642.54 L1948.93,642.54 Z" id="Shape" fill="#18648F" sketch:type="MSShapeGroup"></path>
            <path d="M92.46,654.42 L2034.04228,654.42 L2034.04228,809.089998 L92.46,809.09 L92.46,654.42 Z" id="Rectangle-path" fill="#FFFFFF" sketch:type="MSShapeGroup"></path>
            <path d="M2025.95,673.76 L2025.95,673.94 L511.76,755.39 L92.45,777.95 L92.45,685.64 L2025.95,673.76 L2025.95,673.76 Z" id="Shape" opacity="0.49" fill="#C5E1F7" sketch:type="MSShapeGroup"></path>
            <path d="M669.7,654.42 L92.46,654.42 L92.46,588.87 C136.84,592.07 419.52,613.37 669.7,654.42 L669.7,654.42 Z" id="Shape" fill="#A2D9FD" sketch:type="MSShapeGroup"></path>
        </g>
    </g>
</svg>