<?xml version="1.0" encoding="UTF-8" standalone="no"?>
<svg width="221px" height="312px" viewBox="0 0 221 312" version="1.1" xmlns="http://www.w3.org/2000/svg" xmlns:xlink="http://www.w3.org/1999/xlink" xmlns:sketch="http://www.bohemiancoding.com/sketch/ns">
    <!-- Generator: Sketch 3.4.2 (15855) - http://www.bohemiancoding.com/sketch -->
    <title>santa-one</title>
    <desc>Created with Sketch.</desc>
    <defs></defs>
    <g id="Page-1" stroke="none" stroke-width="1" fill="none" fill-rule="evenodd" sketch:type="MSPage">
        <g id="santa-one" sketch:type="MSLayerGroup" transform="translate(-1.000000, -1.000000)">
            <ellipse id="Oval" fill="#FAE1CE" sketch:type="MSShapeGroup" transform="translate(189.385240, 147.705785) rotate(-75.960000) translate(-189.385240, -147.705785) " cx="189.38524" cy="147.705785" rx="12.18" ry="12.69"></ellipse>
            <path d="M168.06,210.95 C150.89,204.95 161.56,189.62 174.06,158.28 L194.89,159.5 C192.23,183.78 181.51,215.68 168.06,210.95 L168.06,210.95 Z" id="Shape" fill="#AB0000" sketch:type="MSShapeGroup"></path>
            <path d="M56.3,75.27 C66.05,83.99 109.15,89.64 126.62,75.27 C126.62,75.27 115.3,21.93 99.62,6.8 C90.74,-1.79 90.32,0.07 80.78,7.31 C73.02,13.21 69.35,12.7 64.73,17.06 C60.11,21.42 57.72,55.39 35.15,57.78 C32.97,60.59 58.87,59.45 62.2,52.39 C62.46,37.04 63.74,62.7 56.3,75.27 L56.3,75.27 Z" id="Shape" fill="#BE0000" sketch:type="MSShapeGroup"></path>
            <circle id="Oval" fill="#FAE1CE" sketch:type="MSShapeGroup" cx="91.75" cy="115.8" r="45.1"></circle>
            <path d="M72.38,109.5 C72.38,112.31 73.38,114.59 74.72,114.59 C76.06,114.59 77.06,112.31 77.06,109.5 C77.0643413,108.829101 77.0040631,108.159343 76.88,107.5 C76.53,105.66 75.69,104.36 74.71,104.36 C73.73,104.36 73.11,105.36 72.71,106.83 C72.4793881,107.700909 72.3683694,108.599151 72.38,109.5 L72.38,109.5 Z" id="Shape" fill="#000000" sketch:type="MSShapeGroup"></path>
            <path d="M54.43,117.78 C54.43,93.78 68.55,72.11 92.26,70.78 C91.41,70.78 90.56,70.7 89.69,70.7 C64.781958,70.7000004 44.5900007,90.891958 44.5900007,115.8 C44.5900007,140.708042 64.781958,160.9 89.69,160.9 C90.55,160.9 91.41,160.9 92.26,160.82 C68.56,159.49 54.43,137.54 54.43,117.78 L54.43,117.78 Z" id="Shape" fill="#FDD4B5" sketch:type="MSShapeGroup"></path>
            <ellipse id="Oval" fill="#FAE1CE" sketch:type="MSShapeGroup" cx="20.64" cy="245.57" rx="11.8" ry="11.33"></ellipse>
            <path d="M111.56,109.5 C111.56,112.31 110.56,114.59 109.22,114.59 C107.88,114.59 106.88,112.31 106.88,109.5 C106.875659,108.829101 106.935937,108.159343 107.06,107.5 C107.41,105.66 108.25,104.36 109.23,104.36 C110.21,104.36 110.83,105.36 111.23,106.83 C111.460612,107.700909 111.571631,108.599151 111.56,109.5 L111.56,109.5 Z" id="Shape" fill="#000000" sketch:type="MSShapeGroup"></path>
            <path d="M20.03,243.48 C16.5648051,236.253908 14.789969,228.33383 14.84,220.32 C14.84,183.68 49.27,147.82 91.75,147.82 C131.44,147.82 164.1,179.12 168.22,213.12 C168.22,213.12 179.05,211.28 183.89,199.12 C177.4,162.19 130.89,141.79 91.75,141.79 C41.63,141.79 1,175.03 1,216.14 C0.959870227,224.659919 2.83256362,233.080205 6.48,240.78 L20.03,243.48 Z" id="Shape" fill="#AB0000" sketch:type="MSShapeGroup"></path>
            <path d="M168.66,220.32 C168.66,256.96 134.23,280.5 91.75,280.5 C49.27,280.5 14.84,256.96 14.84,220.32 C14.84,183.68 49.28,147.78 91.75,147.78 C134.22,147.78 168.66,183.68 168.66,220.32 L168.66,220.32 Z" id="Shape" fill="#BE0000" sketch:type="MSShapeGroup"></path>
            <path d="M56.3,75.27 C66.05,83.99 109.15,89.64 126.62,75.27 C126.62,75.27 115.3,21.93 99.62,6.8 C90.74,-1.79 90.32,0.07 80.78,7.31 C73.02,13.21 69.35,12.7 64.73,17.06 C60.11,21.42 57.72,55.39 35.15,57.78 C32.97,60.59 58.87,59.45 62.2,52.39 C62.46,37.04 63.74,62.7 56.3,75.27 L56.3,75.27 Z" id="Shape" fill="#BE0000" sketch:type="MSShapeGroup"></path>
            <path d="M64.77,17.03 C60.15,21.39 57.77,55.39 35.15,57.82 C32.97,60.63 55.63,60.57 62.2,52.43 C64.01,36.12 64.77,17.03 64.77,17.03 L64.77,17.03 Z" id="Shape" fill="#980000" sketch:type="MSShapeGroup"></path>
            <path d="M94.73,8.31 C108.06,21.2 114.97,68.49 117.73,80.24 C120.957175,79.0665718 123.972914,77.3780279 126.66,75.24 C129.347086,73.1019721 115.34,21.9 99.66,6.77 C90.78,-1.82 90.52,-0.14 80.82,7.28 C82.48,8.07 85.85,-0.27 94.73,8.31 L94.73,8.31 Z" id="Shape" fill="#CB0000" sketch:type="MSShapeGroup"></path>
            <circle id="Oval" fill="#FFFFFF" sketch:type="MSShapeGroup" cx="32.06" cy="59.88" r="9.24"></circle>
            <path d="M25.91,59.88 C25.9069652,55.3896547 29.1359327,51.5486606 33.56,50.78 C29.9232183,50.1280129 26.2476658,51.7051907 24.2144204,54.7901836 C22.1811749,57.8751765 22.1811749,61.8748235 24.2144204,64.9598164 C26.2476658,68.0448093 29.9232183,69.6219871 33.56,68.97 C29.1396542,68.2019853 25.9118285,64.3665688 25.91,59.88 L25.91,59.88 Z" id="Shape" fill="#E6E6E6" sketch:type="MSShapeGroup"></path>
            <ellipse id="Oval" fill="#FAE1CE" sketch:type="MSShapeGroup" cx="91.75" cy="111.7" rx="11.24" ry="8.72"></ellipse>
            <path d="M91.75,105.03 C97.51,105.03 102.25,108.39 102.9,112.73 C102.951072,112.39907 102.977811,112.064841 102.98,111.73 C102.98,106.91 97.98,103.01 91.74,103.01 C85.5,103.01 80.56,106.88 80.56,111.7 C80.5621894,112.034841 80.5889277,112.36907 80.64,112.7 C81.26,108.39 85.99,105.03 91.75,105.03 L91.75,105.03 Z" id="Shape" fill="#FDF0E6" sketch:type="MSShapeGroup"></path>
            <path d="M129.39,74.78 C129.220127,74.2159687 128.75748,73.7885956 128.181774,73.6638939 C127.606068,73.5391922 127.008042,73.7368167 126.62,74.18 C122.14,79.24 108.23,82.92 91.75,82.92 C75.6,82.92 61.92,79.38 57.16,74.48 C56.6767474,74.001744 55.9774996,73.8130399 55.3192494,73.9832416 C54.6609992,74.1534434 54.1408611,74.6574404 53.95,75.31 L51.62,82.93 C51.62,89.69 69.62,95.18 91.74,95.18 C113.86,95.18 131.86,89.7 131.86,82.93 L129.39,74.78 Z" id="Shape" fill="#FFFFFF" sketch:type="MSShapeGroup"></path>
            <path d="M128.36,75.85 C128.174739,75.29917 127.713363,74.8864175 127.145385,74.7633896 C126.577407,74.6403618 125.986588,74.8252024 125.59,75.25 C123.164129,77.1904974 120.356408,78.5977655 117.35,79.38 C113.35,80.58 117.82,79.24 118.28,81.45 L120.16,89.92 C120.6,91.35 118.16,92.06 118.81,92.06 C128.12,90.14 130.81,86.91 130.81,84 L128.36,75.85 Z" id="Shape" fill="#E6E6E6" sketch:type="MSShapeGroup"></path>
            <path d="M70.56,284.78 L70.56,295.99 C68.3157016,292.681288 64.5576547,290.723345 60.56,290.78 C50.32,290.78 42.45,298.78 45.83,312.78 L86.56,312.78 L86.56,284.78 L70.56,284.78 L70.56,284.78 Z" id="Shape" fill="#BE0000" sketch:type="MSShapeGroup"></path>
            <path d="M104.56,284.78 L104.56,295.99 C108.006189,292.765615 112.512448,290.912607 117.23,290.78 C127.47,290.78 138,298.78 134.62,312.78 L88.56,312.78 L88.56,284.78 L104.56,284.78 L104.56,284.78 Z" id="Shape" fill="#BE0000" sketch:type="MSShapeGroup"></path>
            <path d="M155.27,219.96 C117.35,190.46 46.65,201.75 27.27,219.96 C56.04,194.78 110.5,184.3 155.27,219.96 L155.27,219.96 Z" id="Shape" fill="#CB0000" sketch:type="MSShapeGroup"></path>
            <path d="M93.45,130.22 C77.66,130.22 64.29,129.33 53.32,124.5 C49.71,131.14 43.2,139.96 41.5,147.87 C35.15,177.37 62.29,194.13 81.82,196.79 C90.02,197.91 91.4,203.29 91.4,203.29 C91.4,203.29 92.95,197.9 99.95,196.79 C131.87,191.73 149.68,170.06 143.35,147.87 C141.13,140.09 134.11,130.11 130.5,123.47 C119.56,128.31 109.24,130.22 93.45,130.22 L93.45,130.22 Z" id="Shape" fill="#FFFFFF" sketch:type="MSShapeGroup"></path>
            <path d="M82.21,194.05 C66.38,190.97 41.3,177.37 47.65,147.88 C49.2,140.7 54.65,132.78 58.4,126.41 C56.6740972,125.867416 54.9783562,125.233182 53.32,124.51 C49.71,131.15 43.2,139.97 41.5,147.88 C35.15,177.38 62.29,194.14 81.82,196.8 C90.02,197.92 91.4,203.3 91.4,203.3 C91.4,203.3 90.13,195.59 82.21,194.05 L82.21,194.05 Z" id="Shape" fill="#E6E6E6" sketch:type="MSShapeGroup"></path>
            <path d="M99.56,130.22 C112.93,130.22 122.36,128.84 131.56,125.49 C131.16,124.79 130.77,124.12 130.42,123.49 C120.05,128.06 110.28,130.01 95.91,130.21 L99.56,130.22 Z" id="Shape" stroke="#000000" fill="#FBFBFB" sketch:type="MSShapeGroup"></path>
            <path d="M92.98,128.35 C90.98,118.94 99.46,110.93 107.45,110.93 C121.24,110.93 128.59,132.22 160.14,126.58 C143.99,148.17 98.89,155.78 92.98,128.35 L92.98,128.35 Z" id="Shape" fill="#FFFFFF" sketch:type="MSShapeGroup"></path>
            <path d="M94.48,128.35 C96.28,118.9 88,110.93 80.01,110.93 C66.22,110.93 58.87,132.22 27.32,126.58 C43.47,148.17 89.14,156.34 94.48,128.35 L94.48,128.35 Z" id="Shape" fill="#FFFFFF" sketch:type="MSShapeGroup"></path>
            <path d="M80.01,110.93 C78.1892912,110.948204 76.3881506,111.307754 74.7,111.99 C83.04,110.22 92.48,119.83 90.7,128.99 C88.93,138.27 80.31,143.99 72.23,146.16 C83.23,145.3 92.23,139.91 94.45,128.4 C96.28,118.9 88,110.93 80.01,110.93 L80.01,110.93 Z" id="Shape" fill="#E6E6E6" sketch:type="MSShapeGroup"></path>
            <path d="M99.72,140 C90.61,132.15 93.72,114.87 107.28,115.34 C121.9,115.85 133.78,134.78 160.15,126.57 C128.6,132.21 121.39,110.72 106.89,110.98 C96.44,111.17 84.56,126.85 99.72,140 L99.72,140 Z" id="Shape" fill="#E6E6E6" sketch:type="MSShapeGroup"></path>
            <rect id="Rectangle-path" fill="#AB0000" sketch:type="MSShapeGroup" x="78.49" y="284.82" width="8.47" height="27.87"></rect>
            <rect id="Rectangle-path" fill="#AB0000" sketch:type="MSShapeGroup" x="88.84" y="284.82" width="8.47" height="28.02"></rect>
            <path d="M69.39,108.11 C68.22,103.61 71.72,99.94 74.56,101.78" id="Shape" stroke="#000000" stroke-width="0.5" sketch:type="MSShapeGroup"></path>
            <path d="M114,107.95 C115.17,103.45 111.67,99.78 108.83,101.62" id="Shape" stroke="#000000" stroke-width="0.5" sketch:type="MSShapeGroup"></path>
            <rect id="Rectangle-path" fill="#F6AE00" sketch:type="MSShapeGroup" x="179.14" y="115.93" width="39.9" height="30.45"></rect>
            <rect id="Rectangle-path" fill="#FDD835" sketch:type="MSShapeGroup" x="176.9" y="105.6" width="44.38" height="10.33"></rect>
            <rect id="Rectangle-path" fill="#E6E7E8" sketch:type="MSShapeGroup" x="194.9" y="115.93" width="8.59" height="30.45"></rect>
            <rect id="Rectangle-path" fill="#FFFFFF" sketch:type="MSShapeGroup" x="194.9" y="105.6" width="8.59" height="10.33"></rect>
            <path d="M178.59,99.79 L178.57,106.27 L184.31,110.63 L184.36,95.47 L178.59,99.79 L178.59,99.79 Z" id="Shape" fill="#E6E7E8" sketch:type="MSShapeGroup"></path>
            <path d="M178.57,106.27 L184.31,110.63 L198.51,103.97 L198.51,102.87 L178.57,106.27 L178.57,106.27 Z" id="Shape" fill="#FFFFFF" sketch:type="MSShapeGroup"></path>
            <path d="M178.59,99.79 L184.36,95.47 L198.52,102.21 L198.51,103.31 L178.59,99.79 L178.59,99.79 Z" id="Shape" fill="#FFFFFF" sketch:type="MSShapeGroup"></path>
            <path d="M192.01,84.66 L186.31,87.75 L185.23,94.87 L198.56,87.67 L192.01,84.66 L192.01,84.66 Z" id="Shape" fill="#E6E7E8" sketch:type="MSShapeGroup"></path>
            <path d="M186.31,87.75 L185.23,94.87 L197.87,104.16 L198.84,103.63 L186.31,87.75 L186.31,87.75 Z" id="Shape" fill="#FFFFFF" sketch:type="MSShapeGroup"></path>
            <path d="M192.01,84.66 L198.56,87.67 L199.41,103.32 L198.44,103.85 L192.01,84.66 L192.01,84.66 Z" id="Shape" fill="#FFFFFF" sketch:type="MSShapeGroup"></path>
            <path d="M206.03,84.7 L211.71,87.82 L212.74,94.95 L199.46,87.67 L206.03,84.7 L206.03,84.7 Z" id="Shape" fill="#E6E7E8" sketch:type="MSShapeGroup"></path>
            <path d="M211.71,87.82 L212.74,94.95 L200.05,104.16 L199.09,103.63 L211.71,87.82 L211.71,87.82 Z" id="Shape" fill="#FFFFFF" sketch:type="MSShapeGroup"></path>
            <path d="M206.03,84.7 L199.46,87.67 L198.52,103.32 L199.48,103.85 L206.03,84.7 L206.03,84.7 Z" id="Shape" fill="#FFFFFF" sketch:type="MSShapeGroup"></path>
            <path d="M219.08,99.91 L219.06,106.39 L213.29,110.71 L213.33,95.56 L219.08,99.91 L219.08,99.91 Z" id="Shape" fill="#E6E7E8" sketch:type="MSShapeGroup"></path>
            <path d="M219.06,106.39 L213.29,110.71 L199.13,103.97 L199.13,102.87 L219.06,106.39 L219.06,106.39 Z" id="Shape" fill="#FFFFFF" sketch:type="MSShapeGroup"></path>
            <path d="M219.08,99.91 L213.33,95.56 L199.14,102.22 L199.13,103.32 L219.08,99.91 L219.08,99.91 Z" id="Shape" fill="#FFFFFF" sketch:type="MSShapeGroup"></path>
            <path d="M197.34,105.91 L201.06,105.32 L201.56,101.88 L197.84,100.27 L195.48,103.08 L197.34,105.91 L197.34,105.91 Z" id="Shape" fill="#E6E7E8" sketch:type="MSShapeGroup"></path>
            <path d="M182.51,139.01 C181.32,147.8 194.81,146.34 192.69,147.14 C190.57,147.94 175.21,152.85 174.42,150.73 C173.63,148.61 173.42,139.9 177.78,136.26 C178.727544,135.510627 180.037051,135.417158 181.081424,136.024351 C182.125797,136.631545 182.69244,137.815799 182.51,139.01 L182.51,139.01 Z" id="Shape" fill="#FAE1CE" sketch:type="MSShapeGroup"></path>
            <path d="M178.99,146.78 C169.36,146.4 170.92,160.62 173.79,159.85 C176.66,159.08 187.01,161.51 193.55,167.48 C195.32,170.54 204.28,157.01 197.94,155.57 C190.96,154.04 188.56,147.2 178.99,146.78 L178.99,146.78 Z" id="Shape" fill="#FFFFFF" sketch:type="MSShapeGroup"></path>
        </g>
    </g>
</svg>