<?xml version="1.0" encoding="UTF-8" standalone="no"?>
<svg width="1257px" height="241px" viewBox="0 0 1257 241" version="1.1" xmlns="http://www.w3.org/2000/svg" xmlns:xlink="http://www.w3.org/1999/xlink" xmlns:sketch="http://www.bohemiancoding.com/sketch/ns">
    <!-- Generator: Sketch 3.4.2 (15855) - http://www.bohemiancoding.com/sketch -->
    <title>santa</title>
    <desc>Created with Sketch.</desc>
    <defs></defs>
    <g id="Page-1" stroke="none" stroke-width="1" fill="none" fill-rule="evenodd" sketch:type="MSPage">
        <g id="santa" sketch:type="MSLayerGroup" transform="translate(0.000000, -1.000000)">
            <rect id="Rectangle-path" fill="#503D99" sketch:type="MSShapeGroup" transform="translate(814.772193, 204.656323) rotate(28.060000) translate(-814.772193, -204.656323) " x="786.252193" y="182.891323" width="57.04" height="43.53"></rect>
            <rect id="Rectangle-path" fill="#7364AD" sketch:type="MSShapeGroup" transform="translate(828.472476, 178.940757) rotate(28.060000) translate(-828.472476, -178.940757) " x="796.747476" y="171.560757" width="63.45" height="14.76"></rect>
            <rect id="Rectangle-path" fill="#E6E7E8" sketch:type="MSShapeGroup" transform="translate(814.903984, 204.729247) rotate(28.060000) translate(-814.903984, -204.729247) " x="808.763984" y="182.964247" width="12.28" height="43.53"></rect>
            <rect id="Rectangle-path" fill="#FFFFFF" sketch:type="MSShapeGroup" transform="translate(828.608680, 179.016032) rotate(28.060000) translate(-828.608680, -179.016032) " x="822.46868" y="171.636032" width="12.28" height="14.76"></rect>
            <path d="M824.86,151.01 L817.34,151.28 L831.64,171.05 L833.12,170.3 L824.86,151.01 L824.86,151.01 Z" id="Shape" fill="#FFFFFF" sketch:type="MSShapeGroup"></path>
            <path d="M811.13,160.31 L830.56,172.16 L831.64,171.05 L817.34,151.28 L811.13,160.31 L811.13,160.31 Z" id="Shape" fill="#E6E7E8" sketch:type="MSShapeGroup"></path>
            <path d="M853.69,166.42 L857.65,172.82 L833.26,171.91 L833.07,170.27 L853.69,166.42 L853.69,166.42 Z" id="Shape" fill="#FFFFFF" sketch:type="MSShapeGroup"></path>
            <path d="M853.59,183 L832.94,173.43 L833.26,171.91 L857.65,172.82 L853.59,183 L853.59,183 Z" id="Shape" fill="#E6E7E8" sketch:type="MSShapeGroup"></path>
            <path d="M829.17,173.6 L834.23,175.35 L837.15,171.36 L833.56,166.85 L828.71,168.8 L829.17,173.6 L829.17,173.6 Z" id="Shape" fill="#FFFFFF" sketch:type="MSShapeGroup"></path>
            <path d="M96.36,224.11 L20.66,239 L8.41,185.42 L84.11,170.53 L96.36,224.11 L96.36,224.11 Z" id="Shape" fill="#503D99" sketch:type="MSShapeGroup"></path>
            <path d="M88.36,169.7 L4.16,186.26 L0,168.09 L84.2,151.53 L88.36,169.7 L88.36,169.7 Z" id="Shape" fill="#7364AD" sketch:type="MSShapeGroup"></path>
            <path d="M66.86,229.91 L50.56,233.12 L38.31,179.54 L54.61,176.34 L66.86,229.91 L66.86,229.91 Z" id="Shape" fill="#E6E7E8" sketch:type="MSShapeGroup"></path>
            <path d="M50.45,158.17 L34.15,161.38 L38.31,179.54 L54.61,176.34 L50.45,158.17 L50.45,158.17 Z" id="Shape" fill="#FFFFFF" sketch:type="MSShapeGroup"></path>
            <path d="M16.05,144.86 L8.47,151.2 L40.58,158.67 L41.46,156.75 L16.05,144.86 L16.05,144.86 Z" id="Shape" fill="#FFFFFF" sketch:type="MSShapeGroup"></path>
            <path d="M9.9,164.93 L40.43,160.62 L40.58,158.67 L8.47,151.2 L9.9,164.93 L9.9,164.93 Z" id="Shape" fill="#E6E7E8" sketch:type="MSShapeGroup"></path>
            <path d="M59.44,136.37 L69.13,139.34 L43.02,158.19 L41.37,156.77 L59.44,136.37 L59.44,136.37 Z" id="Shape" fill="#FFFFFF" sketch:type="MSShapeGroup"></path>
            <path d="M73.81,152.42 L44,159.92 L43.02,158.19 L69.13,139.34 L73.81,152.42 L73.81,152.42 Z" id="Shape" fill="#E6E7E8" sketch:type="MSShapeGroup"></path>
            <path d="M40.24,163.13 L47.02,160.72 L46.57,154.51 L38.9,153.08 L35.57,158.88 L40.24,163.13 L40.24,163.13 Z" id="Shape" fill="#FFFFFF" sketch:type="MSShapeGroup"></path>
            <rect id="Rectangle-path" fill="#20A0E9" sketch:type="MSShapeGroup" transform="translate(178.632866, 202.852553) rotate(13.630000) translate(-178.632866, -202.852553) " x="150.112866" y="181.087553" width="57.04" height="43.53"></rect>
            <rect id="Rectangle-path" fill="#18648F" sketch:type="MSShapeGroup" transform="translate(185.499347, 174.532992) rotate(13.630000) translate(-185.499347, -174.532992) " x="153.774347" y="167.152992" width="63.45" height="14.76"></rect>
            <rect id="Rectangle-path" fill="#E6E7E8" sketch:type="MSShapeGroup" transform="translate(178.769497, 202.894417) rotate(13.630000) translate(-178.769497, -202.894417) " x="172.629497" y="181.129417" width="12.28" height="43.53"></rect>
            <rect id="Rectangle-path" fill="#FFFFFF" sketch:type="MSShapeGroup" transform="translate(185.640837, 174.576035) rotate(13.630000) translate(-185.640837, -174.576035) " x="179.500837" y="167.196035" width="12.28" height="14.76"></rect>
            <path d="M175.06,148.34 L167.85,150.47 L186.62,166.05 L187.87,164.96 L175.06,148.34 L175.06,148.34 Z" id="Shape" fill="#FFFFFF" sketch:type="MSShapeGroup"></path>
            <path d="M164.08,160.76 L185.85,167.4 L186.62,166.05 L167.85,150.47 L164.08,160.76 L164.08,160.76 Z" id="Shape" fill="#E6E7E8" sketch:type="MSShapeGroup"></path>
            <path d="M206.82,156.08 L212.25,161.29 L188.41,166.49 L187.81,164.94 L206.82,156.08 L206.82,156.08 Z" id="Shape" fill="#FFFFFF" sketch:type="MSShapeGroup"></path>
            <path d="M210.86,172.16 L188.47,168.04 L188.41,166.49 L212.25,161.29 L210.86,172.16 L210.86,172.16 Z" id="Shape" fill="#E6E7E8" sketch:type="MSShapeGroup"></path>
            <path d="M184.87,169.15 L190.2,169.58 L192.03,164.98 L187.43,161.52 L183.22,164.61 L184.87,169.15 L184.87,169.15 Z" id="Shape" fill="#FFFFFF" sketch:type="MSShapeGroup"></path>
            <rect id="Rectangle-path" fill="#DD0559" sketch:type="MSShapeGroup" transform="translate(336.906320, 197.856309) rotate(-43.280000) translate(-336.906320, -197.856309) " x="303.17132" y="172.111309" width="67.47" height="51.49"></rect>
            <rect id="Rectangle-path" fill="#A60443" sketch:type="MSShapeGroup" transform="translate(313.275519, 172.760157) rotate(-43.280000) translate(-313.275519, -172.760157) " x="275.745519" y="164.030157" width="75.06" height="17.46"></rect>
            <rect id="Rectangle-path" fill="#E6E7E8" sketch:type="MSShapeGroup" transform="translate(337.038694, 197.739824) rotate(-43.280000) translate(-337.038694, -197.739824) " x="329.773694" y="171.994824" width="14.53" height="51.49"></rect>
            <rect id="Rectangle-path" fill="#FFFFFF" sketch:type="MSShapeGroup" transform="translate(313.397397, 172.639820) rotate(-43.280000) translate(-313.397397, -172.639820) " x="306.132397" y="163.90982" width="14.53" height="17.46"></rect>
            <path d="M278.76,172.14 L274.29,181.58 L305.86,170.09 L308.7,164.41 L278.76,172.14 L278.76,172.14 Z" id="Shape" fill="#BE0000" sketch:type="MSShapeGroup"></path>
            <path d="M314.35,138.55 L324.03,134.63 L310.73,165.48 L304.91,167.99 L314.35,138.55 L314.35,138.55 Z" id="Shape" fill="#BE0000" sketch:type="MSShapeGroup"></path>
            <path d="M271.41,164.22 L304.81,168.04 L305.43,166.04 L273.12,149.46 L271.41,164.22 L271.41,164.22 Z" id="Shape" fill="#FFFFFF" sketch:type="MSShapeGroup"></path>
            <path d="M331.49,140.04 L309.08,165.11 L307.29,164.03 L320.39,130.16 L331.49,140.04 L331.49,140.04 Z" id="Shape" fill="#FFFFFF" sketch:type="MSShapeGroup"></path>
            <path d="M306.32,131.26 L308.21,164.83 L306.18,165.34 L291.49,132.13 L306.32,131.26 L306.32,131.26 Z" id="Shape" fill="#FFFFFF" sketch:type="MSShapeGroup"></path>
            <path d="M278.72,189.85 L305.04,168.92 L304.06,167.07 L269.5,178.21 L278.72,189.85 L278.72,189.85 Z" id="Shape" fill="#FFFFFF" sketch:type="MSShapeGroup"></path>
            <path d="M273,168.23 L269.5,178.21 L304.06,167.07 L303.79,164.84 L273,168.23 L273,168.23 Z" id="Shape" fill="#E6E7E8" sketch:type="MSShapeGroup"></path>
            <path d="M282.65,144.89 L273.12,149.46 L305.43,166.04 L306.82,164.27 L282.65,144.89 L282.65,144.89 Z" id="Shape" fill="#E6E7E8" sketch:type="MSShapeGroup"></path>
            <path d="M310.24,133.08 L320.39,130.16 L307.29,164.03 L305.07,163.63 L310.24,133.08 L310.24,133.08 Z" id="Shape" fill="#E6E7E8" sketch:type="MSShapeGroup"></path>
            <path d="M286.38,141.38 L291.49,132.13 L306.18,165.34 L304.33,166.62 L286.38,141.38 L286.38,141.38 Z" id="Shape" fill="#E6E7E8" sketch:type="MSShapeGroup"></path>
            <path d="M307.74,172.08 L312.6,165.76 L308.34,159.75 L300.28,162.69 L300.74,170.46 L307.74,172.08 L307.74,172.08 Z" id="Shape" fill="#FFFFFF" sketch:type="MSShapeGroup"></path>
            <rect id="Rectangle-path" fill="#2B940D" sketch:type="MSShapeGroup" transform="translate(694.686005, 207.782964) rotate(-2.340000) translate(-694.686005, -207.782964) " x="660.951005" y="182.037964" width="67.47" height="51.49"></rect>
            <rect id="Rectangle-path" fill="#346128" sketch:type="MSShapeGroup" transform="translate(693.285810, 173.344051) rotate(-2.340000) translate(-693.285810, -173.344051) " x="655.75581" y="164.614051" width="75.06" height="17.46"></rect>
            <rect id="Rectangle-path" fill="#E6E7E8" sketch:type="MSShapeGroup" transform="translate(695.296000, 208.591200) rotate(-2.290610) translate(-695.296000, -208.591200) " x="688.02519" y="182.825612" width="14.5416194" height="51.5311755"></rect>
            <rect id="Rectangle-path" fill="#FFFFFF" sketch:type="MSShapeGroup" transform="translate(693.460255, 173.336915) rotate(-2.340000) translate(-693.460255, -173.336915) " x="686.195255" y="164.606915" width="14.53" height="17.46"></rect>
            <path d="M667.62,150.24 L658.06,154.44 L689.44,166.44 L695.31,164.02 L667.62,150.24 L667.62,150.24 Z" id="Shape" fill="#BE0000" sketch:type="MSShapeGroup"></path>
            <path d="M716.52,148.18 L726.41,151.56 L696.14,166.16 L690.1,164.24 L716.52,148.18 L716.52,148.18 Z" id="Shape" fill="#BE0000" sketch:type="MSShapeGroup"></path>
            <path d="M667.26,139.44 L689.99,164.21 L691.77,163.11 L678.23,129.41 L667.26,139.44 L667.26,139.44 Z" id="Shape" fill="#FFFFFF" sketch:type="MSShapeGroup"></path>
            <path d="M728.49,160.54 L695.13,164.79 L694.49,162.8 L726.58,145.81 L728.49,160.54 L728.49,160.54 Z" id="Shape" fill="#FFFFFF" sketch:type="MSShapeGroup"></path>
            <path d="M715.23,137.42 L694.66,164.01 L692.8,163.06 L703.47,128.35 L715.23,137.42 L715.23,137.42 Z" id="Shape" fill="#FFFFFF" sketch:type="MSShapeGroup"></path>
            <path d="M655.99,163.59 L689.59,165.02 L690.06,162.99 L656.66,148.75 L655.99,163.59 L655.99,163.59 Z" id="Shape" fill="#FFFFFF" sketch:type="MSShapeGroup"></path>
            <path d="M665.84,143.51 L656.66,148.75 L690.06,162.99 L691.32,161.13 L665.84,143.51 L665.84,143.51 Z" id="Shape" fill="#E6E7E8" sketch:type="MSShapeGroup"></path>
            <path d="M688.42,132.2 L678.23,129.41 L691.77,163.11 L693.98,162.68 L688.42,132.2 L688.42,132.2 Z" id="Shape" fill="#E6E7E8" sketch:type="MSShapeGroup"></path>
            <path d="M717,141.36 L726.58,145.81 L694.49,162.8 L693.08,161.05 L717,141.36 L717,141.36 Z" id="Shape" fill="#E6E7E8" sketch:type="MSShapeGroup"></path>
            <path d="M693.54,131.99 L703.47,128.35 L692.8,163.06 L690.57,162.82 L693.54,131.99 L693.54,131.99 Z" id="Shape" fill="#E6E7E8" sketch:type="MSShapeGroup"></path>
            <path d="M689.56,169.18 L697.37,167.59 L698.1,160.26 L690.08,157.2 L685.33,163.37 L689.56,169.18 L689.56,169.18 Z" id="Shape" fill="#FFFFFF" sketch:type="MSShapeGroup"></path>
            <rect id="Rectangle-path" fill="#F6AE00" sketch:type="MSShapeGroup" transform="translate(910.288706, 144.904936) rotate(-27.750000) translate(-910.288706, -144.904936) " x="890.018706" y="129.434936" width="40.54" height="30.94"></rect>
            <rect id="Rectangle-path" fill="#FDD835" sketch:type="MSShapeGroup" transform="translate(900.641533, 126.571868) rotate(-27.750000) translate(-900.641533, -126.571868) " x="878.091533" y="121.326868" width="45.1" height="10.49"></rect>
            <rect id="Rectangle-path" fill="#E6E7E8" sketch:type="MSShapeGroup" transform="translate(910.370650, 144.861110) rotate(-27.750000) translate(-910.370650, -144.861110) " x="906.00565" y="129.39111" width="8.73" height="30.94"></rect>
            <rect id="Rectangle-path" fill="#FFFFFF" sketch:type="MSShapeGroup" transform="translate(900.732327, 126.523385) rotate(-27.750000) translate(-900.732327, -126.523385) " x="896.367327" y="121.278385" width="8.73" height="10.49"></rect>
            <path d="M885.76,121.39 L882.84,124.76 L897.14,123.64 L898.95,121.63 L885.76,121.39 L885.76,121.39 Z" id="Shape" fill="#BE0000" sketch:type="MSShapeGroup"></path>
            <path d="M904.23,111.64 L908.66,111.13 L899.67,122.3 L896.99,122.67 L904.23,111.64 L904.23,111.64 Z" id="Shape" fill="#BE0000" sketch:type="MSShapeGroup"></path>
            <path d="M883.64,117.29 L896.94,122.67 L897.42,121.92 L886.03,111.42 L883.64,117.29 L883.64,117.29 Z" id="Shape" fill="#FFFFFF" sketch:type="MSShapeGroup"></path>
            <path d="M911.11,114.21 L899.03,121.96 L898.42,121.31 L907.67,108.88 L911.11,114.21 L911.11,114.21 Z" id="Shape" fill="#FFFFFF" sketch:type="MSShapeGroup"></path>
            <path d="M901.76,107.73 L898.71,121.74 L897.81,121.72 L895.57,106.39 L901.76,107.73 L901.76,107.73 Z" id="Shape" fill="#FFFFFF" sketch:type="MSShapeGroup"></path>
            <path d="M883.72,128.66 L896.93,123.06 L896.74,122.19 L881.26,122.82 L883.72,128.66 L883.72,128.66 Z" id="Shape" fill="#FFFFFF" sketch:type="MSShapeGroup"></path>
            <path d="M883.84,119.12 L881.26,122.82 L896.74,122.19 L896.89,121.24 L883.84,119.12 L883.84,119.12 Z" id="Shape" fill="#E6E7E8" sketch:type="MSShapeGroup"></path>
            <path d="M890.48,110.63 L886.03,111.42 L897.42,121.92 L898.2,121.36 L890.48,110.63 L890.48,110.63 Z" id="Shape" fill="#E6E7E8" sketch:type="MSShapeGroup"></path>
            <path d="M903.16,108.92 L907.67,108.88 L898.42,121.31 L897.55,120.89 L903.16,108.92 L903.16,108.92 Z" id="Shape" fill="#E6E7E8" sketch:type="MSShapeGroup"></path>
            <path d="M892.41,109.61 L895.57,106.39 L897.81,121.72 L896.91,122.04 L892.41,109.61 L892.41,109.61 Z" id="Shape" fill="#E6E7E8" sketch:type="MSShapeGroup"></path>
            <path d="M897.68,124.67 L900.4,122.63 L899.34,119.67 L895.69,119.96 L894.99,123.2 L897.68,124.67 L897.68,124.67 Z" id="Shape" fill="#FFFFFF" sketch:type="MSShapeGroup"></path>
            <rect id="Rectangle-path" fill="#FF5200" sketch:type="MSShapeGroup" transform="translate(449.814256, 194.058450) rotate(-13.060000) translate(-449.814256, -194.058450) " x="413.189256" y="166.10845" width="73.25" height="55.9"></rect>
            <rect id="Rectangle-path" fill="#AC3700" sketch:type="MSShapeGroup" transform="translate(441.351558, 157.604114) rotate(-13.060000) translate(-441.351558, -157.604114) " x="400.611558" y="148.124114" width="81.48" height="18.96"></rect>
            <rect id="Rectangle-path" fill="#E6E7E8" sketch:type="MSShapeGroup" transform="translate(450.000561, 194.018809) rotate(-13.060000) translate(-450.000561, -194.018809) " x="442.115561" y="166.068809" width="15.77" height="55.9"></rect>
            <rect id="Rectangle-path" fill="#FFFFFF" sketch:type="MSShapeGroup" transform="translate(441.540475, 157.553602) rotate(-13.060000) translate(-441.540475, -157.553602) " x="433.655475" y="148.073602" width="15.77" height="18.96"></rect>
            <path d="M414.27,133.54 L407.22,140.15 L437.75,147.19 L438.55,145.22 L414.27,133.54 L414.27,133.54 Z" id="Shape" fill="#FFFFFF" sketch:type="MSShapeGroup"></path>
            <path d="M408.83,154.13 L437.65,149.18 L437.75,147.19 L407.22,140.15 L408.83,154.13 L408.83,154.13 Z" id="Shape" fill="#E6E7E8" sketch:type="MSShapeGroup"></path>
            <path d="M455.17,124.1 L464.4,126.95 L440.05,146.66 L438.46,145.24 L455.17,124.1 L455.17,124.1 Z" id="Shape" fill="#FFFFFF" sketch:type="MSShapeGroup"></path>
            <path d="M469.08,140.22 L441.01,148.41 L440.05,146.66 L464.4,126.95 L469.08,140.22 L469.08,140.22 Z" id="Shape" fill="#E6E7E8" sketch:type="MSShapeGroup"></path>
            <path d="M437.51,151.75 L443.88,149.17 L443.34,142.84 L436.06,141.52 L433.01,147.5 L437.51,151.75 L437.51,151.75 Z" id="Shape" fill="#FFFFFF" sketch:type="MSShapeGroup"></path>
            <rect id="Rectangle-path" fill="#F6AE00" sketch:type="MSShapeGroup" transform="translate(597.506632, 200.400203) rotate(-26.240000) translate(-597.506632, -200.400203) " x="574.431632" y="182.790203" width="46.15" height="35.22"></rect>
            <rect id="Rectangle-path" fill="#FDD835" sketch:type="MSShapeGroup" transform="translate(587.084834, 179.248940) rotate(-26.240000) translate(-587.084834, -179.248940) " x="561.414834" y="173.27894" width="51.34" height="11.94"></rect>
            <rect id="Rectangle-path" fill="#E6E7E8" sketch:type="MSShapeGroup" transform="translate(597.627675, 200.344510) rotate(-26.240000) translate(-597.627675, -200.344510) " x="592.657675" y="182.73451" width="9.94" height="35.22"></rect>
            <rect id="Rectangle-path" fill="#FFFFFF" sketch:type="MSShapeGroup" transform="translate(587.186971, 179.186488) rotate(-26.240000) translate(-587.186971, -179.186488) " x="582.216971" y="173.216488" width="9.94" height="11.94"></rect>
            <path d="M570.31,172.93 L566.89,176.67 L583.19,175.83 L585.32,173.6 L570.31,172.93 L570.31,172.93 Z" id="Shape" fill="#BE0000" sketch:type="MSShapeGroup"></path>
            <path d="M591.63,162.39 L596.68,161.95 L586.11,174.38 L583.05,174.72 L591.63,162.39 L591.63,162.39 Z" id="Shape" fill="#BE0000" sketch:type="MSShapeGroup"></path>
            <path d="M568.03,168.2 L583,174.73 L583.57,173.89 L570.93,161.59 L568.03,168.2 L568.03,168.2 Z" id="Shape" fill="#FFFFFF" sketch:type="MSShapeGroup"></path>
            <path d="M599.37,165.52 L585.4,173.97 L584.72,173.22 L595.63,159.35 L599.37,165.52 L599.37,165.52 Z" id="Shape" fill="#FFFFFF" sketch:type="MSShapeGroup"></path>
            <path d="M588.94,157.86 L585.03,173.72 L584.02,173.67 L581.93,156.15 L588.94,157.86 L588.94,157.86 Z" id="Shape" fill="#FFFFFF" sketch:type="MSShapeGroup"></path>
            <path d="M567.78,181.14 L582.98,175.17 L582.79,174.17 L565.15,174.42 L567.78,181.14 L567.78,181.14 Z" id="Shape" fill="#FFFFFF" sketch:type="MSShapeGroup"></path>
            <path d="M568.2,170.29 L565.15,174.42 L582.79,174.17 L582.98,173.1 L568.2,170.29 L568.2,170.29 Z" id="Shape" fill="#E6E7E8" sketch:type="MSShapeGroup"></path>
            <path d="M576,160.82 L570.93,161.59 L583.57,173.89 L584.47,173.26 L576,160.82 L576,160.82 Z" id="Shape" fill="#E6E7E8" sketch:type="MSShapeGroup"></path>
            <path d="M590.49,159.26 L595.63,159.35 L584.72,173.22 L583.75,172.72 L590.49,159.26 L590.49,159.26 Z" id="Shape" fill="#E6E7E8" sketch:type="MSShapeGroup"></path>
            <path d="M578.23,159.72 L581.93,156.15 L584.02,173.67 L582.98,174 L578.23,159.72 L578.23,159.72 Z" id="Shape" fill="#E6E7E8" sketch:type="MSShapeGroup"></path>
            <path d="M583.78,177.02 L586.94,174.78 L585.82,171.38 L581.66,171.6 L580.76,175.27 L583.78,177.02 L583.78,177.02 Z" id="Shape" fill="#FFFFFF" sketch:type="MSShapeGroup"></path>
            <rect id="Rectangle-path" fill="#510959" sketch:type="MSShapeGroup" transform="translate(1006.130894, 99.055230) rotate(-12.310000) translate(-1006.130894, -99.055230) " x="976.690894" y="76.5852304" width="58.88" height="44.94"></rect>
            <rect id="Rectangle-path" fill="#A112B2" sketch:type="MSShapeGroup" transform="translate(999.720163, 69.647802) rotate(-12.310000) translate(-999.720163, -69.647802) " x="966.970163" y="62.0278019" width="65.5" height="15.24"></rect>
            <rect id="Rectangle-path" fill="#E6E7E8" sketch:type="MSShapeGroup" transform="translate(1006.281049, 99.023940) rotate(-12.310000) translate(-1006.281049, -99.023940) " x="999.941049" y="76.55394" width="12.68" height="44.94"></rect>
            <rect id="Rectangle-path" fill="#FFFFFF" sketch:type="MSShapeGroup" transform="translate(999.870319, 69.626512) rotate(-12.310000) translate(-999.870319, -69.626512) " x="993.530319" y="62.0065115" width="12.68" height="15.24"></rect>
            <path d="M972.3,61.43 L973.96,69.14 L981.92,72.83 L978.04,54.8 L972.3,61.43 L972.3,61.43 Z" id="Shape" fill="#E6E7E8" sketch:type="MSShapeGroup"></path>
            <path d="M973.96,69.14 L981.92,72.83 L997.07,61.23 L996.79,59.92 L973.96,69.14 L973.96,69.14 Z" id="Shape" fill="#FFFFFF" sketch:type="MSShapeGroup"></path>
            <path d="M972.3,61.43 L978.04,54.8 L996.62,59.14 L996.9,60.45 L972.3,61.43 L972.3,61.43 Z" id="Shape" fill="#FFFFFF" sketch:type="MSShapeGroup"></path>
            <path d="M984.34,39.96 L978.36,45.11 L978.92,53.86 L992.9,41.83 L984.34,39.96 L984.34,39.96 Z" id="Shape" fill="#E6E7E8" sketch:type="MSShapeGroup"></path>
            <path d="M978.36,45.11 L978.92,53.86 L996.36,61.62 L997.37,60.75 L978.36,45.11 L978.36,45.11 Z" id="Shape" fill="#FFFFFF" sketch:type="MSShapeGroup"></path>
            <path d="M984.34,39.96 L992.9,41.83 L997.98,60.23 L996.96,61.1 L984.34,39.96 L984.34,39.96 Z" id="Shape" fill="#FFFFFF" sketch:type="MSShapeGroup"></path>
            <path d="M1001.01,36.38 L1008.58,38.61 L1011.66,46.82 L993.97,41.6 L1001.01,36.38 L1001.01,36.38 Z" id="Shape" fill="#E6E7E8" sketch:type="MSShapeGroup"></path>
            <path d="M1008.58,38.61 L1011.66,46.82 L998.96,61.06 L997.67,60.68 L1008.58,38.61 L1008.58,38.61 Z" id="Shape" fill="#FFFFFF" sketch:type="MSShapeGroup"></path>
            <path d="M1001.01,36.38 L993.97,41.6 L996.91,60.46 L998.2,60.84 L1001.01,36.38 L1001.01,36.38 Z" id="Shape" fill="#FFFFFF" sketch:type="MSShapeGroup"></path>
            <path d="M1020.47,51.07 L1022.13,58.79 L1016.39,65.42 L1012.52,47.39 L1020.47,51.07 L1020.47,51.07 Z" id="Shape" fill="#E6E7E8" sketch:type="MSShapeGroup"></path>
            <path d="M1022.13,58.79 L1016.39,65.42 L997.81,61.07 L997.53,59.76 L1022.13,58.79 L1022.13,58.79 Z" id="Shape" fill="#FFFFFF" sketch:type="MSShapeGroup"></path>
            <path d="M1020.47,51.07 L1012.52,47.39 L997.36,58.98 L997.64,60.29 L1020.47,51.07 L1020.47,51.07 Z" id="Shape" fill="#FFFFFF" sketch:type="MSShapeGroup"></path>
            <path d="M996.19,63.84 L1000.46,62.18 L1000.15,57.96 L995.32,57.01 L993.23,60.96 L996.19,63.84 L996.19,63.84 Z" id="Shape" fill="#E6E7E8" sketch:type="MSShapeGroup"></path>
            <rect id="Rectangle-path" fill="#2B940D" sketch:type="MSShapeGroup" transform="translate(1047.748424, 78.671934) rotate(6.600000) translate(-1047.748424, -78.671934) " x="1020.13342" y="57.5969344" width="55.23" height="42.15"></rect>
            <rect id="Rectangle-path" fill="#346128" sketch:type="MSShapeGroup" transform="translate(1050.988640, 50.640092) rotate(6.600000) translate(-1050.988640, -50.640092) " x="1020.27364" y="43.4950922" width="61.43" height="14.29"></rect>
            <rect id="Rectangle-path" fill="#E6E7E8" sketch:type="MSShapeGroup" transform="translate(1047.885197, 78.687893) rotate(6.600000) translate(-1047.885197, -78.687893) " x="1041.9402" y="57.6128931" width="11.89" height="42.15"></rect>
            <rect id="Rectangle-path" fill="#FFFFFF" sketch:type="MSShapeGroup" transform="translate(1051.126563, 50.656117) rotate(6.600000) translate(-1051.126563, -50.656117) " x="1045.18156" y="43.5111171" width="11.89" height="14.29"></rect>
            <path d="M1033.17,28.74 L1024.9,30.92 L1048.75,44.62 L1053.8,43.4 L1033.17,28.74 L1033.17,28.74 Z" id="Shape" fill="#BE0000" sketch:type="MSShapeGroup"></path>
            <path d="M1072.97,33.3 L1080.53,37.29 L1054.2,45.24 L1049.56,42.92 L1072.97,33.3 L1072.97,33.3 Z" id="Shape" fill="#BE0000" sketch:type="MSShapeGroup"></path>
            <path d="M1034.25,19.96 L1049.48,42.88 L1051.06,42.22 L1044.39,13.25 L1034.25,19.96 L1034.25,19.96 Z" id="Shape" fill="#FFFFFF" sketch:type="MSShapeGroup"></path>
            <path d="M1081.07,44.81 L1053.56,44.01 L1053.3,42.32 L1081.41,32.66 L1081.07,44.81 L1081.07,44.81 Z" id="Shape" fill="#FFFFFF" sketch:type="MSShapeGroup"></path>
            <path d="M1073.3,24.43 L1053.28,43.32 L1051.89,42.31 L1064.93,15.61 L1073.3,24.43 L1073.3,24.43 Z" id="Shape" fill="#FFFFFF" sketch:type="MSShapeGroup"></path>
            <path d="M1022.07,38.05 L1049.05,43.49 L1049.69,41.9 L1024.49,26.14 L1022.07,38.05 L1022.07,38.05 Z" id="Shape" fill="#FFFFFF" sketch:type="MSShapeGroup"></path>
            <path d="M1032.58,23.07 L1024.49,26.14 L1049.69,41.9 L1050.94,40.56 L1032.58,23.07 L1032.58,23.07 Z" id="Shape" fill="#E6E7E8" sketch:type="MSShapeGroup"></path>
            <path d="M1052.28,16.8 L1044.39,13.25 L1051.06,42.22 L1052.89,42.15 L1052.28,16.8 L1052.28,16.8 Z" id="Shape" fill="#E6E7E8" sketch:type="MSShapeGroup"></path>
            <path d="M1074.22,27.84 L1081.41,32.66 L1053.3,42.32 L1052.38,40.72 L1074.22,27.84 L1074.22,27.84 Z" id="Shape" fill="#E6E7E8" sketch:type="MSShapeGroup"></path>
            <path d="M1056.45,17.28 L1064.93,15.61 L1051.89,42.31 L1050.12,41.83 L1056.45,17.28 L1056.45,17.28 Z" id="Shape" fill="#E6E7E8" sketch:type="MSShapeGroup"></path>
            <path d="M1048.49,46.84 L1055.01,46.56 L1056.53,40.72 L1050.44,37.23 L1045.82,41.61 L1048.49,46.84 L1048.49,46.84 Z" id="Shape" fill="#FFFFFF" sketch:type="MSShapeGroup"></path>
            <path d="M1068.64,119.48 L1019.58,129.23 L1013.74,93.99 L1062.8,84.24 L1068.64,119.48 L1068.64,119.48 Z" id="Shape" fill="#20A0E9" sketch:type="MSShapeGroup"></path>
            <path d="M1065.56,83.69 L1010.98,94.54 L1009,82.59 L1063.58,71.74 L1065.56,83.69 L1065.56,83.69 Z" id="Shape" fill="#1E3D55" sketch:type="MSShapeGroup"></path>
            <path d="M1049.52,123.28 L1038.95,125.38 L1033.12,90.14 L1043.68,88.04 L1049.52,123.28 L1049.52,123.28 Z" id="Shape" fill="#E6E7E8" sketch:type="MSShapeGroup"></path>
            <path d="M1041.7,76.09 L1031.14,78.19 L1033.12,90.14 L1043.68,88.04 L1041.7,76.09 L1041.7,76.09 Z" id="Shape" fill="#FFFFFF" sketch:type="MSShapeGroup"></path>
            <path d="M1019.2,66.81 L1013.24,71.69 L1036.99,77.46 L1037.74,75.98 L1019.2,66.81 L1019.2,66.81 Z" id="Shape" fill="#FFFFFF" sketch:type="MSShapeGroup"></path>
            <path d="M1013.71,82.25 L1036.79,78.95 L1036.99,77.46 L1013.24,71.69 L1013.71,82.25 L1013.71,82.25 Z" id="Shape" fill="#E6E7E8" sketch:type="MSShapeGroup"></path>
            <path d="M1052.12,60.3 L1059.26,62.59 L1038.84,77.09 L1037.67,75.99 L1052.12,60.3 L1052.12,60.3 Z" id="Shape" fill="#FFFFFF" sketch:type="MSShapeGroup"></path>
            <path d="M1062.19,72.67 L1039.51,78.42 L1038.84,77.09 L1059.26,62.59 L1062.19,72.67 L1062.19,72.67 Z" id="Shape" fill="#E6E7E8" sketch:type="MSShapeGroup"></path>
            <path d="M1036.54,80.89 L1041.73,79.04 L1041.67,74.26 L1035.98,73.16 L1033.23,77.62 L1036.54,80.89 L1036.54,80.89 Z" id="Shape" fill="#FFFFFF" sketch:type="MSShapeGroup"></path>
            <rect id="Rectangle-path" fill="#DD0559" sketch:type="MSShapeGroup" transform="translate(1086.443391, 98.195270) rotate(24.790000) translate(-1086.443391, -98.195270) " x="1061.40339" y="79.0852696" width="50.08" height="38.22"></rect>
            <rect id="Rectangle-path" fill="#A60443" sketch:type="MSShapeGroup" transform="translate(1097.174474, 74.953744) rotate(24.790000) translate(-1097.174474, -74.953744) " x="1069.31947" y="68.4737443" width="55.71" height="12.96"></rect>
            <rect id="Rectangle-path" fill="#E6E7E8" sketch:type="MSShapeGroup" transform="translate(1086.561368, 98.250977) rotate(24.790000) translate(-1086.561368, -98.250977) " x="1081.17137" y="79.1409774" width="10.78" height="38.22"></rect>
            <rect id="Rectangle-path" fill="#FFFFFF" sketch:type="MSShapeGroup" transform="translate(1097.292797, 75.020627) rotate(24.790000) translate(-1097.292797, -75.020627) " x="1091.9028" y="68.540627" width="10.78" height="12.96"></rect>
            <path d="M1092.65,50.59 L1086.07,51.2 L1099.6,67.81 L1100.86,67.08 L1092.65,50.59 L1092.65,50.59 Z" id="Shape" fill="#FFFFFF" sketch:type="MSShapeGroup"></path>
            <path d="M1081.08,59.42 L1098.71,68.84 L1099.6,67.81 L1086.07,51.2 L1081.08,59.42 L1081.08,59.42 Z" id="Shape" fill="#E6E7E8" sketch:type="MSShapeGroup"></path>
            <path d="M1118.69,62.65 L1122.48,68.06 L1101.06,68.49 L1100.81,67.06 L1118.69,62.65 L1118.69,62.65 Z" id="Shape" fill="#FFFFFF" sketch:type="MSShapeGroup"></path>
            <path d="M1119.44,77.19 L1100.85,69.83 L1101.06,68.49 L1122.48,68.06 L1119.44,77.19 L1119.44,77.19 Z" id="Shape" fill="#E6E7E8" sketch:type="MSShapeGroup"></path>
            <path d="M1097.56,70.17 L1102.08,71.45 L1104.44,67.81 L1101.07,64.04 L1096.92,65.99 L1097.56,70.17 L1097.56,70.17 Z" id="Shape" fill="#FFFFFF" sketch:type="MSShapeGroup"></path>
            <path d="M1256.8,155.97 L1256.8,155.97 C1256.85,155.25 1256.88,154.53 1256.88,153.8 L1256.88,153.33 C1256.88,153.17 1256.88,153.33 1256.88,153.26 L1256.88,153.16 C1256.59046,137.567548 1244.62817,124.683759 1229.1,123.24 C1228.81,119.52 1230.62,115.31 1233.61,107.47 C1224.04,99.97 1206.43,93.87 1193.61,93.87 C1161.83,93.87 1141.82,123.93 1141.82,153.19 C1141.82,182.45 1167.57,201.24 1199.35,201.24 C1229.71,201.24 1254.56,184.06 1256.72,157 C1256.75,156.69 1256.78,156.33 1256.8,155.97 L1256.8,155.97 Z" id="Shape" fill="#BE0000" sketch:type="MSShapeGroup"></path>
            <path d="M1223.21,129.74 C1238.76,129.74 1250.21,139.14 1252.21,156.62 C1253.21,164.62 1247.21,182.74 1230.86,193.62 C1253.93,181.62 1256.86,161.28 1256.86,153.52 C1256.86,136.603518 1243.14648,122.89 1226.23,122.89 C1209.31352,122.89 1195.6,136.603518 1195.6,153.52 L1195.6,155.01 C1198.36,140.58 1209.67,129.74 1223.21,129.74 L1223.21,129.74 Z" id="Shape" fill="#CB0000" sketch:type="MSShapeGroup"></path>
            <path d="M1157.51,20.24 C1160.62,23.55 1171.9,14.24 1173.81,9.37 C1170.81,14.52 1158.08,22.05 1162.75,14.04 C1160.56,15.55 1155.7,18.29 1157.51,20.24 L1157.51,20.24 Z" id="Shape" fill="#AB0000" sketch:type="MSShapeGroup"></path>
            <path d="M1222.28,202.9 L1225.61,210.52 C1226.91733,207.449851 1229.34537,204.9932 1232.4,203.65 C1239.4,200.65 1248.51,203.08 1250.5,213.86 L1231.5,222.18 L1231.5,222.18 L1220.37,227.05 L1211.81,207.49 L1222.28,202.9 Z" id="Shape" fill="#BE0000" sketch:type="MSShapeGroup"></path>
            <rect id="Rectangle-path" fill="#AB0000" sketch:type="MSShapeGroup" transform="translate(1218.993217, 216.056512) rotate(-23.620000) translate(-1218.993217, -216.056512) " x="1215.84822" y="205.391512" width="6.29" height="21.33"></rect>
            <path d="M1159.05,198.24 L1153.29,204.24 C1156.64369,204.255242 1159.86421,205.554188 1162.29,207.87 C1167.78,213.13 1169.01,222.53 1159.81,228.5 L1144.81,214.14 L1144.81,214.14 L1136.04,205.73 L1150.79,190.24 L1159.05,198.24 Z" id="Shape" fill="#BE0000" sketch:type="MSShapeGroup"></path>
            <rect id="Rectangle-path" fill="#AB0000" sketch:type="MSShapeGroup" transform="translate(1145.602361, 200.213228) rotate(43.790000) translate(-1145.602361, -200.213228) " x="1142.45736" y="189.548228" width="6.29" height="21.33"></rect>
            <path d="M1150.71,176.35 C1132.65,222.65 1088.71,248.16 1039.78,239.74 C990.85,231.32 948.78,197.14 957.2,148.16 C959.61,134.16 967.74,115.09 976.28,104.24 C996.45,146.53 1085.78,78.74 1129.78,105.74 C1140.45,112.29 1166.84,139.2 1179.78,173.9 C1179.81,173.9 1157.78,158.24 1150.71,176.35 L1150.71,176.35 Z" id="Shape" fill="#AB0000" sketch:type="MSShapeGroup"></path>
            <ellipse id="Oval" fill="#FAE1CE" sketch:type="MSShapeGroup" cx="1183.49" cy="166.94" rx="8.77" ry="8.42"></ellipse>
            <path d="M1185.21,155.67 C1176.54,133.67 1178.6,106.61 1201.99,91.36 C1205.33,89.18 1181.81,88.66 1171.9,98.36 C1154.4,115.53 1155.47,139.11 1163.42,159.27 C1164.44115,161.928031 1165.90146,164.395686 1167.74,166.57 C1169.47,168.66 1187.52,161.52 1185.21,155.67 L1185.21,155.67 Z" id="Shape" fill="#AB0000" sketch:type="MSShapeGroup"></path>
            <path d="M1187.5,164.06 C1191.06,159.74 1186.08,153.51 1184.96,155.16 C1183.84,156.81 1179.88,165.58 1168.18,166.85 C1169.288,170.422641 1172.89072,172.604028 1176.57,171.93 C1180.86324,170.353221 1184.6431,167.631584 1187.5,164.06 L1187.5,164.06 Z" id="Shape" fill="#FFFFFF" sketch:type="MSShapeGroup"></path>
            <circle id="Oval" fill="#FAE1CE" sketch:type="MSShapeGroup" cx="1194.76" cy="72.21" r="28.96"></circle>
            <path d="M1171.81,75.6 C1171.81,60.16 1178.55,44.15 1193.81,43.3 L1192.16,43.3 C1176.79504,44.1569584 1164.77492,56.8661558 1164.77492,72.255 C1164.77492,87.6438442 1176.79504,100.353042 1192.16,101.21 C1195.3171,101.446752 1198.49181,101.190346 1201.57,100.45 C1186.28,99.55 1171.81,91.04 1171.81,75.6 L1171.81,75.6 Z" id="Shape" fill="#FDD4B5" sketch:type="MSShapeGroup"></path>
            <ellipse id="Oval" fill="#000000" sketch:type="MSShapeGroup" transform="translate(1210.565643, 68.164739) rotate(-6.230000) translate(-1210.565643, -68.164739) " cx="1210.56564" cy="68.1647393" rx="1.71" ry="4.83"></ellipse>
            <ellipse id="Oval" fill="#FAE1CE" sketch:type="MSShapeGroup" cx="1223.31" cy="70.32" rx="8.29" ry="7.82"></ellipse>
            <path d="M1217.11,71.16 C1217.11,66.84 1219.49,63.27 1224.11,63.27 C1226.19562,63.2597251 1228.21274,64.0139198 1229.78,65.39 C1228.15658,63.5418193 1225.80986,62.4907224 1223.35,62.51 C1218.9038,62.3866614 1215.19608,65.8841739 1215.06,70.33 C1215.07306,72.5204987 1216.03187,74.5985413 1217.69,76.03 C1216.48,74.68 1217.11,73.03 1217.11,71.16 L1217.11,71.16 Z" id="Shape" fill="#FDF0E6" sketch:type="MSShapeGroup"></path>
            <path d="M1163.61,58.24 C1169.52,68.15 1208.41,58.43 1211.84,42.24 C1211.84,42.24 1197.31,11.57 1183.23,3.6 C1175.23,-0.92 1175.29,0.49 1169.78,7.48 C1165.29,13.17 1157.78,15.93 1155.22,19.93 C1152.66,23.93 1161.51,47.93 1151.98,61.87 C1165.52,54.44 1168.86,35.77 1164.98,32.87 C1156.36,26.61 1174.09,40.53 1163.61,58.24 L1163.61,58.24 Z" id="Shape" fill="#BE0000" sketch:type="MSShapeGroup"></path>
            <path d="M1240.12,96.45 C1240.12,88.73 1234.81,80.45 1228.43,76.62 C1225.31,74.74 1218.7,85.83 1215.28,87.42 C1209.94,89.9 1200.82,86.87 1200.82,86.87 C1197.19945,90.150816 1194.9051,94.6434771 1194.37,99.5 C1193.17,110.93 1199.72,126.12 1221.47,124.79 C1227.29428,124.583364 1233.12578,124.837489 1238.91,125.55 C1236.79753,124.557226 1235.73953,122.15966 1236.43,119.93 C1237.48,115.83 1240.12,103.02 1240.12,96.45 L1240.12,96.45 Z" id="Shape" fill="#FFFFFF" sketch:type="MSShapeGroup"></path>
            <path d="M1199.07,104.01 C1199.07,97.24 1203.85,89.68 1204.66,88.1 C1201.66,87.65 1200.81,86.87 1200.81,86.87 C1200.81,86.87 1194.4,91.14 1194.02,103.15 C1193.61,116.15 1206.7,125.93 1218.42,124.79 C1219.04,124.73 1220.35,124.79 1220.99,124.79 C1208.51,122.84 1199.07,114.09 1199.07,104.01 L1199.07,104.01 Z" id="Shape" fill="#E6E6E6" sketch:type="MSShapeGroup"></path>
            <path d="M1179.97,5.63 C1191.65,12.95 1202.82,41.63 1206.97,49.63 C1209.16,48.07 1211.55,44.48 1211.55,41.63 C1211.55,41.63 1197.03,12.09 1183.23,3.63 C1170.23,-4.37 1174,9.76 1170.66,12.91 C1174.47,10.69 1175.43,2.78 1179.97,5.63 L1179.97,5.63 Z" id="Shape" fill="#CB0000" sketch:type="MSShapeGroup"></path>
            <path d="M1228.68,81.45 C1230.39,74.51 1224.93,68.36 1218.99,68.36 C1208.75,68.36 1208.85,82.72 1193.48,79.16 C1197.8,94.79 1224.87,96.96 1228.68,81.45 L1228.68,81.45 Z" id="Shape" fill="#FFFFFF" sketch:type="MSShapeGroup"></path>
            <path d="M1228.68,80.69 C1225.33,93.34 1198.57,94.07 1193.54,79.2 C1193.45,79.2 1193.54,79.2 1193.48,79.2 C1197.8,94.83 1224.87,96.99 1228.68,81.49 C1228.9176,80.5086692 1229.01523,79.4986705 1228.97,78.49 C1228.95592,79.2318713 1228.85864,79.9698204 1228.68,80.69 L1228.68,80.69 Z" id="Shape" fill="#E6E6E6" sketch:type="MSShapeGroup"></path>
            <path d="M1215.18,49.49 C1215.37,46.82 1215.47,43.96 1211.46,41.1 C1211.8,46.72 1203.9,54.44 1191.63,58.83 C1178.63,63.46 1166.1,63.38 1163.63,58.07 C1160.58,57.31 1159.82,65.7 1163.63,67.54 C1165.88,69.41 1180.63,71.54 1193.2,67.08 C1204.16,63.16 1214.86,53.9 1215.18,49.49 L1215.18,49.49 Z" id="Shape" fill="#FFFFFF" sketch:type="MSShapeGroup"></path>
            <circle id="Oval" fill="#FFFFFF" sketch:type="MSShapeGroup" cx="1150.04" cy="65.55" r="6.86"></circle>
            <path d="M1145.46,65.55 C1145.46225,62.2029933 1147.87953,59.3462075 1151.18,58.79 C1148.48744,58.3251561 1145.77576,59.5025388 1144.27701,61.7872066 C1142.77827,64.0718743 1142.77827,67.0281257 1144.27701,69.3127934 C1145.77576,71.5974612 1148.48744,72.7748439 1151.18,72.31 C1147.87953,71.7537925 1145.46225,68.8970067 1145.46,65.55 L1145.46,65.55 Z" id="Shape" fill="#E6E6E6" sketch:type="MSShapeGroup"></path>
        </g>
    </g>
</svg>