<?xml version="1.0" encoding="utf-8"?>
<!-- Generator: Adobe Illustrator 19.1.0, SVG Export Plug-In . SVG Version: 6.00 Build 0)  -->
<!DOCTYPE svg PUBLIC "-//W3C//DTD SVG 1.1//EN" "http://www.w3.org/Graphics/SVG/1.1/DTD/svg11.dtd">
<svg version="1.1" id="Layer_1" xmlns="http://www.w3.org/2000/svg" xmlns:xlink="http://www.w3.org/1999/xlink" x="0px" y="0px"
	 viewBox="0 0 1029 2163" enable-background="new 0 0 1029 2163" xml:space="preserve">
<path fill="none" stroke="#FFFFFF" stroke-width="4" stroke-miterlimit="10" d="M648,1647c0,0,65.3,0,108,0c27.5,0,26.8-9.1,27-36
	c0,0-0.1-262.9,0-270c-0.7-36-36-36-36-36H306h-27l5.5-35.9c0.2-1.5,1.4-2.6,3-2.6h5c1.7,0,3.2-1.4,3.2-3.1v-7.3
	c0-1.7-1.4-3.1-3.2-3.1h-33.3c-1.4,0-2.5-1.1-2.5-2.4v-29.5c1.8,0.2,4.5,0.4,7.5,0.4c0,0,0,0,0,0c7.4,0,18.1-1.2,27.1-7.2
	c15.8-10.4,19.8-30.9,19.9-31.8l0.5-2.4l-2.5-0.5c-0.2,0-4.5-0.9-10.6-0.9c-7.4,0-18.1,1.2-27.1,7.2c-7.1,4.7-11.7,11.3-14.8,17.4
	v-32.2c1.9,0.2,4.4,0.4,7.5,0.4c7.4,0,18.1-1.3,27.1-7.2c15.8-10.4,19.8-30.9,19.9-31.8l0.5-2.4l-2.5-0.5c-0.2,0-4.5-0.9-10.6-0.9
	c-7.4,0-18.1,1.2-27.1,7.2c-7.1,4.7-11.7,11.3-14.8,17.3v-36.9c9.1-1.3,15.9-9.1,15.4-18.4c-0.5-8.8-7.8-16-16.9-16.5
	c-10.5-0.6-19.2,7.5-19.2,17.6c0,8.8,6.7,16.2,15.4,17.4v36.9c-3-6-7.8-12.7-14.8-17.4c-8.9-5.9-19.7-7.2-27.1-7.2
	c-6.1,0-10.4,0.8-10.6,0.9l-2.5,0.5l0.5,2.4c0.2,0.9,4.2,21.4,19.9,31.8c8.9,5.9,19.7,7.2,27.1,7.2c3,0,5.6-0.2,7.5-0.4v32.2
	c-3-6-7.8-12.7-14.8-17.4c-8.9-5.9-19.7-7.2-27.1-7.2c-6.1,0-10.4,0.8-10.6,0.8l-2.5,0.5l0.5,2.5c0.2,0.9,4.2,21.3,19.9,31.8
	c8.9,5.9,19.7,7.2,27.1,7.2c3,0,5.6-0.2,7.5-0.4v29.5c0,1.4-1.1,2.4-2.5,2.4h-33.3c-1.7,0-3.2,1.4-3.2,3.1v7.3
	c0,1.7,1.4,3.1,3.2,3.1h5c1.5,0,2.8,1.1,3,2.6l1.5,35.9h-54c-26.9,0-36.2-18.1-36.1-35.8v-180c-0.1-33.8,27.1-36.2,27.1-36.2h414
	c25.8-0.2,27-17.9,27-27c0-0.1,0-78.8,0-78.8l-30.5,0.1v-7.7h55.7V933h-55.5v-7.2h14h41.5v-6.6h-15.4v-67.7h9.9
	c9.1,0,16.6-7.4,16.6-16.4c0-9-7.4-16.4-16.6-16.4c-9.1,0-16.6,7.4-16.6,16.4v9.8h-11.6v-9.8c0-9-7.4-16.4-16.6-16.4
	c-9.1,0-16.6,7.4-16.6,16.4c0,9,7.4,16.4,16.6,16.4h9.9v67.7h-15.3v-8v-19.6c-22.2-10.3-37.5-32.6-37.5-58.4
	c0-35.6,29.3-64.5,65.3-64.5c36,0,65.3,28.9,65.3,64.5c0,25.8-13.4,47.5-35.6,57.8v18h27h54c17.7,0.2,27.2-10.8,27-27
	c-0.2,0.2,0-144,0-144c-0.2-11.3-9.2-27.2-27-27H252c-18.2,0-27.1-9.1-27-27v-54c0,0,51.7-70.4,62.7-89.2
	c6.3-10.8,12.3-21.8,15.2-34c5.9-25.1-3.7-53.2-23.8-69.4c-1.9-1.5-3.8-2.9-6-4.1c-3.9-2.1-8.3-3.3-12.7-4.1
	c-21.7-3.9-44.6,1.7-63.4,13.1s-34,28.4-45.4,47.3c-11.7,19.3-19.8,43.2-11.5,64.2c3.2,8,8.5,15,14.4,21.3
	c16,17.3,36.4,30.6,58.7,38.3c12.6,4.3,26.7,6.9,39,1.7c13.3-5.6,21.4-18.9,27.8-31.7c5.5-11,10.3-22.4,14.4-34
	c5.9-16.5,10-36.1,0.3-50.7c-9.4-14.2-28.4-18.4-45.5-18.7c-19.2-0.4-39.3,2.8-54.5,14.4c-19.8,15.2-27.4,42.2-26.4,67.1
	c0.4,9.4,1.9,19.2,7.3,26.9c6.9,10,19.9,15.2,31.8,12.9c9.8-2,18.2-8.6,24.1-16.6c5.9-8.1,9.6-17.5,12.7-27
	c2.8-8.2,5.2-16.6,5.7-25.3c0.8-15.2-4.6-30.3-12.9-43.2c-6.8-10.5-15.8-20.1-27.3-25c-11.5-4.9-25.8-4.5-35.7,3.2
	c-5.5,4.3-9.2,10.4-12.5,16.5c-5.1,9.5-9.4,19.3-12.8,29.5c-2.6,7.7-4.7,15.8-4,23.9c0.7,8.1,4.8,16.3,12,20.1
	c6,3.2,13.4,2.9,19.9,0.9c16.9-5.2,28.5-20.3,37.5-35.5c6.4-10.6,12.1-21.8,15.3-33.8c2.3-8.6,3.1-18.1-0.9-26.1
	c-4.3-8.6-13.4-13.7-22.4-17c-9.9-3.7-20.3-5.9-30.9-6.6c-10.3-0.7-21.9,0.7-28.6,8.6c-5.8,6.9-6.2,16.7-6.1,25.7
	c0.1,10.4,0.8,21.4,7,29.7c5.6,0.4,9.4-5.3,12.6-9.9c12.2-17.5,32.8-27.6,53.6-32.3c9.3-2.1,19-3.2,28.2-0.9
	c11.8,2.9,21.7,11.2,29.2,20.8c3.9,5,7.3,10.6,8.7,16.8c1.4,6.2,0.6,13.1-3.2,18.2c-4.4,5.8-12,8.3-19.2,8.5
	c-7.2,0.1-14.4-1.7-21.4-3.2c-10.3-2.1-20.8-3.4-31.3-3.7c-6.5-0.2-13.5,0-19,3.5c-5.6,3.6-8.8,9.9-11,16.2
	c-1.9,5.3-3.2,11-2.4,16.6c1.6,10.7,10.7,18.8,20.3,23.9c11.8,6.2,25.3,9.3,38.7,8.8c6.4-0.2,13.3-1.6,17.4-6.5c2.2-2.6,3.3-6,4-9.3
	c2.8-13,0.7-27.9,9-38.3c6.9-8.6,19.4-11.2,30.2-9c10.1,2.1,19.6,7.9,25.3,16.5c5.8,8.6,7.6,19.8,4.2,29.6c-1.1,3.3-2.9,6.4-5.4,8.8
	c-6.3,6-16.1,6.1-24.7,4.7c-16.7-2.6-32.4-9.2-48.4-14.4s-33.2-9-49.7-5.8c-11.1,2.2-44.8,25.3-49.3,33.2
	c-4.4,7.9-6.2,17.6-3.1,26.1c3.1,8.5,11.7,15.1,20.7,14.5c6.3-0.4,11.9-4.2,16.1-8.9c4.1-4.7,6.9-10.4,9.7-16.1
	c6.6-13.5,13.2-27,19.9-40.4c5.6-11.3,11.2-24.8,5.5-36.1c-3-5.9-8.5-9.9-14.1-13.4c-17.2-10.5-37.3-17.4-57.4-15.4
	c-6.6,0.6-13.9,2.8-17,8.6c-1.8,3.4-1.8,7.5-1.4,11.3c0.9,7.9,3.7,16,10,20.8c7.1,5.3,16.9,5.1,25.7,3.7
	c14.1-2.3,27.8-7.1,40.3-14.1c4.6-2.6,9-5.5,12.6-9.4c4.7-5.2,7.5-11.8,9.8-18.4c4.8-13.9,7.9-28.4,9-43c0.6-8.2,0.5-16.9-3.4-24
	s-13.1-12.1-20.7-8.9c-7.5,3.2-10.2,12.3-11.2,20.3c-2.4,18.4-0.4,37.6,7.4,54.5c7.8,16.9,21.7,31.2,39,37.9
	c4.9,1.9,10.1,3.2,15.3,2.5c8.7-1.1,16-7.8,19.8-15.7c3.8-7.9,4.4-17,4-25.7c-0.3-4.8-1.1-10-4.6-13.1c-2.9-2.5-6.9-3.1-10.6-3.4
	c-6.9-0.5-14.2-0.1-20.4,3.1c-6.8,3.5-11.6,9.9-15.4,16.6c-17.7,31.7-12.6,95-9.1,106.3c0,0.1,4.1,14.3,10.6,14.1
	c2.7-0.1,5-1.7,7-3.5c10.2-9.5,12.6-24.7,11.7-38.6c-1.5-23.8-8.9-47.9-15.2-66.6l34.2-2.5c0,0-9.8-51-9.7-79.5
	c0.1-33.7,40-34.1,40-34.1l324.5-0.4c45.5,0,42.5-34.5,42.5-34.5L665,268c0.7-24.5-8.4-34-26-34c-0.1,0-147.2,0-153,0"/>
</svg>
