<?xml version="1.0" encoding="utf-8"?>
<!-- Generator: Adobe Illustrator 19.1.0, SVG Export Plug-In . SVG Version: 6.00 Build 0)  -->
<!DOCTYPE svg PUBLIC "-//W3C//DTD SVG 1.1//EN" "http://www.w3.org/Graphics/SVG/1.1/DTD/svg11.dtd">
<svg version="1.1" xmlns="http://www.w3.org/2000/svg" xmlns:xlink="http://www.w3.org/1999/xlink" x="0px" y="0px"
	 viewBox="0 0 252 2479" enable-background="new 0 0 252 2479" xml:space="preserve">
<g id="Layer_1">
	<g id="Dash">
		<g>
			<g>
				<rect x="108.4" y="-3" fill="none" width="30" height="26"/>
			</g>
			<rect x="121.5" y="16.3" fill-rule="evenodd" clip-rule="evenodd" fill="#F36B3F" width="3" height="4.8"/>
			<rect x="121.5" y="7.6" fill-rule="evenodd" clip-rule="evenodd" fill="#F36B3F" width="3" height="4.8"/>
			<rect x="121.5" y="-1" fill-rule="evenodd" clip-rule="evenodd" fill="#F36B3F" width="3" height="4.8"/>
		</g>
		<g>
			<path fill="none" d="M123.4-3v78"/>
			<g>
				<g>
					
				</g>
				<g>
					<g>
						<g>
							<rect x="108.4" y="23" fill="none" width="30" height="26"/>
						</g>
						<rect x="121.5" y="42.3" fill-rule="evenodd" clip-rule="evenodd" fill="#F36B3F" width="3" height="4.8"/>
						<rect x="121.5" y="33.6" fill-rule="evenodd" clip-rule="evenodd" fill="#F36B3F" width="3" height="4.8"/>
						<rect x="121.5" y="25" fill-rule="evenodd" clip-rule="evenodd" fill="#F36B3F" width="3" height="4.8"/>
					</g>
				</g>
				<g>
					<g>
						<g>
							<rect x="108.4" y="49" fill="none" width="30" height="26"/>
						</g>
						<rect x="121.5" y="68.3" fill-rule="evenodd" clip-rule="evenodd" fill="#F36B3F" width="3" height="4.8"/>
						<rect x="121.5" y="59.6" fill-rule="evenodd" clip-rule="evenodd" fill="#F36B3F" width="3" height="4.8"/>
						<rect x="121.5" y="51" fill-rule="evenodd" clip-rule="evenodd" fill="#F36B3F" width="3" height="4.8"/>
					</g>
				</g>
			</g>
		</g>
	</g>
	<path fill-rule="evenodd" clip-rule="evenodd" fill="none" stroke="#F15523" stroke-width="4" stroke-miterlimit="10" d="
		M122.9,79.8l0.5,59.2c1.2,22-29.3,66.7-71.9,66.8c-63.2,0.1-0.2,41.2,26.7,38.7c44.1-4,18.4-31.9,22.7-69.3
		c7.3-62.8,30.9-16.9,27.4,21.7c-1.7,19.3-9.5,65.5-40.1,58c-17.8-4.4-17.3-33.1-2.7-42.8c35.9-23.8,82.2,58.5,57.2,82.6
		c-32.8,31.5-25.4-53.1-10.9-69.9c30.5-35.5,100.3-5.9,57.1,17c-22.7,12-59.4-15.7-59.4-38.1c0-15.2,19.8-49.3,29.7-60.7
		c3.4-3.8,8-6.9,13.1-7.2c7.3-0.5,14.3,4.9,16.8,11.8c30.2,82.2-123.7,24.3-137.8,33.5c-18.5,12.1-9.1,36.7,9.2,44.4
		c41.2,17.6,24.4-30.5,41-43.7c16.9-13.4,58.1-1,62.1,21.4c8.8,48.3-52.7,16.5-69.2,24c-38.1,17.4-4.6,49.7,24.1,51.9
		c27.8,2.1,47.6-35.9,65.4-34.7c40.2,53.9-80,79.5-63.9,4.5c5.7-26.6,49.1-75.4,66.3-32.1c11.2,28.3-25.3,67.8-52.9,59.5
		c-74.7-22.5-1.7-161.1,30.6-90c31.3,69-97.8,112.6-104.5,42c-7-74,76.5-96.9,118.6-42.1c38.4,50-31,141.7-91.4,117.1
		c-54.8-22.4-25.3-108.9,18.8-126.9c13.5-5.5,67.4-4.1,66.2,22.6c-0.4,7.7-42.2,33.3-48.6,39.1v90c-0.2,27,4.7,54.8,65.5,54.8
		c51.4,0,51.5,41.3,51.5,53.2c0,0.2,0,252,0,252s3.7,43.8-51.5,43.8c-0.1,0-125,0-125,0s-54,0-54,54c0,35.8,0,118,0,118
		s-0.6,44.9,53.4,44.9l26.5,0v-21.3c-24.8-11.6-41.7-37.3-40.3-66.8c1.7-36.4,31.7-65.7,68.2-66.6c39.4-1,71.8,30.8,71.8,70
		c0,28-16.5,52.1-40.2,63.3v21.3v8.7h-16.4v-73.5h10.1c9.7,0,18.2-7.9,18.2-17.6c0.1-9.9-8-18.1-18-18c-9.7,0.1-17.6,8.6-17.6,18.2
		l0,10.1h-12.4l0-10.1c0-9.7-7.9-18.2-17.6-18.2c-9.9-0.1-18.1,8-18,18c0.1,9.7,8.6,17.6,18.2,17.6h10.1v73.5H89.1v7.2h59.5v7.8
		H89.1v7.2h59.7v8.4h-30.3c0,0,0,17.8,0,18.2c1.1,23,13,32.9,40.5,32.9c0.1,0,45,0,45,0s45,0,45,54c0,0.1,0,396,0,396v198
		c0,0-4.3,54-63,54h-36l7.6-30.3c0.2-1.5,1.5-2.7,3.1-2.7h5.2c1.8,0,3.3-1.4,3.3-3.2v-7.7c0-1.8-1.5-3.2-3.3-3.2H131
		c-1.5,0-2.6-1.1-2.6-2.6v-30.9c1.9,0.2,4.7,0.4,7.8,0.4c0,0,0,0,0,0c7.7,0,19-1.3,28.4-7.5c16.5-10.9,20.7-32.4,20.9-33.3l0.5-2.6
		l-2.6-0.5c-0.2-0.1-4.7-0.9-11.1-0.9c-7.7,0-19,1.3-28.4,7.5c-7.4,4.9-12.3,11.9-15.5,18.2V1608c2,0.2,4.6,0.4,7.8,0.4
		c7.8,0,19-1.3,28.4-7.5c16.5-10.9,20.7-32.4,20.9-33.3l0.5-2.5l-2.6-0.5c-0.2,0-4.7-0.9-11.1-0.9c-7.7,0-19,1.3-28.4,7.5
		c-7.4,4.9-12.3,11.8-15.5,18.2v-38.7c9.5-1.3,16.7-9.5,16.1-19.3c-0.5-9.2-8.2-16.8-17.7-17.3c-11-0.7-20.1,7.8-20.1,18.4
		c0,9.3,7,16.9,16.2,18.2v38.6c-3.2-6.3-8.1-13.4-15.5-18.2c-9.4-6.2-20.6-7.5-28.4-7.5c-6.4,0-10.9,0.9-11.1,0.9l-2.6,0.5l0.5,2.6
		c0.2,0.9,4.4,22.4,20.9,33.3c9.4,6.2,20.6,7.5,28.4,7.5c3.2,0,5.9-0.2,7.9-0.4v33.7c-3.2-6.3-8.1-13.3-15.5-18.2
		c-9.4-6.2-20.6-7.5-28.4-7.5c-6.4,0-10.9,0.8-11.1,0.9l-2.6,0.5l0.5,2.6c0.2,0.9,4.4,22.4,20.9,33.3c9.4,6.2,20.6,7.5,28.4,7.5
		c3.2,0,5.9-0.2,7.9-0.5v31c0,1.4-1.2,2.6-2.6,2.6H85.4c-1.8,0-3.3,1.4-3.3,3.2v7.7c0,1.8,1.5,3.2,3.3,3.2h5.2
		c1.6,0,2.9,1.2,3.1,2.7L105,1741H60c0,0-57.5,2.8-57.5,56.8c0,54,0,126,0,126v92c0,0,2,44,50,44c0.8,0,146,0,146,0
		S240,2057,240,2101v332.8c0,0.1,0,0.1,0,0.2c0,17.8,1.9,36-36,36"/>
</g>
<g id="Layer_4" display="none">
</g>
</svg>
