<svg xmlns="http://www.w3.org/2000/svg" width="54.6" height="54.6" viewBox="0 0 54.6 54.6"><defs><style>.cls-1{fill:#00b0ff;}.cls-2{fill:#c7e1f5;}.cls-3{fill:none;stroke:#00b0ff;stroke-linecap:round;stroke-miterlimit:10;stroke-width:1.25px;}.cls-4{fill:#fff;}</style></defs><title>cog-chip</title><g id="Layer_2" data-name="Layer 2"><g id="Layer_4" data-name="Layer 4"><path class="cls-1" d="M45.53,6.22A2.75,2.75,0,0,1,48.28,9V45.48a2.76,2.76,0,0,1-2.75,2.75H9a2.75,2.75,0,0,1-2.75-2.75V9A2.75,2.75,0,0,1,9,6.22H45.53m0-1.25H9A4,4,0,0,0,5,9V45.48a4,4,0,0,0,4,4H45.53a4,4,0,0,0,4-4V9a4,4,0,0,0-4-4Z"/><path class="cls-2" d="M42.26,30.92l-1.83-1.06a12.7,12.7,0,0,0,.26-2.56,13,13,0,0,0-.23-2.36l1.8-1a1,1,0,0,0,.48-.62,1.06,1.06,0,0,0-.1-.78L39.4,16.92A1,1,0,0,0,38,16.54l-1.62,1a13.46,13.46,0,0,0-5.17-3V12.79a1,1,0,0,0-1-1H23.73a1,1,0,0,0-1,1v2a13.35,13.35,0,0,0-4.29,2.58l-1.81-1a1,1,0,0,0-1.4.38L12,22.25a1,1,0,0,0-.1.78,1,1,0,0,0,.48.62l1.83,1.06a13,13,0,0,0-.26,2.59,12.78,12.78,0,0,0,.22,2.33l-1.79,1A1,1,0,0,0,12,32.07l3.23,5.58a1,1,0,0,0,.89.51,1.06,1.06,0,0,0,.51-.14l1.6-1a13.24,13.24,0,0,0,5.18,3v1.69a1,1,0,0,0,1,1h6.46a1,1,0,0,0,1-1V39.84a13.4,13.4,0,0,0,4.31-2.59l1.79,1a1,1,0,0,0,1.39-.37l3.24-5.58a1.06,1.06,0,0,0,.1-.78A1,1,0,0,0,42.26,30.92ZM27.31,32A4.65,4.65,0,1,1,32,27.3,4.66,4.66,0,0,1,27.31,32Z"/><path class="cls-3" d="M31.22,14.29v-1.5a1,1,0,0,0-1-1H23.73a1,1,0,0,0-1,1V15.5A12.35,12.35,0,0,0,19,17.65l-2.36-1.36a1,1,0,0,0-1.4.38L12,22.25a1,1,0,0,0-.1.78,1,1,0,0,0,.48.62L14.71,25a12.73,12.73,0,0,0-.18,2.15,12.91,12.91,0,0,0,.18,2.15l-2.35,1.35A1,1,0,0,0,12,32.07l3.23,5.58a1,1,0,0,0,.89.51,1.06,1.06,0,0,0,.51-.14l3.84-2.28"/><path class="cls-3" d="M23.39,40.46v1.32a1,1,0,0,0,1,1h6.46a1,1,0,0,0,1-1V39.07a12.45,12.45,0,0,0,3.73-2.16L38,38.27a1,1,0,0,0,1.39-.37l3.24-5.58a1.06,1.06,0,0,0,.1-.78,1,1,0,0,0-.48-.62L39.9,29.56a11.94,11.94,0,0,0,.19-2.15,11.78,11.78,0,0,0-.19-2.15l2.36-1.36a1,1,0,0,0,.48-.62,1.06,1.06,0,0,0-.1-.78L39.4,16.92A1,1,0,0,0,38,16.54l-3.84,2.28"/><path class="cls-1" d="M27.31,34.44a7.14,7.14,0,1,1,7.14-7.14A7.14,7.14,0,0,1,27.31,34.44Z"/><path class="cls-4" d="M27.31,21.16a6.14,6.14,0,1,1-6.14,6.14,6.15,6.15,0,0,1,6.14-6.14m0-2a8.14,8.14,0,1,0,8.14,8.14,8.15,8.15,0,0,0-8.14-8.14Z"/><line class="cls-3" x1="12.69" y1="0.63" x2="12.69" y2="5.48"/><line class="cls-3" x1="19.99" y1="0.63" x2="19.99" y2="5.48"/><line class="cls-3" x1="27.3" y1="0.63" x2="27.3" y2="5.48"/><line class="cls-3" x1="34.61" y1="0.63" x2="34.61" y2="5.48"/><line class="cls-3" x1="41.91" y1="0.63" x2="41.91" y2="5.48"/><line class="cls-3" x1="12.69" y1="49.12" x2="12.69" y2="53.97"/><line class="cls-3" x1="19.99" y1="49.12" x2="19.99" y2="53.97"/><line class="cls-3" x1="27.3" y1="49.12" x2="27.3" y2="53.97"/><line class="cls-3" x1="34.61" y1="49.12" x2="34.61" y2="53.97"/><line class="cls-3" x1="41.91" y1="49.12" x2="41.91" y2="53.97"/><line class="cls-3" x1="0.63" y1="41.91" x2="5.48" y2="41.91"/><line class="cls-3" x1="0.63" y1="34.61" x2="5.48" y2="34.61"/><line class="cls-3" x1="0.63" y1="27.3" x2="5.48" y2="27.3"/><line class="cls-3" x1="0.63" y1="19.99" x2="5.48" y2="19.99"/><line class="cls-3" x1="0.63" y1="12.69" x2="5.48" y2="12.69"/><line class="cls-3" x1="49.12" y1="41.91" x2="53.97" y2="41.91"/><line class="cls-3" x1="49.12" y1="34.61" x2="53.97" y2="34.61"/><line class="cls-3" x1="49.12" y1="27.3" x2="53.97" y2="27.3"/><line class="cls-3" x1="49.12" y1="19.99" x2="53.97" y2="19.99"/><line class="cls-3" x1="49.12" y1="12.69" x2="53.97" y2="12.69"/></g></g></svg>