<svg xmlns="http://www.w3.org/2000/svg" width="44.65" height="55.41" viewBox="0 0 44.65 55.41"><defs><style>.cls-1{fill:none;stroke:#00b0ff;stroke-linecap:round;stroke-linejoin:round;stroke-width:1.25px;}.cls-2{fill:#00b0ff;}.cls-3{fill:#c7e1f5;}.cls-4{fill:#fff;}</style></defs><title>globe</title><g id="Layer_2" data-name="Layer 2"><g id="Layer_4" data-name="Layer 4"><path class="cls-1" d="M38.67,42.7A23.79,23.79,0,1,1,18.52.62"/><path class="cls-2" d="M30.58,55.41H17.8a.41.41,0,0,1-.41-.51c.48-1.77,3.31-4.11,6.85-4.11S30.52,53.15,31,54.9A.41.41,0,0,1,30.58,55.41Z"/><rect class="cls-2" x="22.59" y="47.29" width="3.13" height="4.35"/><path class="cls-3" d="M24.17,43.41A19.76,19.76,0,0,1,24.25,3.9,20,20,0,0,1,44,23.55,19.79,19.79,0,0,1,24.25,43.41Z"/><path class="cls-2" d="M24.31,4.53a19.34,19.34,0,0,1,19.09,19A19.17,19.17,0,0,1,24.25,42.79h-.08a19,19,0,0,1-19-19.11,18.81,18.81,0,0,1,5.52-13.44A19.05,19.05,0,0,1,24.25,4.53h.06m0-1.25h-.06A20.38,20.38,0,0,0,24.16,44h.09a20.38,20.38,0,0,0,.06-40.76Z"/><path class="cls-4" d="M39.46,14.72c-.21,0-.42.1-.74.18a3,3,0,0,1,.38.87,2.22,2.22,0,0,1-.18,1.05c-.05.11-.45.08-.68.08a.36.36,0,0,1-.24-.16c-.31-.52-.61-1-.9-1.57-.05-.09-.13-.2-.11-.28a1.09,1.09,0,0,0-.51-1.23.32.32,0,0,1-.11-.17c0-.24-.08-.48-.11-.73l.57.07c0-.08-.09-.16-.14-.23s-.13-.21-.11-.29a1.08,1.08,0,0,0-.51-1.23.28.28,0,0,1-.11-.17c-.05-.24-.07-.48-.11-.73.24,0,.48.05.71.1a1.3,1.3,0,0,1,.35.18l.46-.86c.65.74,1.27,1.42,1.87,2.12.18.21.11.37-.18.42s-.43.1-.74.18a3.11,3.11,0,0,1,.38.87v0c.32.36.64.72.94,1.08C39.82,14.51,39.75,14.67,39.46,14.72Z"/><path class="cls-4" d="M38.71,27.58a10.45,10.45,0,0,1-.67,1.9,4.77,4.77,0,0,0-.83,1.78c0,.18-.28.36-.46.5A10.9,10.9,0,0,0,35.16,33a5.36,5.36,0,0,1-1.74,1.61.72.72,0,0,0-.33.48.59.59,0,0,1-.8.55,6.58,6.58,0,0,0-.86-.12c-.73,0-1.1.41-1.15,1.22a2.45,2.45,0,0,1-.2,1,1,1,0,0,1-.65.37c-.12,0-.32-.25-.41-.43a13.68,13.68,0,0,0-.61-1.28,2.7,2.7,0,0,1-.27-1.78,12,12,0,0,0-.4-3.78c-.12-.42-.77-.71-1.2-1s-.94-.55-1.38-.88a1.54,1.54,0,0,1-.39-.64c-.34-.87-.66-1.76-1-2.63a1,1,0,0,1,0-1.1A7.45,7.45,0,0,0,24.62,23a1.23,1.23,0,0,0,0-.71,1.68,1.68,0,0,1,.69-1.68,7.66,7.66,0,0,1,1.55-.9,3.77,3.77,0,0,1,.93-.11c-.2.5-.35.84-.47,1.19,0,.11,0,.3,0,.36a18.5,18.5,0,0,0,1.5,1.31.62.62,0,0,0,.57-.05,1.63,1.63,0,0,1,2.23.4,1,1,0,0,0,1,.48c1.08-.14,1.5,0,1.89,1a1.39,1.39,0,0,0,.82.84,13.81,13.81,0,0,0,1.35.51,3.1,3.1,0,0,1,1.89,1.47A.61.61,0,0,1,38.71,27.58Z"/><path class="cls-4" d="M15.79,38c-.38.07-.72.08-.95-.3-.1-.17-.18-.36-.29-.56a1.75,1.75,0,0,1-2.63-1.35,1.78,1.78,0,0,1,.13-.53,1.75,1.75,0,0,0,.17-.63,1.1,1.1,0,0,1,0-.18,1.61,1.61,0,0,1-.69-1.24,1.78,1.78,0,0,1,.13-.53,1.7,1.7,0,0,0,.17-.63,1.28,1.28,0,0,1,.53-1.41c.08-.05,0-.46-.11-.63-.42-.69-.32-1.08.42-1.47.34-.18.67-.39,1-.59a.7.7,0,0,1,1,.33,7.21,7.21,0,0,1,.6,1.84q.11.84.18,1.68a4.55,4.55,0,0,1,.22.9c.21,1.55.32,3.13.46,4.69C16.17,37.67,16.18,37.94,15.79,38Z"/><path class="cls-4" d="M22.28,14.51c-.38.45-.88.8-1.27,1.24a9.31,9.31,0,0,0-.74,1.11c-.06.1-.1.24-.19.3a4.09,4.09,0,0,0-1.32,2.1c-.13.39-.27.77-.41,1.19-.69,0-.8-.13-1-.87a1.53,1.53,0,0,0-2.32-1.06,3.17,3.17,0,0,1-.42.19,1.28,1.28,0,0,0-.83,1.55,5.67,5.67,0,0,0,2.12,3.18,1.61,1.61,0,0,1,.93,1.4,8.3,8.3,0,0,1-3.42-1.91,2,2,0,0,0-.79-.45l-.27-.13c.32.36.64.72.94,1.08s.11.37-.18.42-.42.1-.74.18a3,3,0,0,1,.39.87,2.19,2.19,0,0,1-.19,1c-.05.12-.44.09-.68.09a.36.36,0,0,1-.24-.17c-.31-.51-.6-1-.9-1.56,0-.09-.13-.2-.11-.28a1.07,1.07,0,0,0-.51-1.23.32.32,0,0,1-.11-.17c0-.24-.08-.49-.11-.73l.57.07-.13-.24c0-.08-.14-.2-.11-.28a1.08,1.08,0,0,0-.52-1.23A.32.32,0,0,1,9.63,20c0-.24-.07-.48-.11-.73.24,0,.48.05.71.09a1.77,1.77,0,0,1,.35.19l.2-.37a3,3,0,0,0-.87-1.15,1.76,1.76,0,0,1-.53-2.25c.42-.94.88-1.86,1.36-2.77a5.64,5.64,0,0,0,.47-2.56,1,1,0,0,1,.23-.65,9,9,0,0,1,1.28-1,7.5,7.5,0,0,1,1.4-.74c.53-.2,1.11-.44,1.59.18a.5.5,0,0,0,.42,0,8.2,8.2,0,0,0,.78-.4c.56-.31.76-.2.81.57a2.8,2.8,0,0,0,.76-.29c.52-.42.5-.44.92,0,.09.11.23.17.3.1.23-.2.48-.38.69-.59a1.45,1.45,0,0,0,.26-.43,1.69,1.69,0,0,1,1.07-1,2.36,2.36,0,0,0,.8-.54,1,1,0,0,1,1.1-.25c.56.21,1.12.46,1.6.66-.42.44-.75.84-1.14,1.18a12.25,12.25,0,0,1-1.24.9c-.11.07-.28.07-.37.16a2.09,2.09,0,0,1-2,.73c0,.33-.05.53-.07.79a9.68,9.68,0,0,0-1.08,0,1.09,1.09,0,0,0-.59.22c-.07.06,0,.44.05.46a3.51,3.51,0,0,0,2.44.28.65.65,0,0,0,.32-.42,1.29,1.29,0,0,1,1.67-1.18A1.5,1.5,0,0,0,24,9.15c.62-.24,1.2-.6,1.84-.78a1.48,1.48,0,0,1,1.13.2,1.07,1.07,0,0,1,.35,1.37A3.52,3.52,0,0,0,27.14,11,1.48,1.48,0,0,1,26,12c-.78,0-.76,0-.8.77S24.86,14.08,24,14c-.26,0-.52,0-.78,0A1.23,1.23,0,0,0,22.28,14.51Z"/></g></g></svg>