<svg id="grid" xmlns="http://www.w3.org/2000/svg" width="49.14" height="49.13" viewBox="0 0 49.14 49.13"><defs><style>.cls-1{fill:#fff;}.cls-2{fill:#c7e1f5;}.cls-3,.cls-5{fill:none;stroke:#00b0ff;stroke-linecap:round;stroke-miterlimit:10;}.cls-3{stroke-width:1.25px;}.cls-4{fill:#00b0ff;}</style></defs><title>howitworks-quick-secure-implementation</title><path class="cls-1" d="M298.35,608.49a24.22,24.22,0,1,1,24.21-24.22A24.25,24.25,0,0,1,298.35,608.49Z" transform="translate(-273.86 -559.63)"/><path class="cls-2" d="M313.38,587.82l-1.83-1.06a13.47,13.47,0,0,0,.25-2.56,13,13,0,0,0-.22-2.36l1.8-1a1,1,0,0,0,.47-.62,1,1,0,0,0-.1-.78l-3.23-5.58a1,1,0,0,0-.89-.51,1,1,0,0,0-.51.13l-1.61,1a13.53,13.53,0,0,0-5.17-3v-1.72a1,1,0,0,0-1-1h-6.46a1,1,0,0,0-1,1v2a13.57,13.57,0,0,0-4.29,2.58l-1.81-1a1,1,0,0,0-1.39.38l-3.24,5.58a1.06,1.06,0,0,0-.1.78,1,1,0,0,0,.48.62l1.83,1.06a13.29,13.29,0,0,0,0,4.92l-1.79,1a1,1,0,0,0-.48.63,1.06,1.06,0,0,0,.1.78l3.24,5.58a1,1,0,0,0,.88.51.94.94,0,0,0,.51-.14l1.6-.95a13.35,13.35,0,0,0,5.19,3v1.69a1,1,0,0,0,1,1H302a1,1,0,0,0,1-1v-1.94a13.34,13.34,0,0,0,4.32-2.59l1.78,1a1,1,0,0,0,1.4-.37l3.23-5.58a1,1,0,0,0,.1-.78A1,1,0,0,0,313.38,587.82Zm-15,1a4.65,4.65,0,1,1,4.65-4.65A4.65,4.65,0,0,1,298.42,588.85Z" transform="translate(-273.86 -559.63)"/><path class="cls-3" d="M302.34,571.2v-1.51a1,1,0,0,0-1-1h-6.46a1,1,0,0,0-1,1v2.71a12.42,12.42,0,0,0-3.73,2.15l-2.37-1.36a1,1,0,0,0-1.39.38l-3.24,5.58a1.06,1.06,0,0,0-.1.78,1,1,0,0,0,.48.62l2.36,1.36a11.78,11.78,0,0,0-.19,2.15,11.94,11.94,0,0,0,.19,2.15l-2.36,1.35a1,1,0,0,0-.48.63,1.06,1.06,0,0,0,.1.78l3.24,5.58a1,1,0,0,0,.88.51.94.94,0,0,0,.51-.14l3.85-2.28" transform="translate(-273.86 -559.63)"/><path class="cls-3" d="M294.51,597.36v1.32a1,1,0,0,0,1,1H302a1,1,0,0,0,1-1V596a12.38,12.38,0,0,0,3.74-2.16l2.36,1.36a1,1,0,0,0,1.4-.37l3.23-5.58a1,1,0,0,0-.37-1.4L311,586.46a12.91,12.91,0,0,0,.18-2.15,12.73,12.73,0,0,0-.18-2.15l2.36-1.36a1,1,0,0,0,.47-.62,1,1,0,0,0-.1-.78l-3.23-5.58a1,1,0,0,0-.89-.51,1,1,0,0,0-.51.13l-3.84,2.28" transform="translate(-273.86 -559.63)"/><path class="cls-4" d="M298.42,591.34a7.14,7.14,0,1,1,7.14-7.14A7.15,7.15,0,0,1,298.42,591.34Z" transform="translate(-273.86 -559.63)"/><path class="cls-1" d="M298.42,578.06a6.14,6.14,0,1,1-6.14,6.14,6.14,6.14,0,0,1,6.14-6.14m0-2a8.14,8.14,0,1,0,8.14,8.14,8.15,8.15,0,0,0-8.14-8.14Z" transform="translate(-273.86 -559.63)"/><path class="cls-5" d="M279.15,598.59a24.05,24.05,0,0,1,35.92-31.76" transform="translate(-273.86 -559.63)"/><path class="cls-5" d="M319.16,572a24.05,24.05,0,0,1-35.52,31.18" transform="translate(-273.86 -559.63)"/><path class="cls-4" d="M283.48,606.2l-2.37-4.35a.45.45,0,0,1,.48-.69l4.82.8a.45.45,0,0,1,.29.67l-2.46,3.56A.45.45,0,0,1,283.48,606.2Z" transform="translate(-273.86 -559.63)"/><path class="cls-4" d="M315.15,563.52l1.83,4.61a.45.45,0,0,1-.55.63l-4.69-1.37a.46.46,0,0,1-.21-.71l2.86-3.23A.45.45,0,0,1,315.15,563.52Z" transform="translate(-273.86 -559.63)"/></svg>