<svg id="grid" xmlns="http://www.w3.org/2000/svg" viewBox="0 0 50 36.42" width="50" height="50"><defs><style>.cls-1{fill:#fff;}.cls-2{fill:#00b0ff;}.cls-3{fill:#c7e1f5;}.cls-4{fill:none;stroke:#00b0ff;stroke-miterlimit:10;stroke-width:1.25px;}</style></defs><title>howitworks-one-wallet-for-everything</title><path class="cls-1" d="M2.26,42.67A1.72,1.72,0,0,1,.54,41V26.4a1.73,1.73,0,0,1,1.72-1.72H6.15A1.72,1.72,0,0,1,7.86,26.4v1l.73-.27a21.16,21.16,0,0,1,6.5-1.26,19.49,19.49,0,0,1,5.33.81l.37.09a12.88,12.88,0,0,0,3.79.73l6.24-.19a2.73,2.73,0,0,1,2.44,1.54l.27.54,11.12-5.33a3.53,3.53,0,0,1,1.62-.36h0A2.82,2.82,0,0,1,48.8,25a2.87,2.87,0,0,1,.45,1.9,2.22,2.22,0,0,1-1.08,1.72c-.72.45-1.63,1.08-2.62,1.81C43.2,32,40.31,34,37.42,35.89a60.19,60.19,0,0,1-6,3.52A11.19,11.19,0,0,1,27,41a54,54,0,0,1-7-.63,41.45,41.45,0,0,0-6.87-.63,28.85,28.85,0,0,0-4.79.45l-.45.09V41a1.71,1.71,0,0,1-1.71,1.72H2.26Z" transform="translate(0 -6.79)"/><path class="cls-2" d="M46.27,24.14h0a2.55,2.55,0,0,1,2.08,1,1.88,1.88,0,0,1,.36,1.53A2,2,0,0,1,47.9,28c-.72.45-1.63,1.08-2.62,1.81-2.35,1.62-5.24,3.61-8.14,5.51a62.26,62.26,0,0,1-6,3.52c-1.63.82-3,1.54-4.16,1.54a54,54,0,0,1-7-.63,40.59,40.59,0,0,0-7-.64,28.88,28.88,0,0,0-4.88.46l-.9.18V41a1.2,1.2,0,0,1-1.17,1.18H2.26A1.21,1.21,0,0,1,1.08,41V26.4a1.2,1.2,0,0,1,1.18-1.17H6.15A1.19,1.19,0,0,1,7.32,26.4v1.72l1.54-.54a23.42,23.42,0,0,1,6.32-1.27,18.63,18.63,0,0,1,5.15.81l.37.09a13.83,13.83,0,0,0,4.06.73h0l6.15-.18H31A2,2,0,0,1,32.9,29l.45,1.09,1.08-.55L45.1,24.5a3.59,3.59,0,0,1,1.17-.36h0m0-1.08h0a4.92,4.92,0,0,0-1.9.45L33.71,28.57a3.09,3.09,0,0,0-3-1.9h-.09l-6.15.18A12.65,12.65,0,0,1,20.42,26a17.79,17.79,0,0,0-5.51-.81,23.57,23.57,0,0,0-6.69,1.26v-.18A2.24,2.24,0,0,0,6,24.05H2.26A2.24,2.24,0,0,0,0,26.31V41a2.23,2.23,0,0,0,2.26,2.26H6.15A2.23,2.23,0,0,0,8.4,41v-.36a30.67,30.67,0,0,1,4.7-.45c4.88,0,8.77,1.35,13.92,1.35h0a11.7,11.7,0,0,0,4.7-1.62c1.81-.91,3.89-2.26,6.06-3.62,4.24-2.71,8.58-5.78,10.84-7.32A3,3,0,0,0,50,26.76a3.29,3.29,0,0,0-.54-2.26,4.55,4.55,0,0,0-3.17-1.44Z" transform="translate(0 -6.79)"/><path class="cls-2" d="M14.46,13.39H38.14V8a.81.81,0,0,0-.09-.45c-.09-.09-.09-.27-.27-.36a1.24,1.24,0,0,0-.36-.27A.72.72,0,0,0,37,6.79H18a3.63,3.63,0,0,0-3.61,3.61v3Z" transform="translate(0 -6.79)"/><polygon class="cls-2" points="8.4 33.44 7.32 35.61 3.71 35.7 3.71 17.98 7.14 17.98 8.4 19.79 8.4 33.44"/><rect class="cls-3" x="0.81" y="17.98" width="4.7" height="17.71"/><path class="cls-2" d="M46.27,24.14h0a2.55,2.55,0,0,1,2.08,1,1.88,1.88,0,0,1,.36,1.53A2,2,0,0,1,47.9,28c-.72.45-1.63,1.08-2.62,1.81-2.35,1.62-5.24,3.61-8.14,5.51a62.26,62.26,0,0,1-6,3.52c-1.63.82-3,1.54-4.16,1.54a54,54,0,0,1-7-.63,40.59,40.59,0,0,0-7-.64,28.88,28.88,0,0,0-4.88.46l-.9.18V41a1.2,1.2,0,0,1-1.17,1.18H2.26A1.21,1.21,0,0,1,1.08,41V26.4a1.2,1.2,0,0,1,1.18-1.17H6.15A1.19,1.19,0,0,1,7.32,26.4v1.72l1.54-.54a23.42,23.42,0,0,1,6.32-1.27,18.63,18.63,0,0,1,5.15.81l.37.09a13.83,13.83,0,0,0,4.06.73h0l6.15-.18H31A2,2,0,0,1,32.9,29l.45,1.09,1.08-.55L45.1,24.5a3.59,3.59,0,0,1,1.17-.36h0m0-1.08h0a4.92,4.92,0,0,0-1.9.45L33.71,28.57a3.09,3.09,0,0,0-3-1.9h-.09l-6.15.18A12.65,12.65,0,0,1,20.42,26a17.79,17.79,0,0,0-5.51-.81,23.57,23.57,0,0,0-6.69,1.26v-.18A2.24,2.24,0,0,0,6,24.05H2.26A2.24,2.24,0,0,0,0,26.31V41a2.23,2.23,0,0,0,2.26,2.26H6.15A2.23,2.23,0,0,0,8.4,41v-.36a30.67,30.67,0,0,1,4.7-.45c4.88,0,8.77,1.35,13.92,1.35h0a11.7,11.7,0,0,0,4.7-1.62c1.81-.91,3.89-2.26,6.06-3.62,4.24-2.71,8.58-5.78,10.84-7.32A3,3,0,0,0,50,26.76a3.29,3.29,0,0,0-.54-2.26,4.55,4.55,0,0,0-3.17-1.44Z" transform="translate(0 -6.79)"/><path class="cls-4" d="M33.44,28.93c0,2.71-3.8,2.8-3.8,2.8l-12.47.09" transform="translate(0 -6.79)"/><path class="cls-3" d="M38.14,12.12H14.46V22.88a.81.81,0,0,0,.09.45c.09.09.09.27.27.36a1.24,1.24,0,0,0,.36.27.81.81,0,0,0,.45.09h19a3.63,3.63,0,0,0,3.62-3.61V12.12Z" transform="translate(0 -6.79)"/><path class="cls-2" d="M37,7.87V20.35a2.53,2.53,0,0,1-2.53,2.53H15.54V10.4a2.53,2.53,0,0,1,2.54-2.53H37m.09-1.08h-19a3.63,3.63,0,0,0-3.62,3.61V23a.81.81,0,0,0,.09.45c.09.09.09.27.27.36a.47.47,0,0,0,.36.18.54.54,0,0,0,.36.09h19a3.63,3.63,0,0,0,3.62-3.61V7.87a.81.81,0,0,0-.09-.45c-.09-.09-.09-.27-.27-.36a1.24,1.24,0,0,0-.36-.27Z" transform="translate(0 -6.79)"/><circle class="cls-1" cx="17.71" cy="3.07" r="0.9"/><circle class="cls-1" cx="20.33" cy="3.07" r="0.9"/></svg>