<?xml version="1.0" encoding="utf-8"?>
<!-- Generator: Adobe Illustrator 22.1.0, SVG Export Plug-In . SVG Version: 6.00 Build 0)  -->
<svg version="1.1" id="grid" xmlns="http://www.w3.org/2000/svg" xmlns:xlink="http://www.w3.org/1999/xlink" x="0px" y="0px"
	 viewBox="0 0 50 50" width="50" height="50" style="enable-background:new 0 0 50 50;" xml:space="preserve">
<style type="text/css">
	.st0{fill:#C7E1F5;}
	.st1{fill:#FFFFFF;}
	.st2{fill:#00B0FF;}
	.st3{font-family:'OpenSans-Extrabold';}
	.st4{font-size:12.3745px;}
	.st5{fill:none;stroke:#C7E1F5;stroke-width:1.25;stroke-linecap:round;stroke-miterlimit:10;}
</style>
<g>
	<path class="st0" d="M10.9,45.3v1.8c0,1.6,1.3,2.8,2.8,2.8h28.6c1.6,0,2.8-1.3,2.8-2.8v-38c0-1.6-1.3-2.8-2.8-2.8H25.5"/>
	<g>
		<path class="st1" d="M7.8,45c-1.3,0-2.3-1-2.3-2.3v-40c0-1.3,1-2.3,2.3-2.3h16.5l14.1,13.7v28.5c0,1.3-1,2.3-2.3,2.3L7.8,45
			L7.8,45z"/>
		<path class="st2" d="M24,1.1l13.9,13.4v28.3c0,0.9-0.7,1.7-1.6,1.7H7.8c-0.9,0-1.6-0.7-1.6-1.7v-40c0-0.9,0.7-1.7,1.6-1.7H24
			 M24.5,0H7.8C6.2,0,4.9,1.3,4.9,2.8v40c0,1.6,1.3,2.8,2.8,2.8h28.5c1.6,0,2.8-1.3,2.8-2.8V14.1L24.5,0L24.5,0z"/>
	</g>
	<g>
		<path class="st2" d="M27.1,14.3h11.4L24.3,0.2v11.3C24.3,13,25.5,14.3,27.1,14.3z"/>
	</g>
	<text transform="matrix(1 0 0 1 10.0396 24.376)" class="st2 st3 st4">$</text>
	<line class="st5" x1="10.4" y1="30.9" x2="25.2" y2="30.9"/>
	<line class="st5" x1="10.4" y1="34.1" x2="33.9" y2="34.1"/>
	<line class="st5" x1="27.6" y1="30.9" x2="33.9" y2="30.9"/>
	<line class="st5" x1="16" y1="37.2" x2="33.9" y2="37.2"/>
	<line class="st5" x1="10.4" y1="37.2" x2="13.6" y2="37.2"/>
</g>
</svg>
