<?xml version="1.0" encoding="UTF-8" standalone="no"?>
<svg width="177px" height="27px" viewBox="0 0 177 27" version="1.1" xmlns="http://www.w3.org/2000/svg" xmlns:xlink="http://www.w3.org/1999/xlink" xmlns:sketch="http://www.bohemiancoding.com/sketch/ns">
    <!-- Generator: Sketch 3.3.3 (12072) - http://www.bohemiancoding.com/sketch -->
    <title>fast-company</title>
    <desc>Created with Sketch.</desc>
    <defs></defs>
    <g id="Page-1" stroke="none" stroke-width="1" fill="none" fill-rule="evenodd" sketch:type="MSPage">
        <g id="fast-company" sketch:type="MSLayerGroup" transform="translate(-8.000000, -83.000000)" fill="#FFFFFF">
            <g id="Group" sketch:type="MSShapeGroup">
                <path d="M92.02,90.371 C92.02,93.905 91.666,104.86 91.666,104.86 C91.666,106.98 92.373,107.923 94.375,107.923 L94.375,108.865 L86.483,108.865 L86.483,107.923 C88.485,107.923 89.546,106.981 89.546,104.86 L90.253,86.955 C89.664,85.541 89.075,85.07 87.544,84.953 L87.544,84.128 L93.551,84.128 L99.912,100.855 L106.391,84.128 L111.809,84.128 L111.809,84.953 C110.278,84.953 109.454,85.66 109.454,87.309 L110.161,104.624 C110.161,107.216 110.632,107.923 112.752,107.923 L112.752,108.865 L103.682,108.865 L103.682,107.923 C105.45,107.923 106.274,107.334 106.157,104.624 C106.157,104.624 105.803,92.492 105.685,90.372 L101.327,102.387 C100.738,103.918 100.149,105.685 99.678,107.57 L98.265,107.688 C97.911,106.392 96.969,104.036 96.969,104.036 C96.969,104.036 93.315,93.787 92.02,90.371 L92.02,90.371 L92.02,90.371 Z" id="Shape"></path>
                <path d="M84.599,108.981 C84.128,108.864 83.657,108.864 83.185,108.864 C82.243,108.864 80.594,109.335 78.591,109.335 C70.934,109.335 65.28,104.741 65.28,96.26 C65.28,89.075 70.581,83.539 78.709,83.539 C80.594,83.539 82.714,83.892 84.48,84.599 C84.834,84.245 84.952,84.01 85.305,83.657 L86.012,83.657 C85.894,84.953 85.423,89.193 85.423,89.193 L84.716,89.193 C84.245,86.719 82.949,85.07 78.826,85.07 C73.879,85.07 69.403,88.957 69.403,96.143 C69.403,104.271 73.997,107.804 79.062,107.804 C82.36,107.804 84.362,105.919 85.658,103.564 L86.483,103.918 L84.599,108.981 L84.599,108.981 Z" id="Shape"></path>
                <path d="M62.335,88.721 L61.51,88.721 C61.393,86.483 60.686,85.776 58.919,85.776 L55.503,85.776 L55.503,104.27 C55.503,107.333 56.092,107.921 58.094,107.921 L58.094,108.863 L49.26,108.863 L49.26,107.921 C51.263,107.921 51.852,107.332 51.852,104.151 L51.852,85.775 L48.436,85.775 C46.198,85.775 45.844,86.364 45.255,88.72 L44.431,88.72 L45.02,83.42 L45.609,83.538 C45.844,84.127 46.316,84.127 47.729,84.127 L59.155,84.127 C61.275,84.127 61.746,84.127 62.218,83.42 L62.925,83.42 L62.335,88.721 L62.335,88.721 Z" id="Shape"></path>
                <path d="M37.363,109.453 C35.714,109.453 34.418,109.218 33.476,108.864 C32.534,108.628 31.827,108.275 31.474,108.039 C31.003,108.511 30.649,109.1 30.649,109.1 L29.942,108.865 L30.531,103.328 L31.356,103.446 C31.827,106.038 33.594,107.923 37.246,107.923 C40.073,107.923 41.957,105.567 41.957,102.976 C41.957,100.856 41.133,99.795 38.306,97.675 C37.364,97.086 36.539,96.614 35.832,96.026 C33.24,94.377 31.592,92.492 31.592,89.43 C31.592,85.896 34.536,83.54 38.424,83.54 C40.662,83.54 42.075,84.247 42.547,84.482 L43.372,83.54 L43.96,83.658 L43.372,88.723 L42.547,88.605 C42.547,86.249 41.133,85.189 38.777,85.189 C36.539,85.189 34.89,86.367 34.89,88.605 C34.89,90.607 36.421,91.903 38.188,93.081 C39.13,93.67 39.837,94.142 40.543,94.612 C44.666,97.557 45.608,99.442 45.608,102.269 C45.609,106.391 42.428,109.453 37.363,109.453 L37.363,109.453 L37.363,109.453 Z" id="Shape"></path>
                <path d="M23.935,88.721 L22.993,88.721 C22.993,86.601 22.051,85.776 20.166,85.776 L14.865,85.776 L14.865,95.082 L18.281,95.082 C20.048,95.082 20.402,94.14 20.637,92.608 L21.461,92.608 L21.461,99.205 L20.637,99.205 C20.402,97.438 20.048,96.731 18.163,96.731 L14.865,96.731 L14.865,104.623 C14.865,107.568 15.572,107.922 17.456,107.922 L17.456,108.864 L8.504,108.864 L8.504,107.922 C10.742,107.922 11.095,107.333 11.095,104.623 L11.095,87.308 C11.095,85.659 10.388,84.952 8.504,84.952 L8.504,84.127 L20.754,84.127 C22.874,84.127 23.345,84.009 23.699,83.302 L24.524,83.302 L23.935,88.721 L23.935,88.721 Z" id="Shape"></path>
                <path d="M151.034,90.135 L151.034,104.271 C151.034,107.334 151.741,107.922 153.626,107.922 L153.626,108.864 L139.726,108.864 L139.726,107.922 C140.787,107.922 141.729,107.568 141.729,106.861 C141.729,106.39 141.611,105.565 141.375,104.741 L140.314,101.325 L132.541,101.325 C132.423,101.796 131.01,105.683 131.01,106.743 C131.01,107.686 132.07,107.922 132.777,107.922 L132.777,108.864 L126.298,108.864 L126.298,107.922 C127.476,107.922 128.418,107.804 129.242,105.33 L135.25,86.13 C134.896,85.305 134.426,85.07 133.601,84.952 L133.601,84.127 L138.902,84.127 L145.263,104.27 C145.852,106.39 146.441,107.45 147.383,107.921 C148.796,107.449 149.15,106.979 149.15,104.27 L149.15,87.308 C148.089,85.894 147.972,84.952 145.969,84.952 L145.969,84.127 L151.977,84.127 L161.872,100.971 L161.872,88.132 C161.872,85.541 161.283,84.952 159.281,84.952 L159.281,84.127 L172.473,84.127 L172.473,84.952 C171.649,84.952 170.942,85.305 170.942,86.13 C170.942,86.719 171.177,87.308 171.413,88.015 L175.183,96.143 L178.835,88.25 C179.423,87.19 179.541,86.601 179.541,86.012 C179.541,85.305 179.07,84.952 178.01,84.952 L178.01,84.127 L184.253,84.127 L184.253,84.952 C182.722,84.952 181.779,86.365 181.072,88.015 L176.243,97.91 L176.243,104.389 C176.243,107.216 176.95,107.923 178.835,107.923 L178.835,108.865 L169.882,108.865 L169.882,107.923 C171.767,107.923 172.474,107.216 172.474,104.389 L172.474,98.853 L167.291,87.898 C166.349,85.778 165.995,85.307 165.406,84.954 C164.228,85.425 163.875,86.249 163.875,88.134 L163.875,106.274 C163.875,106.274 163.992,107.688 164.11,109.337 L162.579,109.455 L151.034,90.135 L151.034,90.135 Z M136.31,88.957 L133.012,99.676 L139.844,99.676 L136.31,88.957 L136.31,88.957 Z" id="Shape"></path>
                <path d="M121.703,99.676 L119.936,99.676 L119.936,104.741 C119.936,107.333 120.643,107.922 122.646,107.922 L122.646,108.864 L113.576,108.864 L113.576,107.922 C115.461,107.922 116.167,107.215 116.167,104.623 L116.167,88.015 C116.167,85.424 115.461,84.952 113.576,84.952 L113.576,84.127 L120.408,84.127 C127.004,84.127 130.891,86.129 130.891,91.548 C130.892,97.202 126.18,99.676 121.703,99.676 L121.703,99.676 L121.703,99.676 Z M120.525,85.776 L119.936,85.776 L119.936,97.909 L120.997,97.909 C124.884,97.909 126.887,96.142 126.887,91.666 C126.887,87.19 125.119,85.776 120.525,85.776 L120.525,85.776 L120.525,85.776 Z" id="Shape"></path>
                <path d="M80.594,104.152 C76.117,104.152 73.055,100.971 73.055,96.378 C73.055,92.02 76.236,88.604 80.594,88.604 C84.834,88.604 88.015,91.902 88.015,96.378 C88.015,100.736 84.716,104.152 80.594,104.152 L80.594,104.152 L80.594,104.152 Z M80.594,90.017 C77.531,90.017 76.471,92.962 76.471,96.378 C76.471,99.559 77.413,102.739 80.594,102.739 C83.657,102.739 84.599,99.558 84.599,96.26 C84.599,93.08 83.421,90.017 80.594,90.017 L80.594,90.017 L80.594,90.017 Z" id="Shape"></path>
                <path d="M28.765,102.739 L28.765,101.914 C29.943,101.914 30.178,101.56 30.178,101.208 C30.178,100.736 30.06,100.383 29.943,100.029 C29.943,100.029 29.708,99.087 29.472,98.38 L24.878,98.38 L24.407,99.911 C24.289,100.265 24.171,100.618 24.171,101.09 C24.171,101.561 24.642,101.914 25.349,101.914 L25.349,102.739 L20.755,102.739 L20.755,101.914 C21.933,101.914 22.404,101.56 22.875,100.265 L26.409,89.664 C26.291,89.193 25.938,88.84 25.231,88.84 L25.231,88.015 L29,88.015 C32.063,96.967 32.887,99.324 32.887,99.324 C33.476,101.326 34.065,101.915 35.008,101.915 L35.008,102.74 L28.765,102.74 L28.765,102.739 L28.765,102.739 Z M27.115,91.313 L25.348,97.085 L29,97.085 L27.115,91.313 L27.115,91.313 Z" id="Shape"></path>
            </g>
        </g>
    </g>
</svg>