<?xml version="1.0" encoding="utf-8"?>
<!-- Generator: Adobe Illustrator 19.1.0, SVG Export Plug-In . SVG Version: 6.00 Build 0)  -->
<!DOCTYPE svg PUBLIC "-//W3C//DTD SVG 1.1//EN" "http://www.w3.org/Graphics/SVG/1.1/DTD/svg11.dtd">
<svg version="1.1" id="Layer_1" xmlns="http://www.w3.org/2000/svg" xmlns:xlink="http://www.w3.org/1999/xlink" x="0px" y="0px"
	 viewBox="0 0 400 400" enable-background="new 0 0 400 400" xml:space="preserve">
<g>
	<path fill="#0A9600" d="M174,196.4V207h-3.9v-10.6h-3.9V193h11.7v3.4H174z"/>
	<path fill="#0A9600" d="M187,202.8h-6.2c0.1,1.2,0.8,1.7,1.8,1.7c0.9,0,1.7-0.2,2.7-0.7l1.4,2.3c-1.3,0.8-2.6,1.2-4.3,1.2
		c-3.2,0-4.9-2.2-4.9-5.5c0-3.6,2-5.5,4.8-5.5c2.9,0,4.7,1.9,4.7,5.8C187,202.4,187,202.6,187,202.8z M182.2,198.9
		c-0.8,0-1.3,0.6-1.4,1.6h3C183.6,199.5,183.3,198.9,182.2,198.9z"/>
	<path fill="#0A9600" d="M193.7,207.2c-3.1,0-4.9-2-4.9-5.5c0-3.2,1.6-5.4,5-5.4c2,0,3.1,0.9,4,2.4l-2.5,1.9
		c-0.5-0.9-0.8-1.4-1.6-1.4c-0.9,0-1.4,0.9-1.4,2.6c0,1.7,0.5,2.5,1.5,2.5c0.7,0,1.2-0.4,1.8-1.4l2.3,1.8
		C196.7,206.5,195.5,207.2,193.7,207.2z"/>
	<path fill="#0A9600" d="M205.9,207v-6c0-1.4-0.5-1.7-1.2-1.7c-0.8,0-1.2,0.4-1.2,1.7v6h-3.6v-13.1l3.6-1.4v4.8
		c0.7-0.5,1.4-0.9,2.6-0.9c2.3,0,3.4,1.5,3.4,4.3v6.4H205.9z"/>
	<path d="M218.2,207.2c-4.2,0-6.4-3.1-6.4-7.2c0-4.5,2.6-7.2,6.4-7.2c3.4,0,4.8,1.5,5.8,4.1l-3.5,1.4c-0.5-1.3-1-2.1-2.3-2.1
		c-1.6,0-2.3,1.6-2.3,3.8c0,2.1,0.7,3.8,2.4,3.8c1.2,0,1.7-0.7,2.5-2l3.3,1.7C223.1,205.4,221.5,207.2,218.2,207.2z"/>
	<path d="M232.9,200.5c-0.5-0.5-1-0.9-1.7-0.9c-0.9,0-1.4,0.4-1.4,1.7v5.7h-3.6v-10.5h3.6v0.8c0.6-0.6,1.3-1,2.2-1
		c0.8,0,1.3,0.2,1.7,0.4L232.9,200.5z"/>
	<path d="M241.4,207v-0.7c-0.6,0.5-1.4,0.9-2.6,0.9c-2.3,0-3.4-1.5-3.4-4.3v-6.4h3.6v6c0,1.4,0.5,1.7,1.2,1.7s1.2-0.4,1.2-1.7v-6
		h3.6V207H241.4z"/>
	<path d="M253.7,207v-6c0-1.4-0.5-1.7-1.2-1.7c-0.8,0-1.2,0.4-1.2,1.7v6h-3.6v-10.5h3.6v0.7c0.7-0.5,1.4-0.9,2.6-0.9
		c2.3,0,3.4,1.5,3.4,4.3v6.4H253.7z"/>
	<path d="M264.3,207.2c-3.1,0-4.9-2-4.9-5.5c0-3.2,1.6-5.4,5-5.4c2,0,3.1,0.9,4,2.4l-2.5,1.9c-0.5-0.9-0.8-1.4-1.6-1.4
		c-0.9,0-1.4,0.9-1.4,2.6c0,1.7,0.5,2.5,1.5,2.5c0.7,0,1.2-0.4,1.8-1.4l2.3,1.8C267.3,206.5,266.2,207.2,264.3,207.2z"/>
	<path d="M276.6,207v-6c0-1.4-0.5-1.7-1.2-1.7c-0.8,0-1.2,0.4-1.2,1.7v6h-3.6v-13.1l3.6-1.4v4.8c0.7-0.5,1.4-0.9,2.6-0.9
		c2.3,0,3.4,1.5,3.4,4.3v6.4H276.6z"/>
</g>
<g>
	<polygon fill="#0A9600" points="110,187 110,195 118,195 118,211 126,211 126,195 134,195 134,187 	"/>
	<polygon fill="#0A9600" points="142,203 142,195 134,195 134,211 158,211 158,203 	"/>
	<rect x="142" y="187" fill="#0A9600" width="16" height="8"/>
</g>
</svg>
