<svg id="Layer_1" data-name="Layer 1" xmlns="http://www.w3.org/2000/svg" viewBox="0 0 1242 496">
  <title>market-right-bg</title>
  <polygon points="650 326 409 433 578 124 650 326" fill="#fff"/>
  <polygon points="637 236 740 395 581 347 637 236" fill="#00b0ff"/>
  <polygon points="700 320 678 241 735 265 700 320" fill="#ffc107"/>
  <polygon points="21 245 58 175 54 270 21 245" fill="#ffc107"/>
  <polygon points="811 226 870 221 884 283 811 226" fill="#00b0ff"/>
  <polygon points="22 269 149 219 136 271 22 269" fill="#00b0ff"/>
  <polygon points="535 189 637 348 563 344 535 189" fill="#00b0ff"/>
  <polygon points="138 274 136 245 130 238 124 241 115 227 102 237 92 295 92 297 116 291 133 283 138 274" fill="#fff"/>
  <polygon points="678 384 769 228 774 400 678 384" fill="#d2d2d2"/>
  <polygon points="619 329 596 250 633 296 619 329" fill="#ffc107"/>
  <polygon points="374 369 262 313 341 277 374 369" fill="#00b0ff"/>
  <polygon points="114 240 34 276 90 174 114 240" fill="#fff"/>
  <polygon points="862 294 802 241 864 51 862 294" fill="#fff"/>
  <polygon points="649 496 671 275 754 268 649 496" fill="#fff"/>
  <polygon points="790 267 774 169 878 169 790 267" fill="#d2d2d2"/>
  <polygon points="481 289 458 210 538 174 481 289" fill="#fff"/>
  <polygon points="765 214 749 157 806 131 765 214" fill="#fff"/>
  <polygon points="135 199 191 166 173 269 135 199" fill="#d2d2d2"/>
  <polygon points="134 202 118 145 174 119 134 202" fill="#fff"/>
  <polygon points="391 386 369 306 448 270 391 386" fill="#fff"/>
  <polygon points="336 130 359 130 381 185 336 130" fill="#d2d2d2"/>
  <polygon points="836 308 852 303 878 337 836 308" fill="#d2d2d2"/>
  <polygon points="695 183 762 93 735 154 695 183" fill="#d2d2d2"/>
  <polygon points="366 307 323 237 381 254 366 307" fill="#ffc107"/>
  <polygon points="484 155 557 179 532 196 484 155" fill="#d2d2d2"/>
  <polygon points="0 309 9 157 56 195 0 309" fill="#d2d2d2"/>
  <polygon points="573 0 593 20 601 67 573 0" fill="#fff"/>
  <polygon points="606 169 598 140 627 127 606 169" fill="#fff"/>
  <polygon points="810 338 806 349 826 340 826 339 810 338" fill="#fff"/>
  <polygon points="881 282 869 307 878 317 887 290 885 284 881 282" fill="#fff"/>
  <polygon points="304 252 296 240 272 251 304 252" fill="#00b0ff"/>
  <polygon points="353 221 345 187 332 220 353 221" fill="#00b0ff"/>
  <polygon points="659 169 662 167 659 154 641 164 632 191 637 216 654 217 667 184 663 168 659 169" fill="#fff"/>
  <polygon points="419 183 385 190 376 246 429 210 419 183" fill="#fff"/>
  <polygon points="478 171 460 163 454 185 473 188 478 171" fill="#d2d2d2"/>
  <polygon points="337 186 334 171 332 183 337 186" fill="#fff"/>
  <polygon points="255 206 235 224 242 266 245 265 266 223 255 206" fill="#fff"/>
  <polygon points="720 176 699 218 710 212 721 178 720 176" fill="#fff"/>
  <polygon points="476 141 457 100 448 110 476 141" fill="#fff"/>
  <polygon points="564 64 538 68 561 74 564 64" fill="#fff"/>
  <polygon points="317 192 322 182 323 178 324 166 309 172 317 192" fill="#00b0ff"/>
  <polygon points="548 108 562 89 560 88 503 123 548 108" fill="#fff"/>
  <polygon points="328 248 298 269 308 289 312 288 323 278 328 248" fill="#fff"/>
  <polygon points="392 117 404 109 393 85 392 117" fill="#a60261"/>
  <polygon points="70 161 82 153 71 129 70 161" fill="#00b0ff"/>
  <polygon points="572 192 590 181 588 167 583 162 569 178 572 192" fill="#d2d2d2"/>
  <polygon points="715 123 713 114 702 119 715 123" fill="#fff"/>
  <polygon points="430 263 441 255 439 252 442 255 464 239 448 219 413 249 430 263" fill="#fff"/>
  <polygon points="755 244 737 217 720 225 722 233 755 244" fill="#fff"/>
  <polygon points="620 164 622 158 621 158 612 165 617 174 620 165 620 163 620 164" fill="#fff"/>
  <polygon points="620 248 629 230 597 193 594 220 618 250 620 248" fill="#ffc107"/>
  <polygon points="547 226 541 230 542 232 556 234 561 230 547 226" fill="#d2d2d2"/>
  <polygon points="1016 136 1155 241 1068 403 1016 136" fill="#fff"/>
  <polygon points="1088 233 1050 303 1055 208 1088 233" fill="#ffc107"/>
  <polygon points="1184 211 1125 215 1111 154 1184 211" fill="#a60261"/>
  <polygon points="1080 210 953 259 966 207 1080 210" fill="#00b0ff"/>
  <polygon points="964 204 965 233 972 240 978 237 987 251 999 241 1010 182 980 176 964 204" fill="#fff"/>
  <polygon points="1002 238 1082 202 1026 305 1002 238" fill="#fff"/>
  <polygon points="1182 136 1242 189 1180 379 1182 136" fill="#fff"/>
  <polygon points="890 230 970 195 914 297 890 230" fill="#fff"/>
  <polygon points="215 214 279 274 174 297 215 214" fill="#d2d2d2"/>
  <polygon points="967 280 910 312 929 209 967 280" fill="#d2d2d2"/>
  <polygon points="968 276 984 333 927 359 968 276" fill="#ffc107"/>
  <polygon points="1167 162 1198 252 1143 211 1167 162" fill="#fff"/>
  <polygon points="1159 129 1143 133 1117 100 1159 129" fill="#fff"/>
  <polygon points="1089 101 1058 90 1069 83 1089 101" fill="#d2d2d2"/>
  <polygon points="1109 170 1099 321 1053 284 1109 170" fill="#d2d2d2"/>
  <polygon points="1071 167 1062 159 1056 140 1071 167" fill="#ffc107"/>
  <polygon points="1103 193 1105 219 1046 249 1103 193" fill="#d2d2d2"/>
  <polygon points="914 60 930 117 927 156 914 60" fill="#ffc107"/>
  <polygon points="995 92 981 135 924 161 995 92" fill="#fff"/>
  <polygon points="1060 162 1047 168 1056 194 1065 168 1060 162" fill="#fff"/>
  <polygon points="955 74 958 92 960 87 950 61 947 63 942 73 955 74" fill="#fff"/>
  <polygon points="1114 154 1126 129 1117 119 1108 146 1110 152 1114 154" fill="#fff"/>
  <polygon points="1067 126 1059 130 1064 138 1069 135 1067 126" fill="#00b0ff"/>
  <polygon points="951 149 956 135 950 111 948 111 930 119 950 149 951 149" fill="#fff"/>
  <polygon points="870 139 874 129 849 144 848 147 870 139" fill="#d2d2d2"/>
  <polygon points="909 156 902 153 884 163 910 172 911 166 909 156" fill="#fff"/>
  <polygon points="969 156 976 150 976 139 970 128 959 134 962 136 969 156" fill="#fff"/>
  <polygon points="1084 128 1087 134 1093 136 1084 128" fill="#fff"/>
  <polygon points="999 208 988 192 984 196 988 212 999 208" fill="#00b0ff"/>
  <polygon points="1019 168 1015 152 1000 165 999 169 1007 172 1019 168" fill="#00b0ff"/>
  <polygon points="228 189 228 188 218 160 209 168 214 194 228 189" fill="#fff"/>
  <polygon points="988 146 995 135 993 134 988 146" fill="#d2d2d2"/>
  <polygon points="1071 101 1076 114 1082 124 1091 125 1094 119 1071 101" fill="#00b0ff"/>
  <polygon points="962 136 956 150 964 148 962 136" fill="#00b0ff"/>
  <polygon points="948 191 956 167 934 183 948 191" fill="#d2d2d2"/>
  <polygon points="1061 155 1067 178 1068 179 1074 179 1072 139 1064 146 1061 155" fill="#fff"/>
  <polygon points="1047 128 1039 120 1038 120 1036 127 1046 130 1047 128" fill="#d2d2d2"/>
  <polygon points="1056 110 1061 115 1063 104 1056 110" fill="#fff"/>
  <polygon points="976 145 997 172 1006 166 1012 133 1000 123 976 145" fill="#fff"/>
  <polygon points="996 152 993 150 998 158 998 158 996 152" fill="#ffc107"/>
  <polygon points="1010 177 1006 205 1014 193 1018 172 1010 177" fill="#00b0ff"/>
</svg>
